<?xml version="1.0" encoding="utf-8"?>
<!-- Generator: Adobe Illustrator 16.2.0, SVG Export Plug-In . SVG Version: 6.00 Build 0)  -->
<!DOCTYPE svg PUBLIC "-//W3C//DTD SVG 1.1//EN" "http://www.w3.org/Graphics/SVG/1.1/DTD/svg11.dtd">
<svg version="1.1" id="Layer_1" xmlns="http://www.w3.org/2000/svg" xmlns:xlink="http://www.w3.org/1999/xlink" x="0px" y="0px"
	 width="109px" height="109px" viewBox="1.037 0.104 109 109" enable-background="new 1.037 0.104 109 109" xml:space="preserve">
<circle fill="#50AFCB" cx="55.537" cy="54.604" r="54.5"/>
<g>
	<g>
		<path fill-rule="evenodd" clip-rule="evenodd" fill="#FFFFFF" d="M65.692,61.788v-7.347l5.396-5.396h-5.396v-7.462l5.396-5.396
			h-5.396v-3.1c0,0-6.093-2.572-10.286-2.572c-4.07,0-9.918,2.572-9.918,2.572v3.1h-5.51l5.51,5.51v7.462l-5.51-0.115l5.51,5.51
			v7.347h-5.625l5.625,5.626v9.068h7.232l0.114,3.674l5.511-0.115v-3.559h7.347v-9.299l5.511-5.51H65.692z M55.666,72.884
			c-3.042,0-5.511-2.465-5.511-5.51c0-3.043,2.469-5.507,5.511-5.507c3.044,0,5.51,2.464,5.51,5.507
			C61.176,70.419,58.71,72.884,55.666,72.884z M55.666,60.142c-3.042,0-5.511-2.465-5.511-5.511c0-3.042,2.469-5.51,5.511-5.51
			c3.044,0,5.51,2.468,5.51,5.51C61.176,57.677,58.71,60.142,55.666,60.142z M55.666,47.173c-3.042,0-5.511-2.468-5.511-5.514
			c0-3.042,2.469-5.51,5.511-5.51c3.044,0,5.51,2.468,5.51,5.51C61.176,44.705,58.71,47.173,55.666,47.173z"/>
	</g>
</g>
</svg>
