<?xml version="1.0" encoding="utf-8"?>
<!-- Generator: Adobe Illustrator 16.2.0, SVG Export Plug-In . SVG Version: 6.00 Build 0)  -->
<!DOCTYPE svg PUBLIC "-//W3C//DTD SVG 1.1//EN" "http://www.w3.org/Graphics/SVG/1.1/DTD/svg11.dtd">
<svg version="1.1" id="Layer_1" xmlns="http://www.w3.org/2000/svg" xmlns:xlink="http://www.w3.org/1999/xlink" x="0px" y="0px"
	 width="109px" height="109px" viewBox="1.037 0.104 109 109" enable-background="new 1.037 0.104 109 109" xml:space="preserve">
<circle fill="#50AFCB" cx="55.537" cy="54.604" r="54.5"/>
<g id="Mail_x5F_2">
	<g>
		<path fill="#FFFFFF" d="M75.678,27.095c0-0.06,0-0.118-0.007-0.175c-0.007-0.057-0.007-0.114-0.016-0.17
			c-0.011-0.033-0.025-0.062-0.031-0.092c-0.02-0.062-0.039-0.12-0.065-0.178c-0.012-0.034-0.019-0.069-0.03-0.105
			c-0.029-0.049-0.062-0.094-0.094-0.144c-0.029-0.048-0.061-0.092-0.096-0.136c-0.048-0.062-0.096-0.124-0.154-0.18
			c-0.012-0.013-0.018-0.029-0.032-0.041c-0.024-0.022-0.057-0.027-0.082-0.048c-0.024-0.024-0.054-0.046-0.082-0.067
			c-0.023-0.016-0.033-0.039-0.054-0.053c-0.009-0.005-0.017-0.005-0.023-0.008c-0.01-0.007-0.017-0.018-0.029-0.023
			c-0.061-0.038-0.132-0.052-0.197-0.079c-0.052-0.022-0.103-0.047-0.156-0.063c-0.049-0.017-0.097-0.03-0.147-0.04
			c-0.061-0.013-0.115-0.013-0.176-0.019c-0.074-0.006-0.147-0.022-0.222-0.021c-0.018,0.003-0.037,0.011-0.057,0.013
			c-0.038,0.002-0.076,0.014-0.118,0.021c-0.06,0.008-0.117,0.015-0.175,0.031c-0.068,0.02-0.131,0.04-0.195,0.069
			c-0.051,0.02-0.099,0.046-0.15,0.074c-0.041,0.022-0.089,0.039-0.131,0.066c-0.013,0.008-0.025,0.011-0.035,0.018h-0.003
			L24.075,60.072c-0.586,0.409-0.836,1.153-0.623,1.833c0.214,0.679,0.847,1.142,1.559,1.142h16.354V76.13
			c0,0.063,0.029,0.114,0.036,0.172c0.012,0.11,0.031,0.217,0.065,0.325c0.033,0.099,0.075,0.192,0.123,0.28
			c0.051,0.09,0.105,0.173,0.173,0.252c0.071,0.091,0.151,0.164,0.241,0.229c0.046,0.04,0.073,0.091,0.123,0.123
			c0.051,0.031,0.108,0.045,0.159,0.069c0.053,0.026,0.101,0.049,0.155,0.071c0.186,0.067,0.371,0.114,0.562,0.114h0.003
			c0.195-0.003,0.383-0.047,0.565-0.114c0.038-0.017,0.077-0.029,0.115-0.045c0.167-0.076,0.32-0.176,0.454-0.307
			c0.022-0.023,0.039-0.048,0.059-0.071c0.066-0.073,0.133-0.139,0.187-0.227l5.911-9.334c0.037,0.024,0.063,0.063,0.101,0.085
			l17.988,9.811c0.482,0.26,1.061,0.271,1.551,0.01c0.481-0.255,0.807-0.736,0.861-1.283l4.891-49.042
			C75.689,27.197,75.678,27.146,75.678,27.095z M42.274,59.775H30.201l32.918-23.041L42.274,59.775z M44.635,70.49v-8.447
			l17.828-19.706L44.635,70.49z M67.784,73.512l-15.752-8.588l19.713-31.131L67.784,73.512z"/>
	</g>
</g>
</svg>
