<?xml version="1.0" encoding="utf-8"?>
<!-- Generator: Adobe Illustrator 16.2.0, SVG Export Plug-In . SVG Version: 6.00 Build 0)  -->
<!DOCTYPE svg PUBLIC "-//W3C//DTD SVG 1.1//EN" "http://www.w3.org/Graphics/SVG/1.1/DTD/svg11.dtd">
<svg version="1.1" id="Layer_1" xmlns="http://www.w3.org/2000/svg" xmlns:xlink="http://www.w3.org/1999/xlink" x="0px" y="0px"
	 width="109px" height="109px" viewBox="1.037 0.104 109 109" enable-background="new 1.037 0.104 109 109" xml:space="preserve">
<circle fill="#50AFCB" cx="55.537" cy="54.604" r="54.5"/>
<g id="Arrow_x5F_Both_x5F_Sides">
	<g>
		<path fill="#FFFFFF" d="M78.974,51.138c-0.07-0.07-0.144-0.134-0.224-0.188L66.206,38.811c-1.856-1.854-5.091-1.854-6.941,0
			c-0.927,0.93-1.438,2.164-1.438,3.474c0,1.313,0.511,2.547,1.415,3.452l4.583,4.762h-6.002c-1.259,0-2.403,0.492-3.272,1.278
			c-0.873-0.786-2.013-1.278-3.272-1.278l-5.979-0.019l4.538-4.72c0.927-0.927,1.438-2.161,1.438-3.474s-0.511-2.547-1.438-3.474
			c-1.854-1.856-5.107-1.834-6.922-0.019l-12.79,12.375c-1.131,1.135-1.754,2.643-1.754,4.244c-0.003,1.605,0.623,3.113,1.754,4.248
			c0.07,0.07,0.147,0.131,0.224,0.186l12.547,12.141c0.927,0.927,2.16,1.436,3.471,1.436c1.313,0,2.544-0.509,3.471-1.436
			c0.927-0.93,1.438-2.163,1.438-3.477s-0.511-2.548-1.416-3.452l-4.583-4.762h6.002c1.259,0,2.4-0.492,3.27-1.278
			c0.872,0.786,2.014,1.278,3.275,1.278l5.979,0.02l-4.538,4.72c-0.927,0.931-1.438,2.164-1.438,3.478
			c0,1.311,0.511,2.544,1.435,3.471c0.927,0.93,2.16,1.441,3.471,1.441c1.313,0,2.547-0.512,3.455-1.419l12.786-12.375
			c1.135-1.135,1.758-2.643,1.758-4.247C80.731,53.778,80.108,52.272,78.974,51.138z M52.912,55.382v0.022
			c-0.013,0.892-0.738,1.613-1.633,1.613h-6.002c-0.882,0-1.707,0.346-2.32,0.966c-0.613,0.616-0.952,1.438-0.952,2.308
			c0,0.876,0.339,1.697,0.937,2.298l4.583,4.762c0.31,0.31,0.479,0.723,0.479,1.157c0,0.438-0.169,0.847-0.482,1.16
			c-0.614,0.616-1.675,0.636-2.33-0.022L32.419,57.29c-0.042-0.042-0.086-0.077-0.131-0.115c-0.418-0.489-0.646-1.108-0.646-1.765
			c0-0.728,0.281-1.412,0.777-1.907l12.79-12.375c0.617-0.617,1.697-0.62,2.313,0c0.31,0.31,0.479,0.719,0.479,1.157
			c0,0.435-0.169,0.847-0.501,1.179l-4.542,4.721c-0.617,0.62-0.956,1.441-0.956,2.317c0,0.873,0.339,1.694,0.949,2.304
			c0.617,0.626,1.444,0.972,2.323,0.972h6.002c0.895,0,1.62,0.722,1.633,1.597C52.912,55.379,52.912,55.379,52.912,55.382z
			 M76.68,57.29L63.893,69.664c-0.617,0.617-1.697,0.624-2.313,0c-0.311-0.31-0.479-0.719-0.479-1.153
			c0-0.438,0.169-0.851,0.502-1.18l4.538-4.724c0.616-0.616,0.955-1.44,0.955-2.313c0-0.872-0.339-1.694-0.946-2.304
			c-0.619-0.627-1.444-0.973-2.323-0.973h-6.002c-0.897,0-1.626-0.725-1.636-1.604v-0.025c0.016-0.889,0.741-1.611,1.636-1.611
			h6.002c0.879,0,1.704-0.345,2.317-0.965c0.613-0.617,0.952-1.438,0.952-2.311c0-0.876-0.339-1.697-0.933-2.295l-4.583-4.765
			c-0.311-0.31-0.479-0.719-0.479-1.157c0-0.435,0.169-0.847,0.479-1.157c0.616-0.617,1.681-0.636,2.333,0.019L76.68,53.503
			c0.044,0.042,0.086,0.08,0.131,0.115c0.422,0.492,0.648,1.112,0.648,1.764C77.459,56.111,77.175,56.795,76.68,57.29z"/>
	</g>
</g>
</svg>
