<?xml version="1.0" encoding="utf-8"?>
<!-- Generator: Adobe Illustrator 16.2.0, SVG Export Plug-In . SVG Version: 6.00 Build 0)  -->
<!DOCTYPE svg PUBLIC "-//W3C//DTD SVG 1.1//EN" "http://www.w3.org/Graphics/SVG/1.1/DTD/svg11.dtd">
<svg version="1.1" id="Layer_1" xmlns="http://www.w3.org/2000/svg" xmlns:xlink="http://www.w3.org/1999/xlink" x="0px" y="0px"
	 width="109px" height="109px" viewBox="1.037 0.104 109 109" enable-background="new 1.037 0.104 109 109" xml:space="preserve">
<circle fill="#50AFCB" cx="55.537" cy="54.604" r="54.5"/>
<g id="Full_x5F_Screen">
	<g>
		<path fill="#FFFFFF" d="M57.519,44.019H34.306c-3.457,0-6.269,2.812-6.269,6.269v23.213c0,3.456,2.812,6.269,6.269,6.269h23.213
			c3.456,0,6.269-2.813,6.269-6.269V50.288C63.787,46.831,60.975,44.019,57.519,44.019z M60.537,73.501
			c0,1.666-1.354,3.019-3.019,3.019H34.306c-1.665,0-3.019-1.353-3.019-3.019V50.288c0-1.663,1.354-3.019,3.019-3.019h23.213
			c1.665,0,3.019,1.355,3.019,3.019V73.501z M73.769,27.769H50.556c-3.457,0-6.269,2.812-6.269,6.269v5.106
			c0,0.898,0.727,1.625,1.625,1.625s1.625-0.727,1.625-1.625v-5.106c0-1.663,1.354-3.019,3.019-3.019h23.213
			c1.665,0,3.019,1.355,3.019,3.019v23.213c0,1.666-1.354,3.019-3.019,3.019h-5.106c-0.898,0-1.625,0.727-1.625,1.625
			c0,0.897,0.727,1.625,1.625,1.625h5.106c3.456,0,6.269-2.813,6.269-6.269V34.038C80.037,30.581,77.225,27.769,73.769,27.769z"/>
	</g>
</g>
</svg>
