<?xml version="1.0" encoding="utf-8"?>
<!-- Generator: Adobe Illustrator 16.2.0, SVG Export Plug-In . SVG Version: 6.00 Build 0)  -->
<!DOCTYPE svg PUBLIC "-//W3C//DTD SVG 1.1//EN" "http://www.w3.org/Graphics/SVG/1.1/DTD/svg11.dtd">
<svg version="1.1" xmlns="http://www.w3.org/2000/svg" xmlns:xlink="http://www.w3.org/1999/xlink" x="0px" y="0px"
	 width="979.382px" height="320.005px" viewBox="0 0 979.382 320.005" enable-background="new 0 0 979.382 320.005"
	 xml:space="preserve">
<g id="Layer_1">
	<polygon fill="#7C7C7C" points="157.278,295.747 129.584,295.747 132.206,288.045 154.656,288.045 	"/>
</g>
<g id="Layer_2">
	<polygon fill="#2858A7" points="879.533,320.005 110.125,320.005 165.781,287.408 830.834,288.408 	"/>
	<rect x="165.602" y="276.406" fill="#F9D966" width="532.395" height="31.424"/>
	<rect x="440.102" y="276.406" fill="#F9D966" width="391.732" height="31.424"/>
	<rect y="268.406" fill="#645F5C" width="979.382" height="19.723"/>
	<rect x="608.717" y="270.873" fill="#E54829" width="14.789" height="33.27"/>
	<rect x="600.816" y="299.712" fill="#173B63" width="31.025" height="4.721"/>
	<rect x="6.026" y="273.337" fill="#33312F" width="973.249" height="9.861"/>
	<g>
		<rect x="136.221" y="284.112" width="12.946" height="4.097"/>
		<rect x="140.809" y="281.654" width="3.277" height="4.097"/>
	</g>
	<rect x="606.977" y="268.406" fill="#173B63" width="19.721" height="19.723"/>
	<rect x="807.718" y="270.873" fill="#E54829" width="14.789" height="33.27"/>
	<rect x="799.147" y="299.712" fill="#173B63" width="31.025" height="4.721"/>
	<rect x="805.308" y="268.406" fill="#173B63" width="19.721" height="19.723"/>
	<rect x="173.46" y="270.873" fill="#E54829" width="14.791" height="33.27"/>
	<rect x="170.996" y="268.406" fill="#173B63" width="19.722" height="19.723"/>
	<rect x="165.561" y="299.712" fill="#173B63" width="31.026" height="4.721"/>
	<rect x="380.262" y="270.873" fill="#E54829" width="14.791" height="33.27"/>
	<g>
		<rect x="917.987" y="288.045" fill="#565656" width="27.693" height="7.702"/>
		<polygon fill="#7C7C7C" points="945.681,295.747 917.987,295.747 920.608,288.045 943.06,288.045 		"/>
		<rect x="924.624" y="284.112" width="12.945" height="4.097"/>
		<rect x="929.212" y="281.654" width="3.277" height="4.097"/>
	</g>
	<rect x="372.361" y="299.712" fill="#173B63" width="31.027" height="4.721"/>
	<g>
		<rect x="74.584" y="288.045" fill="#565656" width="27.694" height="7.702"/>
		<polygon fill="#7C7C7C" points="102.278,295.747 74.584,295.747 77.206,288.045 99.656,288.045 		"/>
		<rect x="81.221" y="284.112" width="12.946" height="4.097"/>
		<rect x="85.809" y="281.654" width="3.277" height="4.097"/>
	</g>
	<rect x="377.941" y="268.406" fill="#173B63" width="19.723" height="19.723"/>
	<g>
		<g>
			<linearGradient id="SVGID_1_" gradientUnits="userSpaceOnUse" x1="883.8203" y1="16.6128" x2="881.3551" y2="4.2161">
				<stop  offset="0" style="stop-color:#FFFFFF"/>
				<stop  offset="0.6989" style="stop-color:#636363"/>
				<stop  offset="1" style="stop-color:#FFFFFF"/>
			</linearGradient>
			<path fill="url(#SVGID_1_)" d="M909.646,0l-1.082,4.087l-1.041,3.903c0,0-16.361,2.57-17.613,2.767
				c-1.252,0.198-1.406,1.933-1.941,4.625l-27.41,4.309l-0.742-1.089l-2.498-3.646l-4.166-6.078L909.646,0z"/>
			<path fill="#6D6E70" d="M910.15,13.197c-2.195,0.888-4.934,1.775-7.963,2.638c-3.936,1.123-8.365,2.205-12.74,3.185
				c-9.947,2.232-19.643,3.946-22.732,4.428l-0.729-4.606l21.982-3.456c0.531-2.697,0.691-4.429,1.941-4.631
				c1.252-0.195,17.613-2.763,17.613-2.763l1.037-3.905l0.152-0.026L910.15,13.197z"/>
			<path fill="#6D6E70" d="M910.861,28.449v3.905h-16.572c-1.072,0-1.953-0.879-1.953-1.951c0-0.542,0.219-1.032,0.574-1.378
				c0.355-0.356,0.838-0.576,1.379-0.576H910.861z"/>
			<path fill="#E4E4E4" d="M910.861,32.354v5.756c-3.574-3.035-13.563-5.756-15.289-5.756H910.861z"/>
			<path fill="#4D4C4C" d="M910.861,32.354v5.756c-3.574-3.035-13.563-5.756-15.289-5.756H910.861z"/>
			<rect x="910.861" y="24.046" fill="#6D6E70" width="3.939" height="17.748"/>
			<path fill="#4D4C4C" d="M901.148,24.325v4.124h-7.113v-4.124c0-1.968,1.596-3.557,3.557-3.557
				C899.561,20.768,901.148,22.357,901.148,24.325z"/>
			<path fill="#6D6E70" d="M900.449,22.983c0.424,1.656-0.576,3.346-2.25,3.778c-1.662,0.431-3.354-0.574-3.775-2.24
				c-0.313-1.201-1.344-2.781-4.531-3.727l-0.445-1.775c4.375-0.98,8.805-2.062,12.74-3.185l0.443,1.705
				C900.289,19.9,900.145,21.776,900.449,22.983z"/>
			<circle fill="#282827" cx="897.424" cy="23.796" r="1.744"/>
			<path opacity="0.43" fill="#3A3A3A" d="M908.824,4.78l-0.264,0.997l-1.037,3.905c0,0-16.361,2.568-17.613,2.763
				c-1.25,0.204-1.402,1.935-1.941,4.632l-21.721,3.405l-0.262-1.641l21.982-3.456c0.166-0.846,0.295-1.589,0.438-2.231
				c0.137-0.635,0.285-1.159,0.48-1.556c0.236-0.48,0.551-0.769,1.023-0.846c1.252-0.193,17.613-2.763,17.613-2.763l1.037-3.903
				l0.152-0.026L908.824,4.78z"/>
			<path opacity="0.43" fill="#808080" d="M902.631,17.54c-0.111,0.112-0.221,0.23-0.314,0.339
				c-0.041,0.009-0.082,0.024-0.129,0.033c-3.691,1.056-7.816,2.071-11.922,3c-0.119-0.042-0.244-0.077-0.373-0.118l-0.209-0.82
				l-0.236-0.955c4.375-0.98,8.805-2.062,12.74-3.185L902.631,17.54z"/>
			<path opacity="0.43" fill="#808080" d="M900.33,24.864c-0.025,1.361-0.947,2.603-2.342,2.958c-1.664,0.43-3.355-0.574-3.777-2.24
				c-0.041-0.169-0.1-0.346-0.176-0.522v-0.729c0-0.219,0.016-0.43,0.059-0.642c0.16,0.289,0.26,0.576,0.33,0.837
				c0.422,1.665,2.113,2.669,3.775,2.239C899.213,26.505,899.982,25.769,900.33,24.864z"/>
		</g>
		<linearGradient id="SVGID_2_" gradientUnits="userSpaceOnUse" x1="914.2539" y1="109.8794" x2="919.3066" y2="109.8794">
			<stop  offset="0" style="stop-color:#636363"/>
			<stop  offset="0.0914" style="stop-color:#FFFFFF"/>
			<stop  offset="0.6989" style="stop-color:#636363"/>
			<stop  offset="1" style="stop-color:#FFFFFF"/>
		</linearGradient>
		<path fill="url(#SVGID_2_)" d="M919.307,18.255c0-1.394-1.131-2.525-2.525-2.525l0,0c-1.396,0-2.527,1.131-2.527,2.525v183.247
			c0,1.396,1.131,2.526,2.527,2.526l0,0c1.395,0,2.525-1.131,2.525-2.526V18.255z"/>
		<linearGradient id="SVGID_3_" gradientUnits="userSpaceOnUse" x1="910.248" y1="254.6655" x2="923.3125" y2="254.6655">
			<stop  offset="0" style="stop-color:#FFFFFF"/>
			<stop  offset="0.6989" style="stop-color:#636363"/>
			<stop  offset="1" style="stop-color:#FFFFFF"/>
		</linearGradient>
		<path fill="url(#SVGID_3_)" d="M923.313,199.857c0-3.607-2.922-8.43-6.531-8.43v0.115c-3.609,0-6.533,4.707-6.533,8.314v118.047
			h13.064V199.857z"/>
	</g>
	<g>
		<g>
			
				<linearGradient id="SVGID_4_" gradientUnits="userSpaceOnUse" x1="1680.7285" y1="16.6118" x2="1678.2635" y2="4.2161" gradientTransform="matrix(-1 0 0 1 1807.6289 0)">
				<stop  offset="0" style="stop-color:#FFFFFF"/>
				<stop  offset="0.6989" style="stop-color:#636363"/>
				<stop  offset="1" style="stop-color:#FFFFFF"/>
			</linearGradient>
			<path fill="url(#SVGID_4_)" d="M101.075,0l1.084,4.087l1.039,3.903c0,0,16.362,2.57,17.615,2.767
				c1.251,0.198,1.406,1.933,1.942,4.625l27.409,4.309l0.743-1.089l2.499-3.646l4.164-6.078L101.075,0z"/>
			<path fill="#6D6E70" d="M100.572,13.197c2.196,0.888,4.935,1.775,7.961,2.638c3.938,1.123,8.366,2.205,12.743,3.185
				c9.946,2.232,19.641,3.946,22.733,4.428l0.727-4.606l-21.981-3.456c-0.532-2.697-0.692-4.429-1.944-4.631
				c-1.251-0.195-17.611-2.763-17.611-2.763l-1.039-3.905l-0.153-0.026L100.572,13.197z"/>
			<path fill="#6D6E70" d="M99.86,28.449v3.905h16.573c1.074,0,1.953-0.879,1.953-1.951c0-0.542-0.219-1.032-0.574-1.378
				c-0.355-0.356-0.837-0.576-1.378-0.576H99.86z"/>
			<path fill="#E4E4E4" d="M99.86,32.354v5.756c3.574-3.035,13.564-5.756,15.289-5.756H99.86z"/>
			<path fill="#4D4C4C" d="M99.86,32.354v5.756c3.574-3.035,13.564-5.756,15.289-5.756H99.86z"/>
			<rect x="95.922" y="24.046" fill="#6D6E70" width="3.938" height="17.748"/>
			<path fill="#4D4C4C" d="M109.573,24.325v4.124h7.115v-4.124c0-1.968-1.598-3.557-3.559-3.557
				C111.162,20.768,109.573,22.357,109.573,24.325z"/>
			<path fill="#6D6E70" d="M110.273,22.983c-0.423,1.656,0.574,3.346,2.248,3.778c1.665,0.431,3.355-0.574,3.778-2.24
				c0.313-1.201,1.343-2.781,4.529-3.727l0.447-1.775c-4.376-0.98-8.805-2.062-12.743-3.185l-0.44,1.705
				C110.433,19.9,110.577,21.776,110.273,22.983z"/>
			<circle fill="#282827" cx="113.298" cy="23.796" r="1.743"/>
			<path opacity="0.43" fill="#3A3A3A" d="M101.897,4.78l0.263,0.997l1.039,3.905c0,0,16.36,2.568,17.611,2.763
				c1.251,0.204,1.404,1.935,1.944,4.632l21.718,3.405l0.263-1.641l-21.981-3.456c-0.169-0.846-0.296-1.589-0.438-2.231
				c-0.136-0.635-0.287-1.159-0.482-1.556c-0.237-0.48-0.55-0.769-1.023-0.846c-1.251-0.193-17.611-2.763-17.611-2.763l-1.039-3.903
				l-0.153-0.026L101.897,4.78z"/>
			<path opacity="0.43" fill="#808080" d="M108.092,17.54c0.11,0.112,0.219,0.23,0.313,0.339c0.042,0.009,0.083,0.024,0.127,0.033
				c3.692,1.056,7.816,2.071,11.923,3c0.119-0.042,0.246-0.077,0.373-0.118l0.21-0.82l0.237-0.955
				c-4.376-0.98-8.805-2.062-12.743-3.185L108.092,17.54z"/>
			<path opacity="0.43" fill="#808080" d="M110.393,24.864c0.024,1.361,0.947,2.603,2.341,2.958c1.665,0.43,3.355-0.574,3.778-2.24
				c0.042-0.169,0.101-0.346,0.177-0.522v-0.729c0-0.219-0.018-0.43-0.059-0.642c-0.16,0.289-0.261,0.576-0.331,0.837
				c-0.423,1.665-2.113,2.669-3.776,2.239C111.508,26.505,110.739,25.769,110.393,24.864z"/>
		</g>
		
			<linearGradient id="SVGID_5_" gradientUnits="userSpaceOnUse" x1="1711.1621" y1="109.8794" x2="1716.2139" y2="109.8794" gradientTransform="matrix(-1 0 0 1 1807.6289 0)">
			<stop  offset="0" style="stop-color:#636363"/>
			<stop  offset="0.0914" style="stop-color:#FFFFFF"/>
			<stop  offset="0.6989" style="stop-color:#636363"/>
			<stop  offset="1" style="stop-color:#FFFFFF"/>
		</linearGradient>
		<path fill="url(#SVGID_5_)" d="M91.415,18.255c0-1.394,1.131-2.525,2.527-2.525l0,0c1.394,0,2.525,1.131,2.525,2.525v183.247
			c0,1.396-1.131,2.526-2.525,2.526l0,0c-1.396,0-2.527-1.131-2.527-2.526V18.255z"/>
		
			<linearGradient id="SVGID_6_" gradientUnits="userSpaceOnUse" x1="1707.1543" y1="254.6655" x2="1720.2207" y2="254.6655" gradientTransform="matrix(-1 0 0 1 1807.6289 0)">
			<stop  offset="0" style="stop-color:#FFFFFF"/>
			<stop  offset="0.6989" style="stop-color:#636363"/>
			<stop  offset="1" style="stop-color:#FFFFFF"/>
		</linearGradient>
		<path fill="url(#SVGID_6_)" d="M87.408,199.857c0-3.607,2.925-8.43,6.534-8.43v0.115c3.607,0,6.532,4.707,6.532,8.314v118.047
			H87.408V199.857z"/>
	</g>
	<g>
		<rect x="19.584" y="288.045" fill="#565656" width="27.694" height="7.702"/>
		<polygon fill="#7C7C7C" points="47.278,295.747 19.584,295.747 22.206,288.045 44.656,288.045 		"/>
		<rect x="26.221" y="284.112" width="12.946" height="4.097"/>
		<rect x="30.809" y="281.654" width="3.277" height="4.097"/>
	</g>
	<g>
		<rect x="863.332" y="288.045" fill="#565656" width="27.693" height="7.702"/>
		<polygon fill="#7C7C7C" points="891.025,295.747 863.332,295.747 865.953,288.045 888.404,288.045 		"/>
		<rect x="869.969" y="284.112" width="12.945" height="4.097"/>
		<rect x="874.557" y="281.654" width="3.277" height="4.097"/>
	</g>
	<g>
		<g>
			<rect x="269.251" y="234.372" width="38.5" height="22.833"/>
			<rect x="190.584" y="220.039" width="249.25" height="13.75"/>
			<rect x="642.084" y="220.039" width="165" height="13.75"/>
			<rect x="656.084" y="232.289" width="18" height="5.082"/>
			<rect x="419.834" y="221.093" width="224.5" height="7.391"/>
			<circle fill="#242526" stroke="#1A213B" stroke-width="2" stroke-miterlimit="10" cx="243.125" cy="245.581" r="22.875"/>
			<path fill="#564E4C" d="M249.959,250.789c0,1.104-0.896,2-2,2h-10c-1.104,0-2-0.896-2-2v-10.125c0-1.104,0.896-2,2-2h10
				c1.104,0,2,0.896,2,2V250.789z"/>
			<path fill="#343C4F" stroke="#0F0F0F" stroke-miterlimit="10" d="M248.625,245.581c0,3.034-2.462,5.5-5.5,5.5s-5.5-2.466-5.5-5.5
				s2.462-5.5,5.5-5.5S248.625,242.546,248.625,245.581z"/>
			<circle fill="#564E4C" cx="243.125" cy="245.581" r="2.5"/>
			<g>
				<path fill="#58524F" d="M243.125,266.081c-11.304,0-20.5-9.196-20.5-20.5s9.196-20.5,20.5-20.5s20.5,9.196,20.5,20.5
					S254.429,266.081,243.125,266.081z M243.125,227.081c-10.201,0-18.5,8.299-18.5,18.5s8.299,18.5,18.5,18.5s18.5-8.299,18.5-18.5
					S253.327,227.081,243.125,227.081z"/>
			</g>
			<circle fill="#242526" stroke="#1A213B" stroke-width="2" stroke-miterlimit="10" cx="335.125" cy="245.581" r="22.875"/>
			<path fill="#564E4C" d="M341.959,250.789c0,1.104-0.896,2-2,2h-10c-1.104,0-2-0.896-2-2v-10.125c0-1.104,0.896-2,2-2h10
				c1.104,0,2,0.896,2,2V250.789z"/>
			<path fill="#343C4F" stroke="#0F0F0F" stroke-miterlimit="10" d="M340.625,245.581c0,3.034-2.462,5.5-5.5,5.5s-5.5-2.466-5.5-5.5
				s2.462-5.5,5.5-5.5S340.625,242.546,340.625,245.581z"/>
			<circle fill="#564E4C" cx="335.125" cy="245.581" r="2.5"/>
			<g>
				<g>
					<path fill="#58524F" d="M335.125,266.081c-11.304,0-20.5-9.196-20.5-20.5s9.196-20.5,20.5-20.5s20.5,9.196,20.5,20.5
						S346.429,266.081,335.125,266.081z M335.125,227.081c-10.201,0-18.5,8.299-18.5,18.5s8.299,18.5,18.5,18.5
						s18.5-8.299,18.5-18.5S345.327,227.081,335.125,227.081z"/>
				</g>
			</g>
			<path fill="#343C4F" d="M339.209,233.789c-0.021,0-0.042,0.003-0.063,0.003v-0.003h-10.136l0.323-0.375c0-1.104-0.896-2-2-2
				h-76.625c-1.104,0-2,0.896-2,2l0.308,0.375h-10.401v0.003c-0.021,0-0.042-0.003-0.063-0.003c-3.607,0-6.531,2.924-6.531,6.531
				c0,3.607,2.924,6.531,6.531,6.531s6.531-2.924,6.531-6.531c0-0.663-0.101-1.303-0.284-1.906h8.012l15.897,19.375
				c0.729,0.729,1.646,2,2.75,2h34c1.104,0,2.042-1.167,2.875-2l16.692-19.375h7.936c-0.184,0.604-0.284,1.243-0.284,1.906
				c0,3.607,2.924,6.531,6.531,6.531s6.531-2.924,6.531-6.531C345.74,236.713,342.816,233.789,339.209,233.789z M267.021,246.476
				c0,2.083-1.656,2.345-2.458,1.542l-9.302-9.553c-0.792-0.792-0.573-2.552,1.448-2.552h8.313c1.104,0,2,0.896,2,2V246.476z
				 M307.334,252.664c0,2.209-1.791,4-4,4h-28.5c-2.209,0-4-1.791-4-4v-12.75c0-2.209,1.791-4,4-4h11.875v11.958h4.75v-11.958
				h11.875c2.209,0,4,1.791,4,4V252.664z M322.595,238.465l-9.302,9.553c-0.802,0.803-2.458,0.541-2.458-1.542v-8.563
				c0-1.104,0.896-2,2-2h8.313C323.167,235.914,323.387,237.673,322.595,238.465z"/>
			<path fill="#564E4C" d="M284.459,238.976c0,0.265-0.214,0.479-0.479,0.479H273.23c-0.265,0-0.479-0.215-0.479-0.479l0,0
				c0-0.265,0.214-0.479,0.479-0.479h10.749C284.245,238.497,284.459,238.711,284.459,238.976L284.459,238.976z"/>
			<path fill="#343C4F" d="M284.459,239.976c0,0.265-0.214,0.479-0.479,0.479H273.23c-0.265,0-0.479-0.215-0.479-0.479l0,0
				c0-0.265,0.214-0.479,0.479-0.479h10.749C284.245,239.498,284.459,239.711,284.459,239.976L284.459,239.976z"/>
			<path fill="#564E4C" d="M284.459,242.976c0,0.265-0.214,0.479-0.479,0.479H273.23c-0.265,0-0.479-0.215-0.479-0.479l0,0
				c0-0.265,0.214-0.479,0.479-0.479h10.749C284.245,242.498,284.459,242.711,284.459,242.976L284.459,242.976z"/>
			<path fill="#343C4F" d="M284.459,243.976c0,0.265-0.214,0.479-0.479,0.479H273.23c-0.265,0-0.479-0.215-0.479-0.479l0,0
				c0-0.265,0.214-0.479,0.479-0.479h10.749C284.245,243.498,284.459,243.711,284.459,243.976L284.459,243.976z"/>
			<path fill="#564E4C" d="M284.459,246.976c0,0.265-0.214,0.479-0.479,0.479H273.23c-0.265,0-0.479-0.215-0.479-0.479l0,0
				c0-0.265,0.214-0.479,0.479-0.479h10.749C284.245,246.498,284.459,246.711,284.459,246.976L284.459,246.976z"/>
			<path fill="#564E4C" d="M284.459,250.893c0,0.265-0.214,0.479-0.479,0.479H273.23c-0.265,0-0.479-0.215-0.479-0.479l0,0
				c0-0.265,0.214-0.479,0.479-0.479h10.749C284.245,250.415,284.459,250.628,284.459,250.893L284.459,250.893z"/>
			<path fill="#343C4F" d="M284.459,247.976c0,0.265-0.214,0.479-0.479,0.479H273.23c-0.265,0-0.479-0.215-0.479-0.479l0,0
				c0-0.265,0.214-0.479,0.479-0.479h10.749C284.245,247.498,284.459,247.711,284.459,247.976L284.459,247.976z"/>
			<path fill="#343C4F" d="M284.459,251.976c0,0.265-0.214,0.479-0.479,0.479H273.23c-0.265,0-0.479-0.215-0.479-0.479l0,0
				c0-0.265,0.214-0.479,0.479-0.479h10.749C284.245,251.498,284.459,251.711,284.459,251.976L284.459,251.976z"/>
			<path fill="#564E4C" d="M305.459,238.976c0,0.265-0.214,0.479-0.479,0.479H294.23c-0.265,0-0.479-0.215-0.479-0.479l0,0
				c0-0.265,0.214-0.479,0.479-0.479h10.749C305.245,238.497,305.459,238.711,305.459,238.976L305.459,238.976z"/>
			<path fill="#343C4F" d="M305.459,239.976c0,0.265-0.214,0.479-0.479,0.479H294.23c-0.265,0-0.479-0.215-0.479-0.479l0,0
				c0-0.265,0.214-0.479,0.479-0.479h10.749C305.245,239.498,305.459,239.711,305.459,239.976L305.459,239.976z"/>
			<path fill="#564E4C" d="M305.459,242.976c0,0.265-0.214,0.479-0.479,0.479H294.23c-0.265,0-0.479-0.215-0.479-0.479l0,0
				c0-0.265,0.214-0.479,0.479-0.479h10.749C305.245,242.498,305.459,242.711,305.459,242.976L305.459,242.976z"/>
			<path fill="#343C4F" d="M305.459,243.976c0,0.265-0.214,0.479-0.479,0.479H294.23c-0.265,0-0.479-0.215-0.479-0.479l0,0
				c0-0.265,0.214-0.479,0.479-0.479h10.749C305.245,243.498,305.459,243.711,305.459,243.976L305.459,243.976z"/>
			<path fill="#564E4C" d="M305.459,246.976c0,0.265-0.214,0.479-0.479,0.479H294.23c-0.265,0-0.479-0.215-0.479-0.479l0,0
				c0-0.265,0.214-0.479,0.479-0.479h10.749C305.245,246.498,305.459,246.711,305.459,246.976L305.459,246.976z"/>
			<path fill="#343C4F" d="M305.459,247.976c0,0.265-0.214,0.479-0.479,0.479H294.23c-0.265,0-0.479-0.215-0.479-0.479l0,0
				c0-0.265,0.214-0.479,0.479-0.479h10.749C305.245,247.498,305.459,247.711,305.459,247.976L305.459,247.976z"/>
			<path fill="#564E4C" d="M305.459,250.976c0,0.265-0.214,0.479-0.479,0.479H294.23c-0.265,0-0.479-0.215-0.479-0.479l0,0
				c0-0.265,0.214-0.479,0.479-0.479h10.749C305.245,250.498,305.459,250.711,305.459,250.976L305.459,250.976z"/>
			<path fill="#343C4F" d="M305.459,251.976c0,0.265-0.214,0.479-0.479,0.479H294.23c-0.265,0-0.479-0.215-0.479-0.479l0,0
				c0-0.265,0.214-0.479,0.479-0.479h10.749C305.245,251.498,305.459,251.711,305.459,251.976L305.459,251.976z"/>
			<rect x="271.459" y="229.664" fill="#343C4F" width="34.125" height="2.25"/>
			<rect x="293.115" y="226.07" fill="#343C4F" width="14.219" height="0.938"/>
			<rect x="270.115" y="226.07" fill="#343C4F" width="14.219" height="0.938"/>
			<rect x="690.251" y="234.372" width="38.5" height="22.833"/>
			<circle fill="#242526" stroke="#1A213B" stroke-width="2" stroke-miterlimit="10" cx="664.125" cy="245.581" r="22.875"/>
			<path fill="#564E4C" d="M670.959,250.789c0,1.104-0.896,2-2,2h-10c-1.104,0-2-0.896-2-2v-10.125c0-1.104,0.896-2,2-2h10
				c1.104,0,2,0.896,2,2V250.789z"/>
			<path fill="#343C4F" stroke="#0F0F0F" stroke-miterlimit="10" d="M669.625,245.581c0,3.034-2.462,5.5-5.5,5.5
				c-3.037,0-5.5-2.466-5.5-5.5s2.463-5.5,5.5-5.5C667.163,240.081,669.625,242.546,669.625,245.581z"/>
			<circle fill="#564E4C" cx="664.125" cy="245.581" r="2.5"/>
			<g>
				<path fill="#58524F" d="M664.125,266.081c-11.303,0-20.5-9.196-20.5-20.5s9.197-20.5,20.5-20.5c11.305,0,20.5,9.196,20.5,20.5
					S675.43,266.081,664.125,266.081z M664.125,227.081c-10.201,0-18.5,8.299-18.5,18.5s8.299,18.5,18.5,18.5s18.5-8.299,18.5-18.5
					S674.326,227.081,664.125,227.081z"/>
			</g>
			<circle fill="#242526" stroke="#1A213B" stroke-width="2" stroke-miterlimit="10" cx="756.125" cy="245.581" r="22.875"/>
			<path fill="#564E4C" d="M762.959,250.789c0,1.104-0.896,2-2,2h-10c-1.104,0-2-0.896-2-2v-10.125c0-1.104,0.896-2,2-2h10
				c1.104,0,2,0.896,2,2V250.789z"/>
			<path fill="#343C4F" stroke="#0F0F0F" stroke-miterlimit="10" d="M761.625,245.581c0,3.034-2.462,5.5-5.5,5.5
				c-3.037,0-5.5-2.466-5.5-5.5s2.463-5.5,5.5-5.5C759.163,240.081,761.625,242.546,761.625,245.581z"/>
			<circle fill="#564E4C" cx="756.125" cy="245.581" r="2.5"/>
			<g>
				<g>
					<path fill="#58524F" d="M756.125,266.081c-11.303,0-20.5-9.196-20.5-20.5s9.197-20.5,20.5-20.5c11.305,0,20.5,9.196,20.5,20.5
						S767.43,266.081,756.125,266.081z M756.125,227.081c-10.201,0-18.5,8.299-18.5,18.5s8.299,18.5,18.5,18.5s18.5-8.299,18.5-18.5
						S766.326,227.081,756.125,227.081z"/>
				</g>
			</g>
			<path fill="#343C4F" d="M760.209,233.789c-0.021,0-0.041,0.003-0.063,0.003v-0.003h-10.136l0.323-0.375c0-1.104-0.896-2-2-2
				h-76.625c-1.104,0-2,0.896-2,2l0.308,0.375h-10.401v0.003c-0.021,0-0.041-0.003-0.063-0.003c-3.607,0-6.531,2.924-6.531,6.531
				c0,3.607,2.924,6.531,6.531,6.531s6.531-2.924,6.531-6.531c0-0.663-0.101-1.303-0.284-1.906h8.012l15.897,19.375
				c0.729,0.729,1.646,2,2.75,2h34c1.104,0,2.042-1.167,2.875-2l16.692-19.375h7.936c-0.184,0.604-0.284,1.243-0.284,1.906
				c0,3.607,2.924,6.531,6.531,6.531s6.531-2.924,6.531-6.531C766.74,236.713,763.816,233.789,760.209,233.789z M688.021,246.476
				c0,2.083-1.656,2.345-2.459,1.542l-9.302-9.553c-0.792-0.792-0.573-2.552,1.448-2.552h8.313c1.104,0,2,0.896,2,2V246.476z
				 M728.334,252.664c0,2.209-1.791,4-4,4h-28.5c-2.209,0-4-1.791-4-4v-12.75c0-2.209,1.791-4,4-4h11.875v11.958h4.75v-11.958
				h11.875c2.209,0,4,1.791,4,4V252.664z M743.595,238.465l-9.302,9.553c-0.803,0.803-2.459,0.541-2.459-1.542v-8.563
				c0-1.104,0.896-2,2-2h8.313C744.168,235.914,744.387,237.673,743.595,238.465z"/>
			<path fill="#564E4C" d="M705.459,238.976c0,0.265-0.215,0.479-0.479,0.479H694.23c-0.266,0-0.479-0.215-0.479-0.479l0,0
				c0-0.265,0.214-0.479,0.479-0.479h10.749C705.244,238.497,705.459,238.711,705.459,238.976L705.459,238.976z"/>
			<path fill="#343C4F" d="M705.459,239.976c0,0.265-0.215,0.479-0.479,0.479H694.23c-0.266,0-0.479-0.215-0.479-0.479l0,0
				c0-0.265,0.214-0.479,0.479-0.479h10.749C705.244,239.498,705.459,239.711,705.459,239.976L705.459,239.976z"/>
			<path fill="#564E4C" d="M705.459,242.976c0,0.265-0.215,0.479-0.479,0.479H694.23c-0.266,0-0.479-0.215-0.479-0.479l0,0
				c0-0.265,0.214-0.479,0.479-0.479h10.749C705.244,242.498,705.459,242.711,705.459,242.976L705.459,242.976z"/>
			<path fill="#343C4F" d="M705.459,243.976c0,0.265-0.215,0.479-0.479,0.479H694.23c-0.266,0-0.479-0.215-0.479-0.479l0,0
				c0-0.265,0.214-0.479,0.479-0.479h10.749C705.244,243.498,705.459,243.711,705.459,243.976L705.459,243.976z"/>
			<path fill="#564E4C" d="M705.459,246.976c0,0.265-0.215,0.479-0.479,0.479H694.23c-0.266,0-0.479-0.215-0.479-0.479l0,0
				c0-0.265,0.214-0.479,0.479-0.479h10.749C705.244,246.498,705.459,246.711,705.459,246.976L705.459,246.976z"/>
			<path fill="#564E4C" d="M705.459,250.893c0,0.265-0.215,0.479-0.479,0.479H694.23c-0.266,0-0.479-0.215-0.479-0.479l0,0
				c0-0.265,0.214-0.479,0.479-0.479h10.749C705.244,250.415,705.459,250.628,705.459,250.893L705.459,250.893z"/>
			<path fill="#343C4F" d="M705.459,247.976c0,0.265-0.215,0.479-0.479,0.479H694.23c-0.266,0-0.479-0.215-0.479-0.479l0,0
				c0-0.265,0.214-0.479,0.479-0.479h10.749C705.244,247.498,705.459,247.711,705.459,247.976L705.459,247.976z"/>
			<path fill="#343C4F" d="M705.459,251.976c0,0.265-0.215,0.479-0.479,0.479H694.23c-0.266,0-0.479-0.215-0.479-0.479l0,0
				c0-0.265,0.214-0.479,0.479-0.479h10.749C705.244,251.498,705.459,251.711,705.459,251.976L705.459,251.976z"/>
			<path fill="#564E4C" d="M726.459,238.976c0,0.265-0.215,0.479-0.479,0.479H715.23c-0.266,0-0.479-0.215-0.479-0.479l0,0
				c0-0.265,0.214-0.479,0.479-0.479h10.749C726.244,238.497,726.459,238.711,726.459,238.976L726.459,238.976z"/>
			<path fill="#343C4F" d="M726.459,239.976c0,0.265-0.215,0.479-0.479,0.479H715.23c-0.266,0-0.479-0.215-0.479-0.479l0,0
				c0-0.265,0.214-0.479,0.479-0.479h10.749C726.244,239.498,726.459,239.711,726.459,239.976L726.459,239.976z"/>
			<path fill="#564E4C" d="M726.459,242.976c0,0.265-0.215,0.479-0.479,0.479H715.23c-0.266,0-0.479-0.215-0.479-0.479l0,0
				c0-0.265,0.214-0.479,0.479-0.479h10.749C726.244,242.498,726.459,242.711,726.459,242.976L726.459,242.976z"/>
			<path fill="#343C4F" d="M726.459,243.976c0,0.265-0.215,0.479-0.479,0.479H715.23c-0.266,0-0.479-0.215-0.479-0.479l0,0
				c0-0.265,0.214-0.479,0.479-0.479h10.749C726.244,243.498,726.459,243.711,726.459,243.976L726.459,243.976z"/>
			<path fill="#564E4C" d="M726.459,246.976c0,0.265-0.215,0.479-0.479,0.479H715.23c-0.266,0-0.479-0.215-0.479-0.479l0,0
				c0-0.265,0.214-0.479,0.479-0.479h10.749C726.244,246.498,726.459,246.711,726.459,246.976L726.459,246.976z"/>
			<path fill="#343C4F" d="M726.459,247.976c0,0.265-0.215,0.479-0.479,0.479H715.23c-0.266,0-0.479-0.215-0.479-0.479l0,0
				c0-0.265,0.214-0.479,0.479-0.479h10.749C726.244,247.498,726.459,247.711,726.459,247.976L726.459,247.976z"/>
			<path fill="#564E4C" d="M726.459,250.976c0,0.265-0.215,0.479-0.479,0.479H715.23c-0.266,0-0.479-0.215-0.479-0.479l0,0
				c0-0.265,0.214-0.479,0.479-0.479h10.749C726.244,250.498,726.459,250.711,726.459,250.976L726.459,250.976z"/>
			<path fill="#343C4F" d="M726.459,251.976c0,0.265-0.215,0.479-0.479,0.479H715.23c-0.266,0-0.479-0.215-0.479-0.479l0,0
				c0-0.265,0.214-0.479,0.479-0.479h10.749C726.244,251.498,726.459,251.711,726.459,251.976L726.459,251.976z"/>
			<rect x="692.459" y="229.664" fill="#343C4F" width="34.125" height="2.25"/>
			<rect x="714.115" y="226.07" fill="#343C4F" width="14.219" height="0.938"/>
			<rect x="691.115" y="226.07" fill="#343C4F" width="14.219" height="0.938"/>
			<rect x="175.917" y="223.789" fill="#33312F" width="15.333" height="8.833"/>
			<rect x="181" y="225.455" fill="#645F5C" width="8.667" height="4.167"/>
			<rect x="180.584" y="232.539" fill="#33312F" width="3" height="10.25"/>
			<rect x="163.209" y="223.789" fill="#010203" width="12.75" height="9.688"/>
			<polygon fill="#645F5C" points="166.751,230.206 166.751,233.123 164.584,233.123 164.584,230.206 164.584,227.372 
				164.584,224.872 166.751,224.872 166.751,227.372 176.393,227.372 176.376,221.268 167.416,221.287 167.333,220.205 
				160.917,220.205 160.917,236.622 176.417,236.622 176.4,230.206 			"/>
			<rect x="806.668" y="223.289" fill="#33312F" width="15.332" height="8.834"/>
			<rect x="808.251" y="224.955" fill="#606060" width="8.667" height="4.168"/>
			<rect x="814.334" y="232.039" fill="#33312F" width="3" height="10.25"/>
			<rect x="821.959" y="223.289" fill="#010203" width="12.75" height="9.688"/>
			<polygon fill="#606060" points="831.167,229.706 831.167,232.623 833.334,232.623 833.334,229.706 833.334,226.872 
				833.334,224.372 831.167,224.372 831.167,226.872 821.525,226.872 821.542,220.768 830.502,220.787 830.584,219.705 837,219.705 
				837,236.123 821.5,236.123 821.518,229.706 			"/>
			<rect x="408.751" y="230.705" width="4" height="10.667"/>
			<rect x="458.667" y="222.872" width="4" height="10.667"/>
			<rect x="488.667" y="227.705" width="17.917" height="11.833"/>
			<rect x="512.167" y="227.705" width="16.655" height="6.584"/>
			<rect x="562.668" y="227.705" width="12.654" height="19.667"/>
			<rect x="562.668" y="234.705" width="19.904" height="8.75"/>
			<rect x="556.751" y="239.622" width="6.445" height="2.834"/>
			<rect x="588.557" y="227.899" width="3.945" height="15.389"/>
			<rect x="604.807" y="227.899" width="1.945" height="9.806"/>
			<rect x="590.793" y="234.412" width="15.555" height="1.445"/>
			<rect x="592.418" y="240.524" width="1.208" height="7.84"/>
			<rect x="453.25" y="235.872" width="10.666" height="4"/>
			<rect x="423.418" y="230.705" width="0.833" height="10.667"/>
			<rect x="459.584" y="230.705" width="1.667" height="10.667"/>
			<rect x="405.334" y="238.623" width="58.75" height="0.832"/>
		</g>
		<g>
			<g>
				<polygon fill="#494541" points="790.91,195.59 739.966,195.59 736.025,185.197 739.966,174.748 790.91,174.748 				"/>
			</g>
			<g>
				<polygon fill="#494541" points="222.831,157.755 219.042,156.385 205.877,205.711 209.667,207.083 				"/>
			</g>
			<g>
				<rect x="688.775" y="183.146" fill="#494541" width="49.191" height="4.34"/>
			</g>
			<g>
				<rect x="652.857" y="183.146" fill="#37332E" width="30.756" height="21.928"/>
			</g>
			<g>
				<rect x="681.12" y="176.894" fill="#4D4945" width="12.266" height="28.181"/>
			</g>
			<g>
				<ellipse fill="#37332E" cx="708.478" cy="171.088" rx="12.259" ry="14.278"/>
			</g>
			<g>
				<path fill="#494541" d="M708.477,163.06c5.847,0,10.719,4.774,11.946,11.154c0.194-1.008,0.313-2.048,0.313-3.125
					c0-7.886-5.487-14.278-12.26-14.278c-6.771,0-12.258,6.392-12.258,14.278c0,1.078,0.118,2.118,0.315,3.125
					C697.759,167.834,702.629,163.06,708.477,163.06z"/>
			</g>
			<g>
				<polygon fill="#306ABF" points="272.581,209.032 266.77,202.726 356.487,90.572 362.298,96.878 				"/>
			</g>
			<g>
				<rect x="256.644" y="51.01" fill="#306ABF" width="14.52" height="153.292"/>
			</g>
			<g>
				<rect x="726.493" y="51.01" fill="#306ABF" width="14.521" height="153.292"/>
			</g>
			<g>
				<polygon fill="#306ABF" points="725.565,209.032 731.374,202.726 641.66,90.572 635.85,96.878 				"/>
			</g>
			<g>
				<polygon fill="#005F4F" points="743.684,51.097 738.487,46.936 646.056,203.636 651.254,207.796 				"/>
			</g>
			<g>
				<polygon fill="#005F4F" points="254.462,51.097 259.66,46.936 352.092,203.636 346.893,207.796 				"/>
			</g>
			<g>
				<rect x="424.565" y="219.969" fill="#37332E" width="173.314" height="23.372"/>
			</g>
			<g>
				<g>
					<polygon fill="#2858A7" points="256.644,51.01 378.188,256.008 425.774,256.008 449.822,216.954 473.868,256.008 
						523.789,256.008 547.835,216.954 571.883,256.008 619.853,256.008 741.014,51.01 					"/>
				</g>
			</g>
			<g>
				<polygon fill="#005F4F" points="747.764,219.969 190.893,219.969 190.893,204.301 806.764,204.301 				"/>
			</g>
			<g>
				<polygon fill="#201F1E" points="356.82,219.969 378.188,256.008 425.774,256.008 449.822,216.954 473.868,256.008 
					523.789,256.008 547.835,216.954 571.883,256.008 619.853,256.008 644.298,214.651 353.667,214.651 				"/>
			</g>
			<g>
				<polygon fill="#2858A7" points="317.688,204.301 314.978,204.301 191.013,204.301 191.013,219.969 314.978,219.969 
					317.688,219.969 806.646,219.969 806.646,204.301 				"/>
			</g>
			<g>
				<g>
					<g>
						<rect x="229.615" y="219.969" fill="#201F1E" width="95.675" height="5.986"/>
					</g>
				</g>
			</g>
			<g>
				<g>
					<g>
						<rect x="407.74" y="55.042" fill="#173B63" width="35.584" height="4.509"/>
					</g>
				</g>
				<g>
					<rect x="407.74" y="59.551" fill="#306ABF" width="35.584" height="4.502"/>
				</g>
			</g>
			<g>
				<g>
					<g>
						<rect x="407.74" y="73.632" fill="#173B63" width="35.584" height="4.51"/>
					</g>
				</g>
				<g>
					<rect x="407.74" y="78.142" fill="#306ABF" width="35.584" height="4.501"/>
				</g>
			</g>
			<g>
				<g>
					<g>
						<rect x="407.74" y="92.223" fill="#173B63" width="35.584" height="4.507"/>
					</g>
				</g>
				<g>
					<rect x="407.74" y="96.729" fill="#306ABF" width="35.584" height="4.504"/>
				</g>
			</g>
			<g>
				<g>
					<g>
						<rect x="407.74" y="110.812" fill="#173B63" width="35.584" height="4.508"/>
					</g>
				</g>
				<g>
					<rect x="407.74" y="115.32" fill="#306ABF" width="35.584" height="4.503"/>
				</g>
			</g>
			<g>
				<g>
					<g>
						<rect x="407.74" y="129.402" fill="#173B63" width="35.584" height="4.507"/>
					</g>
				</g>
				<g>
					<rect x="407.74" y="133.909" fill="#306ABF" width="35.584" height="4.503"/>
				</g>
			</g>
			<g>
				<g>
					<g>
						<rect x="407.74" y="147.99" fill="#173B63" width="35.584" height="4.509"/>
					</g>
				</g>
				<g>
					<rect x="407.74" y="152.499" fill="#306ABF" width="35.584" height="4.503"/>
				</g>
			</g>
			<g>
				<g>
					<g>
						<rect x="407.74" y="166.582" fill="#173B63" width="35.584" height="4.507"/>
					</g>
				</g>
				<g>
					<rect x="407.74" y="171.088" fill="#306ABF" width="35.584" height="4.503"/>
				</g>
			</g>
			<g>
				<g>
					<g>
						<rect x="407.74" y="185.17" fill="#173B63" width="35.584" height="4.509"/>
					</g>
				</g>
				<g>
					<rect x="407.74" y="189.679" fill="#306ABF" width="35.584" height="4.502"/>
				</g>
			</g>
			<g>
				<g>
					<g>
						<rect x="506.334" y="55.042" fill="#173B63" width="35.582" height="4.509"/>
					</g>
				</g>
				<g>
					<rect x="506.334" y="59.551" fill="#306ABF" width="35.582" height="4.502"/>
				</g>
			</g>
			<g>
				<g>
					<g>
						<rect x="506.334" y="73.632" fill="#173B63" width="35.582" height="4.51"/>
					</g>
				</g>
				<g>
					<rect x="506.334" y="78.142" fill="#306ABF" width="35.582" height="4.501"/>
				</g>
			</g>
			<g>
				<g>
					<g>
						<rect x="506.334" y="92.223" fill="#173B63" width="35.582" height="4.507"/>
					</g>
				</g>
				<g>
					<rect x="506.334" y="96.729" fill="#306ABF" width="35.582" height="4.504"/>
				</g>
			</g>
			<g>
				<g>
					<g>
						<rect x="506.334" y="110.812" fill="#173B63" width="35.582" height="4.508"/>
					</g>
				</g>
				<g>
					<rect x="506.334" y="115.32" fill="#306ABF" width="35.582" height="4.503"/>
				</g>
			</g>
			<g>
				<g>
					<g>
						<rect x="506.334" y="129.402" fill="#173B63" width="35.582" height="4.507"/>
					</g>
				</g>
				<g>
					<rect x="506.334" y="133.909" fill="#306ABF" width="35.582" height="4.503"/>
				</g>
			</g>
			<g>
				<g>
					<g>
						<rect x="506.334" y="147.99" fill="#173B63" width="35.582" height="4.509"/>
					</g>
				</g>
				<g>
					<rect x="506.334" y="152.499" fill="#306ABF" width="35.582" height="4.503"/>
				</g>
			</g>
			<g>
				<g>
					<g>
						<rect x="506.334" y="166.582" fill="#173B63" width="35.582" height="4.507"/>
					</g>
				</g>
				<g>
					<rect x="506.334" y="171.088" fill="#306ABF" width="35.582" height="4.503"/>
				</g>
			</g>
			<g>
				<g>
					<g>
						<rect x="506.334" y="185.17" fill="#173B63" width="35.582" height="4.509"/>
					</g>
				</g>
				<g>
					<rect x="506.334" y="189.679" fill="#306ABF" width="35.582" height="4.502"/>
				</g>
			</g>
			<g>
				<g>
					<g>
						<g>
							<rect x="604.925" y="55.042" fill="#173B63" width="35.585" height="4.509"/>
						</g>
					</g>
					<g>
						<rect x="604.925" y="59.551" fill="#306ABF" width="35.585" height="4.502"/>
					</g>
				</g>
				<g>
					<g>
						<g>
							<rect x="604.925" y="73.632" fill="#173B63" width="35.585" height="4.51"/>
						</g>
					</g>
					<g>
						<rect x="604.925" y="78.142" fill="#306ABF" width="35.585" height="4.501"/>
					</g>
				</g>
				<g>
					<g>
						<g>
							<rect x="604.925" y="92.223" fill="#173B63" width="35.585" height="4.507"/>
						</g>
					</g>
					<g>
						<rect x="604.925" y="96.729" fill="#306ABF" width="35.585" height="4.504"/>
					</g>
				</g>
				<g>
					<g>
						<g>
							<rect x="604.925" y="110.812" fill="#173B63" width="35.585" height="4.508"/>
						</g>
					</g>
					<g>
						<rect x="604.925" y="115.32" fill="#306ABF" width="35.585" height="4.503"/>
					</g>
				</g>
				<g>
					<g>
						<g>
							<rect x="604.925" y="129.402" fill="#173B63" width="35.585" height="4.507"/>
						</g>
					</g>
					<g>
						<rect x="604.925" y="133.909" fill="#306ABF" width="35.585" height="4.503"/>
					</g>
				</g>
				<g>
					<g>
						<g>
							<rect x="604.925" y="147.99" fill="#173B63" width="35.585" height="4.509"/>
						</g>
					</g>
					<g>
						<rect x="604.925" y="152.499" fill="#306ABF" width="35.585" height="4.503"/>
					</g>
				</g>
				<g>
					<g>
						<g>
							<rect x="604.925" y="166.582" fill="#173B63" width="35.585" height="4.507"/>
						</g>
					</g>
					<g>
						<rect x="604.925" y="171.088" fill="#306ABF" width="35.585" height="4.503"/>
					</g>
				</g>
				<g>
					<g>
						<g>
							<rect x="604.925" y="185.17" fill="#173B63" width="35.585" height="4.509"/>
						</g>
					</g>
					<g>
						<rect x="604.925" y="189.679" fill="#306ABF" width="35.585" height="4.502"/>
					</g>
				</g>
			</g>
			<g>
				<g>
					<g>
						<g>
							<rect x="555.758" y="55.042" fill="#173B63" width="35.584" height="4.509"/>
						</g>
					</g>
					<g>
						<rect x="555.758" y="59.551" fill="#306ABF" width="35.584" height="4.502"/>
					</g>
				</g>
				<g>
					<g>
						<g>
							<rect x="555.758" y="73.632" fill="#173B63" width="35.584" height="4.51"/>
						</g>
					</g>
					<g>
						<rect x="555.758" y="78.142" fill="#306ABF" width="35.584" height="4.501"/>
					</g>
				</g>
				<g>
					<g>
						<g>
							<rect x="555.758" y="92.223" fill="#173B63" width="35.584" height="4.507"/>
						</g>
					</g>
					<g>
						<rect x="555.758" y="96.729" fill="#306ABF" width="35.584" height="4.504"/>
					</g>
				</g>
				<g>
					<g>
						<g>
							<rect x="555.758" y="110.812" fill="#173B63" width="35.584" height="4.508"/>
						</g>
					</g>
					<g>
						<rect x="555.758" y="115.32" fill="#306ABF" width="35.584" height="4.503"/>
					</g>
				</g>
				<g>
					<g>
						<g>
							<rect x="555.758" y="129.402" fill="#173B63" width="35.584" height="4.507"/>
						</g>
					</g>
					<g>
						<rect x="555.758" y="133.909" fill="#306ABF" width="35.584" height="4.503"/>
					</g>
				</g>
				<g>
					<g>
						<g>
							<rect x="555.758" y="147.99" fill="#173B63" width="35.584" height="4.509"/>
						</g>
					</g>
					<g>
						<rect x="555.758" y="152.499" fill="#306ABF" width="35.584" height="4.503"/>
					</g>
				</g>
				<g>
					<g>
						<g>
							<rect x="555.758" y="166.582" fill="#173B63" width="35.584" height="4.507"/>
						</g>
					</g>
					<g>
						<rect x="555.758" y="171.088" fill="#306ABF" width="35.584" height="4.503"/>
					</g>
				</g>
				<g>
					<g>
						<g>
							<rect x="555.758" y="185.17" fill="#173B63" width="35.584" height="4.509"/>
						</g>
					</g>
					<g>
						<rect x="555.758" y="189.679" fill="#306ABF" width="35.584" height="4.502"/>
					</g>
				</g>
			</g>
			<g>
				<g>
					<g>
						<g>
							<rect x="457.056" y="55.042" fill="#173B63" width="35.584" height="4.509"/>
						</g>
					</g>
					<g>
						<rect x="457.056" y="59.551" fill="#306ABF" width="35.584" height="4.502"/>
					</g>
				</g>
				<g>
					<g>
						<g>
							<rect x="457.056" y="73.632" fill="#173B63" width="35.584" height="4.51"/>
						</g>
					</g>
					<g>
						<rect x="457.056" y="78.142" fill="#306ABF" width="35.584" height="4.501"/>
					</g>
				</g>
				<g>
					<g>
						<g>
							<rect x="457.056" y="92.223" fill="#173B63" width="35.584" height="4.507"/>
						</g>
					</g>
					<g>
						<rect x="457.056" y="96.729" fill="#306ABF" width="35.584" height="4.504"/>
					</g>
				</g>
				<g>
					<g>
						<g>
							<rect x="457.056" y="110.812" fill="#173B63" width="35.584" height="4.508"/>
						</g>
					</g>
					<g>
						<rect x="457.056" y="115.32" fill="#306ABF" width="35.584" height="4.503"/>
					</g>
				</g>
				<g>
					<g>
						<g>
							<rect x="457.056" y="129.402" fill="#173B63" width="35.584" height="4.507"/>
						</g>
					</g>
					<g>
						<rect x="457.056" y="133.909" fill="#306ABF" width="35.584" height="4.503"/>
					</g>
				</g>
				<g>
					<g>
						<g>
							<rect x="457.056" y="147.99" fill="#173B63" width="35.584" height="4.509"/>
						</g>
					</g>
					<g>
						<rect x="457.056" y="152.499" fill="#306ABF" width="35.584" height="4.503"/>
					</g>
				</g>
				<g>
					<g>
						<g>
							<rect x="457.056" y="166.582" fill="#173B63" width="35.584" height="4.507"/>
						</g>
					</g>
					<g>
						<rect x="457.056" y="171.088" fill="#306ABF" width="35.584" height="4.503"/>
					</g>
				</g>
				<g>
					<g>
						<g>
							<rect x="457.056" y="185.17" fill="#173B63" width="35.584" height="4.509"/>
						</g>
					</g>
					<g>
						<rect x="457.056" y="189.679" fill="#306ABF" width="35.584" height="4.502"/>
					</g>
				</g>
			</g>
			<g>
				<g>
					<g>
						<g>
							<rect x="357.802" y="55.042" fill="#173B63" width="35.583" height="4.509"/>
						</g>
					</g>
					<g>
						<rect x="357.802" y="59.551" fill="#306ABF" width="35.583" height="4.502"/>
					</g>
				</g>
				<g>
					<g>
						<g>
							<rect x="357.802" y="73.632" fill="#173B63" width="35.583" height="4.51"/>
						</g>
					</g>
					<g>
						<rect x="357.802" y="78.142" fill="#306ABF" width="35.583" height="4.501"/>
					</g>
				</g>
				<g>
					<g>
						<g>
							<rect x="357.802" y="92.223" fill="#173B63" width="35.583" height="4.507"/>
						</g>
					</g>
					<g>
						<rect x="357.802" y="96.729" fill="#306ABF" width="35.583" height="4.504"/>
					</g>
				</g>
				<g>
					<g>
						<g>
							<rect x="357.802" y="110.812" fill="#173B63" width="35.583" height="4.508"/>
						</g>
					</g>
					<g>
						<rect x="357.802" y="115.32" fill="#306ABF" width="35.583" height="4.503"/>
					</g>
				</g>
				<g>
					<g>
						<g>
							<rect x="357.802" y="129.402" fill="#173B63" width="35.583" height="4.507"/>
						</g>
					</g>
					<g>
						<rect x="357.802" y="133.909" fill="#306ABF" width="35.583" height="4.503"/>
					</g>
				</g>
				<g>
					<g>
						<g>
							<rect x="357.802" y="147.99" fill="#173B63" width="35.583" height="4.509"/>
						</g>
					</g>
					<g>
						<rect x="357.802" y="152.499" fill="#306ABF" width="35.583" height="4.503"/>
					</g>
				</g>
				<g>
					<g>
						<g>
							<rect x="357.802" y="166.582" fill="#173B63" width="35.583" height="4.507"/>
						</g>
					</g>
					<g>
						<rect x="357.802" y="171.088" fill="#306ABF" width="35.583" height="4.503"/>
					</g>
				</g>
				<g>
					<g>
						<g>
							<rect x="357.802" y="185.17" fill="#173B63" width="35.583" height="4.509"/>
						</g>
					</g>
					<g>
						<rect x="357.802" y="189.679" fill="#306ABF" width="35.583" height="4.502"/>
					</g>
				</g>
			</g>
			<g>
				<rect x="253.972" y="26.523" fill="#306ABF" width="489.711" height="24.487"/>
			</g>
			<g>
				<g>
					<rect x="253.972" y="26.523" fill="#1E4E7A" width="489.711" height="12.242"/>
				</g>
			</g>
			<g>
				<g>
					<rect x="347.877" y="38.765" fill="#1E4E7A" width="5.976" height="165.536"/>
				</g>
			</g>
			<g>
				<g>
					<rect x="446.683" y="38.765" fill="#1E4E7A" width="5.976" height="165.536"/>
				</g>
			</g>
			<g>
				<g>
					<rect x="397.281" y="38.765" fill="#1E4E7A" width="5.975" height="165.536"/>
				</g>
			</g>
			<g>
				<g>
					<rect x="594.892" y="38.765" fill="#1E4E7A" width="5.978" height="165.536"/>
				</g>
			</g>
			<g>
				<g>
					<rect x="496.086" y="38.765" fill="#1E4E7A" width="5.975" height="165.536"/>
				</g>
			</g>
			<g>
				<g>
					<rect x="545.49" y="38.765" fill="#1E4E7A" width="5.976" height="165.536"/>
				</g>
			</g>
			<g>
				<g>
					<rect x="644.298" y="38.765" fill="#1E4E7A" width="5.972" height="165.536"/>
				</g>
			</g>
			<g>
				<g>
					<g>
						<g>
							<g>
								<path fill="#E83E33" d="M449.667,249.417c-4.644,0-8.409-4.402-8.409-9.813c0-5.407,3.765-9.797,8.409-9.797
									c4.639,0,8.414,4.391,8.414,9.797C458.081,245.015,454.306,249.417,449.667,249.417z M449.667,230.919
									c-4.108,0-7.462,3.896-7.462,8.685c0,4.797,3.354,8.687,7.462,8.687c4.114,0,7.458-3.89,7.458-8.687
									C457.125,234.816,453.78,230.919,449.667,230.919z"/>
							</g>
						</g>
					</g>
					<g>
						<g>
							<g>
								<path fill="#E83E33" d="M451.835,239.604c0-1.394-0.968-2.524-2.168-2.524c-1.196,0-2.168,1.13-2.168,2.524
									c0,1.398,0.972,2.528,2.168,2.528C450.867,242.132,451.835,241.003,451.835,239.604z"/>
							</g>
						</g>
					</g>
					<g>
						<g>
							<g>
								<rect x="449.185" y="230.361" fill="#E83E33" width="0.96" height="9.244"/>
							</g>
						</g>
					</g>
					<g>
						<g>
							<g>
								<polygon fill="#E83E33" points="449.814,240.126 449.515,239.076 457.075,236.226 457.357,237.281 								"/>
							</g>
						</g>
					</g>
					<g>
						<g>
							<g>
								<polygon fill="#E83E33" points="453.942,247.411 449.275,239.932 450.055,239.277 454.718,246.769 								"/>
							</g>
						</g>
					</g>
					<g>
						<g>
							<g>
								<polygon fill="#E83E33" points="445.382,247.406 444.607,246.747 449.275,239.277 450.055,239.932 								"/>
							</g>
						</g>
					</g>
					<g>
						<g>
							<g>
								<polygon fill="#E83E33" points="449.515,240.126 441.974,237.266 442.273,236.205 449.814,239.076 								"/>
							</g>
						</g>
					</g>
					<g>
						<g>
							<g>
								<path fill="#E75825" d="M451.228,239.604c0-1.003-0.697-1.81-1.561-1.81c-0.863,0-1.563,0.807-1.563,1.81
									c0,1.007,0.701,1.821,1.563,1.821C450.53,241.425,451.228,240.612,451.228,239.604z"/>
							</g>
						</g>
					</g>
				</g>
				<g>
					<g>
						<g>
							<path fill="#BC1E2D" d="M449.667,231.474c3.85,0,6.981,3.648,6.981,8.13c0,4.486-3.131,8.129-6.981,8.129
								c-3.853,0-6.981-3.643-6.981-8.129C442.685,235.123,445.814,231.474,449.667,231.474L449.667,231.474z M449.667,230.361
								c-4.387,0-7.936,4.138-7.936,9.244c0,5.11,3.549,9.249,7.936,9.249c4.386,0,7.94-4.139,7.94-9.249
								C457.607,234.499,454.052,230.361,449.667,230.361L449.667,230.361z"/>
						</g>
					</g>
				</g>
			</g>
			<g>
				<g>
					<g>
						<g>
							<g>
								<path fill="#E83E33" d="M547.817,249.417c-4.644,0-8.409-4.402-8.409-9.813c0-5.407,3.766-9.797,8.409-9.797
									c4.639,0,8.415,4.391,8.415,9.797C556.232,245.015,552.456,249.417,547.817,249.417z M547.817,230.919
									c-4.108,0-7.462,3.896-7.462,8.685c0,4.797,3.354,8.687,7.462,8.687c4.114,0,7.458-3.89,7.458-8.687
									C555.275,234.816,551.932,230.919,547.817,230.919z"/>
							</g>
						</g>
					</g>
					<g>
						<g>
							<g>
								<path fill="#E83E33" d="M549.986,239.604c0-1.394-0.967-2.524-2.169-2.524c-1.196,0-2.167,1.13-2.167,2.524
									c0,1.398,0.971,2.528,2.167,2.528C549.02,242.132,549.986,241.003,549.986,239.604z"/>
							</g>
						</g>
					</g>
					<g>
						<g>
							<g>
								<rect x="547.336" y="230.361" fill="#E83E33" width="0.96" height="9.244"/>
							</g>
						</g>
					</g>
					<g>
						<g>
							<g>
								<polygon fill="#E83E33" points="547.965,240.126 547.666,239.076 555.225,236.226 555.508,237.281 								"/>
							</g>
						</g>
					</g>
					<g>
						<g>
							<g>
								<polygon fill="#E83E33" points="552.094,247.411 547.426,239.932 548.206,239.277 552.869,246.769 								"/>
							</g>
						</g>
					</g>
					<g>
						<g>
							<g>
								<polygon fill="#E83E33" points="543.532,247.406 542.758,246.747 547.426,239.277 548.206,239.932 								"/>
							</g>
						</g>
					</g>
					<g>
						<g>
							<g>
								<polygon fill="#E83E33" points="547.666,240.126 540.124,237.266 540.424,236.205 547.965,239.076 								"/>
							</g>
						</g>
					</g>
					<g>
						<g>
							<g>
								<path fill="#E75825" d="M549.379,239.604c0-1.003-0.697-1.81-1.562-1.81s-1.563,0.807-1.563,1.81
									c0,1.007,0.699,1.821,1.563,1.821S549.379,240.612,549.379,239.604z"/>
							</g>
						</g>
					</g>
				</g>
				<g>
					<g>
						<g>
							<path fill="#BC1E2D" d="M547.817,231.474c3.851,0,6.983,3.648,6.983,8.13c0,4.486-3.133,8.129-6.983,8.129
								c-3.853,0-6.981-3.643-6.981-8.129C540.836,235.123,543.965,231.474,547.817,231.474L547.817,231.474z M547.817,230.361
								c-4.387,0-7.935,4.138-7.935,9.244c0,5.11,3.548,9.249,7.935,9.249c4.386,0,7.94-4.139,7.94-9.249
								C555.758,234.499,552.203,230.361,547.817,230.361L547.817,230.361z"/>
						</g>
					</g>
				</g>
			</g>
			<g>
				<path fill="#37332E" d="M416.951,249.016h-28.22l-0.974-0.618l-10.529-19.001l0.975-2.086h49.278l0.973,2.086l-10.526,19.001
					L416.951,249.016z M389.364,246.313h26.957l9.03-16.299h-45.018L389.364,246.313z"/>
			</g>
			<g>
				<rect x="396.812" y="233.56" fill="#37332E" width="12.058" height="9.212"/>
			</g>
			<g>
				<rect x="394.684" y="233.56" fill="#37332E" width="6.03" height="6.052"/>
			</g>
			<g>
				<path fill="#37332E" d="M513.596,249.016h-28.221l-0.974-0.618l-10.528-19.001l0.974-2.086h49.278l0.974,2.086l-10.526,19.001
					L513.596,249.016z M486.007,246.313h26.957l9.03-16.299h-45.017L486.007,246.313z"/>
			</g>
			<g>
				<rect x="493.456" y="233.56" fill="#37332E" width="12.058" height="9.212"/>
			</g>
			<g>
				<rect x="491.328" y="233.56" fill="#37332E" width="6.029" height="6.052"/>
			</g>
			<g>
				<path fill="#37332E" d="M610.184,249.016h-28.221l-0.975-0.618l-10.529-19.001l0.976-2.086h49.277l0.975,2.086l-10.528,19.001
					L610.184,249.016z M582.595,246.313h26.956l9.03-16.299h-45.016L582.595,246.313z"/>
			</g>
			<g>
				<rect x="590.044" y="233.56" fill="#37332E" width="12.058" height="9.212"/>
			</g>
			<g>
				<rect x="587.916" y="233.56" fill="#37332E" width="6.03" height="6.052"/>
			</g>
			<g>
				<path fill="#CDC2B0" d="M625.711,179.432c0-0.752,0.318-1.235,0.963-1.235c0.649,0,0.968,0.483,0.968,1.235v2.529
					c0,0.752-0.318,1.243-0.968,1.243c-0.645,0-0.963-0.491-0.963-1.243V179.432z M626.174,181.998c0,0.441,0.163,0.708,0.5,0.708
					c0.344,0,0.501-0.267,0.501-0.708v-2.595c0-0.448-0.157-0.715-0.501-0.715c-0.337,0-0.5,0.267-0.5,0.715V181.998z"/>
				<path fill="#CDC2B0" d="M628.049,179.432c0-0.752,0.318-1.235,0.963-1.235c0.65,0,0.97,0.483,0.97,1.235v2.529
					c0,0.752-0.319,1.243-0.97,1.243c-0.645,0-0.963-0.491-0.963-1.243V179.432z M628.514,181.998c0,0.441,0.164,0.708,0.498,0.708
					c0.343,0,0.501-0.267,0.501-0.708v-2.595c0-0.448-0.158-0.715-0.501-0.715c-0.334,0-0.498,0.267-0.498,0.715V181.998z"/>
				<path fill="#CDC2B0" d="M632.134,182.164v0.99h-0.455v-0.99h-1.362v-0.496l1.306-3.421h0.512v3.421h0.337v0.496H632.134z
					 M630.75,181.668h0.929v-2.398L630.75,181.668z"/>
				<path fill="#CDC2B0" d="M633.297,180.245c0.132-0.267,0.345-0.406,0.628-0.406c0.542,0,0.782,0.461,0.782,1.164v0.958
					c0,0.752-0.308,1.243-0.954,1.243c-0.64,0-0.943-0.491-0.943-1.243v-0.327h0.438v0.364c0,0.441,0.158,0.708,0.497,0.708
					c0.337,0,0.493-0.267,0.493-0.708v-0.955c0-0.441-0.156-0.708-0.493-0.708c-0.26,0-0.434,0.169-0.476,0.525v0.114h-0.441
					l0.116-2.727h1.661v0.492h-1.241L633.297,180.245z"/>
				<path fill="#CDC2B0" d="M637.024,179.432v0.125c0,0.506-0.174,0.862-0.511,1.01c0.354,0.153,0.511,0.525,0.511,1.017v0.377
					c0,0.752-0.299,1.243-0.948,1.243c-0.646,0-0.946-0.491-0.946-1.243v-0.335h0.441v0.372c0,0.441,0.155,0.708,0.489,0.708
					c0.347,0,0.495-0.258,0.495-0.758v-0.377c0-0.486-0.174-0.716-0.53-0.731h-0.252v-0.491h0.277
					c0.313-0.013,0.505-0.243,0.505-0.67v-0.228c0-0.504-0.148-0.763-0.495-0.763c-0.334,0-0.489,0.275-0.489,0.715v0.254h-0.441
					v-0.225c0-0.752,0.3-1.235,0.946-1.235C636.726,178.197,637.024,178.68,637.024,179.432z"/>
				<path fill="#CDC2B0" d="M639.37,179.432v2.502c0,0.779-0.302,1.27-0.975,1.27c-0.643,0-0.952-0.486-0.952-1.235v-0.09h0.44
					v0.125c0,0.444,0.162,0.702,0.501,0.702c0.359,0,0.517-0.267,0.517-0.784v-1.103c-0.113,0.336-0.344,0.519-0.681,0.519
					c-0.542,0-0.782-0.447-0.782-1.155v-0.75c0-0.752,0.314-1.235,0.963-1.235C639.053,178.197,639.37,178.68,639.37,179.432z
					 M637.902,179.403v0.736c0,0.441,0.163,0.708,0.499,0.708c0.343,0,0.5-0.267,0.5-0.708v-0.736c0-0.448-0.157-0.708-0.5-0.708
					C638.065,178.695,637.902,178.955,637.902,179.403z"/>
			</g>
			<g>
				<rect x="745.944" y="195.59" fill="#37332E" width="13.027" height="8.711"/>
			</g>
			<g>
				<rect x="768.633" y="195.59" fill="#37332E" width="13.027" height="8.711"/>
			</g>
			<g>
				<rect x="218.962" y="157.002" fill="#494541" width="3.967" height="47.29"/>
			</g>
			<g>
				<rect x="228.445" y="156.385" fill="#494541" width="3.967" height="47.908"/>
			</g>
			<g>
				<rect x="219.042" y="156.385" fill="#494541" width="13.188" height="5.868"/>
			</g>
			<g>
				<polygon fill="#306ABF" points="257.491,19.65 740.654,19.65 739.484,17.359 258.664,17.359 				"/>
			</g>
			<g>
				<polygon fill="#306ABF" points="741.829,21.941 256.317,21.941 253.972,26.523 743.684,26.523 743.684,25.569 				"/>
			</g>
			<g>
				<polygon fill="#306ABF" points="258.664,17.359 739.484,17.359 738.255,14.961 259.891,14.961 				"/>
			</g>
			<g>
				<polygon fill="#21847D" points="737.084,12.668 735.968,10.491 262.18,10.491 261.065,12.668 				"/>
			</g>
			<g>
				<g>
					<polygon fill="#173B63" points="256.317,21.941 741.829,21.941 740.654,19.65 257.491,19.65 					"/>
				</g>
			</g>
			<g>
				<g>
					<polygon fill="#173B63" points="259.891,14.961 738.255,14.961 737.084,12.668 261.065,12.668 					"/>
				</g>
			</g>
			<g>
				<g>
					<polygon fill="#1E4E7A" points="272.82,209.339 265.849,204.906 344.545,36.643 351.514,41.08 					"/>
				</g>
			</g>
			<g>
				<g>
					<polygon fill="#1E4E7A" points="726.883,211.89 733.853,207.456 653.6,36.643 646.634,41.08 					"/>
				</g>
			</g>
			<g>
				<g>
					<g>
						<g>
							<g>
								<path fill="#E83E33" d="M267.622,214.107c-4.644,0-8.41-4.403-8.41-9.815c0-5.405,3.766-9.797,8.41-9.797
									c4.636,0,8.413,4.392,8.413,9.797C276.034,209.705,272.258,214.107,267.622,214.107z M267.622,195.61
									c-4.109,0-7.463,3.896-7.463,8.683c0,4.8,3.354,8.69,7.463,8.69c4.112,0,7.456-3.89,7.456-8.69
									C275.078,199.506,271.734,195.61,267.622,195.61z"/>
							</g>
						</g>
					</g>
					<g>
						<g>
							<g>
								<path fill="#E83E33" d="M269.789,204.292c0-1.393-0.966-2.523-2.167-2.523c-1.198,0-2.17,1.13-2.17,2.523
									c0,1.4,0.973,2.53,2.17,2.53C268.822,206.822,269.789,205.692,269.789,204.292z"/>
							</g>
						</g>
					</g>
					<g>
						<g>
							<g>
								<rect x="267.138" y="195.05" fill="#E83E33" width="0.96" height="9.243"/>
							</g>
						</g>
					</g>
					<g>
						<g>
							<g>
								<polygon fill="#E83E33" points="267.768,204.816 267.469,203.766 275.028,200.915 275.311,201.97 								"/>
							</g>
						</g>
					</g>
					<g>
						<g>
							<g>
								<polygon fill="#E83E33" points="271.896,212.102 267.229,204.621 268.008,203.966 272.671,211.457 								"/>
							</g>
						</g>
					</g>
					<g>
						<g>
							<g>
								<polygon fill="#E83E33" points="263.335,212.095 262.561,211.435 267.229,203.966 268.008,204.621 								"/>
							</g>
						</g>
					</g>
					<g>
						<g>
							<g>
								<polygon fill="#E83E33" points="267.469,204.816 259.926,201.954 260.227,200.894 267.768,203.766 								"/>
							</g>
						</g>
					</g>
					<g>
						<g>
							<g>
								<path fill="#E75825" d="M269.182,204.292c0-1.002-0.698-1.81-1.56-1.81c-0.865,0-1.565,0.808-1.565,1.81
									c0,1.009,0.7,1.822,1.565,1.822C268.483,206.115,269.182,205.301,269.182,204.292z"/>
							</g>
						</g>
					</g>
				</g>
				<g>
					<g>
						<g>
							<path fill="#BC1E2D" d="M267.622,196.164c3.849,0,6.981,3.647,6.981,8.128c0,4.488-3.132,8.131-6.981,8.131
								c-3.854,0-6.983-3.643-6.983-8.131C260.639,199.812,263.768,196.164,267.622,196.164L267.622,196.164z M267.622,195.05
								c-4.388,0-7.937,4.139-7.937,9.243c0,5.11,3.548,9.25,7.937,9.25c4.383,0,7.939-4.14,7.939-9.25
								C275.561,199.189,272.004,195.05,267.622,195.05L267.622,195.05z"/>
						</g>
					</g>
				</g>
			</g>
		</g>
	</g>
</g>
</svg>
