<?xml version="1.0" encoding="utf-8"?>
<!-- Generator: Adobe Illustrator 16.2.0, SVG Export Plug-In . SVG Version: 6.00 Build 0)  -->
<!DOCTYPE svg PUBLIC "-//W3C//DTD SVG 1.1//EN" "http://www.w3.org/Graphics/SVG/1.1/DTD/svg11.dtd">
<svg version="1.1" id="Layer_1" xmlns="http://www.w3.org/2000/svg" xmlns:xlink="http://www.w3.org/1999/xlink" x="0px" y="0px"
	 width="684.905px" height="320.006px" viewBox="0 0 684.905 320.006" enable-background="new 0 0 684.905 320.006"
	 xml:space="preserve">
<g>
	<linearGradient id="SVGID_1_" gradientUnits="userSpaceOnUse" x1="74.3164" y1="245.6143" x2="77.2148" y2="245.6143">
		<stop  offset="0" style="stop-color:#FFFFFF"/>
		<stop  offset="0.7043" style="stop-color:#333333"/>
		<stop  offset="1" style="stop-color:#FFFFFF"/>
	</linearGradient>
	<polygon fill="url(#SVGID_1_)" points="77.215,270.363 74.316,272.174 74.316,219.055 77.215,219.055 	"/>
	<linearGradient id="SVGID_2_" gradientUnits="userSpaceOnUse" x1="129.9727" y1="243.8394" x2="132.8721" y2="243.8394">
		<stop  offset="0" style="stop-color:#FFFFFF"/>
		<stop  offset="0.7043" style="stop-color:#333333"/>
		<stop  offset="1" style="stop-color:#FFFFFF"/>
	</linearGradient>
	<rect x="129.973" y="219.055" fill="url(#SVGID_2_)" width="2.899" height="49.569"/>
	<linearGradient id="SVGID_3_" gradientUnits="userSpaceOnUse" x1="182.1499" y1="243.8394" x2="185.0498" y2="243.8394">
		<stop  offset="0" style="stop-color:#FFFFFF"/>
		<stop  offset="0.7043" style="stop-color:#333333"/>
		<stop  offset="1" style="stop-color:#FFFFFF"/>
	</linearGradient>
	<rect x="182.15" y="219.055" fill="url(#SVGID_3_)" width="2.9" height="49.569"/>
	<linearGradient id="SVGID_4_" gradientUnits="userSpaceOnUse" x1="234.3276" y1="243.8394" x2="237.2275" y2="243.8394">
		<stop  offset="0" style="stop-color:#FFFFFF"/>
		<stop  offset="0.7043" style="stop-color:#333333"/>
		<stop  offset="1" style="stop-color:#FFFFFF"/>
	</linearGradient>
	<rect x="234.328" y="219.055" fill="url(#SVGID_4_)" width="2.9" height="49.569"/>
	<linearGradient id="SVGID_5_" gradientUnits="userSpaceOnUse" x1="288.2451" y1="243.8394" x2="291.1436" y2="243.8394">
		<stop  offset="0" style="stop-color:#FFFFFF"/>
		<stop  offset="0.7043" style="stop-color:#333333"/>
		<stop  offset="1" style="stop-color:#FFFFFF"/>
	</linearGradient>
	<rect x="288.245" y="219.055" fill="url(#SVGID_5_)" width="2.898" height="49.569"/>
	<linearGradient id="SVGID_6_" gradientUnits="userSpaceOnUse" x1="340.4229" y1="243.8394" x2="343.3223" y2="243.8394">
		<stop  offset="0" style="stop-color:#FFFFFF"/>
		<stop  offset="0.7043" style="stop-color:#333333"/>
		<stop  offset="1" style="stop-color:#FFFFFF"/>
	</linearGradient>
	<rect x="340.423" y="219.055" fill="url(#SVGID_6_)" width="2.899" height="49.569"/>
	<linearGradient id="SVGID_7_" gradientUnits="userSpaceOnUse" x1="392.6006" y1="243.8394" x2="395.499" y2="243.8394">
		<stop  offset="0" style="stop-color:#FFFFFF"/>
		<stop  offset="0.7043" style="stop-color:#333333"/>
		<stop  offset="1" style="stop-color:#FFFFFF"/>
	</linearGradient>
	<rect x="392.601" y="219.055" fill="url(#SVGID_7_)" width="2.898" height="49.569"/>
	<linearGradient id="SVGID_8_" gradientUnits="userSpaceOnUse" x1="444.7793" y1="243.8394" x2="447.6777" y2="243.8394">
		<stop  offset="0" style="stop-color:#FFFFFF"/>
		<stop  offset="0.7043" style="stop-color:#333333"/>
		<stop  offset="1" style="stop-color:#FFFFFF"/>
	</linearGradient>
	<rect x="444.779" y="219.055" fill="url(#SVGID_8_)" width="2.898" height="49.569"/>
	<linearGradient id="SVGID_9_" gradientUnits="userSpaceOnUse" x1="498.6953" y1="243.8394" x2="501.5957" y2="243.8394">
		<stop  offset="0" style="stop-color:#FFFFFF"/>
		<stop  offset="0.7043" style="stop-color:#333333"/>
		<stop  offset="1" style="stop-color:#FFFFFF"/>
	</linearGradient>
	<rect x="498.695" y="219.055" fill="url(#SVGID_9_)" width="2.9" height="49.569"/>
	<linearGradient id="SVGID_10_" gradientUnits="userSpaceOnUse" x1="552.6123" y1="243.8394" x2="555.5127" y2="243.8394">
		<stop  offset="0" style="stop-color:#FFFFFF"/>
		<stop  offset="0.7043" style="stop-color:#333333"/>
		<stop  offset="1" style="stop-color:#FFFFFF"/>
	</linearGradient>
	<rect x="552.612" y="219.055" fill="url(#SVGID_10_)" width="2.9" height="49.569"/>
	<linearGradient id="SVGID_11_" gradientUnits="userSpaceOnUse" x1="611.748" y1="245.6152" x2="614.6475" y2="245.6152">
		<stop  offset="0" style="stop-color:#FFFFFF"/>
		<stop  offset="0.7043" style="stop-color:#333333"/>
		<stop  offset="1" style="stop-color:#FFFFFF"/>
	</linearGradient>
	<polygon fill="url(#SVGID_11_)" points="614.647,272.176 611.748,268.624 611.748,219.055 614.647,219.055 	"/>
	
		<linearGradient id="SVGID_12_" gradientUnits="userSpaceOnUse" x1="137.5854" y1="1071.7661" x2="140.4858" y2="1071.7661" gradientTransform="matrix(0 1 -1 0 1418.4595 78.6704)">
		<stop  offset="0" style="stop-color:#FFFFFF"/>
		<stop  offset="0.1559" style="stop-color:#9E9E9E"/>
		<stop  offset="0.5" style="stop-color:#FFFFFF"/>
		<stop  offset="1" style="stop-color:#333333"/>
	</linearGradient>
	<rect x="54.933" y="216.256" fill="url(#SVGID_12_)" width="583.522" height="2.9"/>
</g>
<g>
	<g>
		<path fill="#404041" d="M250.403,213.223c0.501,0,0.83-0.045,0.869-0.052l-0.3-2.058l0.151,1.03l-0.148-1.03
			c-0.02,0.002-2.256,0.293-3.747-1.005c-0.957-0.834-1.44-2.19-1.44-4.03c0-2.036,1.116-4.79,2.299-7.7
			c1.344-3.304,2.728-6.718,2.834-9.842c0.125-3.771-1.716-6.459-5.472-7.993c-8.589-3.51-17.042,8.104-17.387,8.594v3.362
			c0.074-0.107,9.546-12.913,16.601-10.03c6.095,2.488,4.55,7.604,1.498,15.124c-1.263,3.108-2.455,6.043-2.455,8.485
			c0,2.479,0.73,4.367,2.173,5.613C247.401,213.008,249.309,213.223,250.403,213.223L250.403,213.223z"/>
		<path fill="#404041" d="M251.73,205.699c1.638,0,2.796-0.125,2.942-0.146l-0.272-2.063l0.136,1.029l-0.134-1.03
			c-0.104,0.012-10.383,1.143-13.082-3.655c-2.065-3.671-1.44-7.7-0.889-11.257c0.53-3.402,1.029-6.615-1.021-8.851
			c-1.68-1.831-6.37-2.787-11.37-2.787v2.116c4.251,0,8.488,0.711,9.698,2.033c1.391,1.516,0.981,4.143,0.51,7.189
			c-0.573,3.678-1.283,8.258,1.123,12.531C241.744,205.026,247.988,205.699,251.73,205.699L251.73,205.699z"/>
		
			<linearGradient id="SVGID_13_" gradientUnits="userSpaceOnUse" x1="981.0615" y1="165.3462" x2="987.9902" y2="165.3462" gradientTransform="matrix(-1 0 0 1 1217.7695 0)">
			<stop  offset="0" style="stop-color:#0F0F0F"/>
			<stop  offset="0.0434" style="stop-color:#272727"/>
			<stop  offset="0.1552" style="stop-color:#606060"/>
			<stop  offset="0.2587" style="stop-color:#8C8C8C"/>
			<stop  offset="0.3507" style="stop-color:#ACACAC"/>
			<stop  offset="0.4278" style="stop-color:#C0C0C0"/>
			<stop  offset="0.4806" style="stop-color:#C7C7C7"/>
			<stop  offset="0.5561" style="stop-color:#A3A3A3"/>
			<stop  offset="0.6162" style="stop-color:#919191"/>
			<stop  offset="0.7916" style="stop-color:#606060"/>
			<stop  offset="0.9251" style="stop-color:#414141"/>
			<stop  offset="1" style="stop-color:#363636"/>
		</linearGradient>
		<rect x="229.78" y="128.757" fill="url(#SVGID_13_)" width="6.928" height="73.179"/>
		<path fill="#231F20" d="M177.936,206.457v-0.762h56.046v5.717h4.096c0.897,0,1.621,0.727,1.621,1.621v6.766h0.955v-3.59h9.339
			v-8.959h11.056v-0.891h294.7l-13.443,19.204h-270.01v21.306h-22.303v2.286h-27.83v-3.429H184.16v1.602
			c0,1.252-1.015,2.268-2.267,2.268h-23.102c-1.252,0-2.27-1.016-2.27-2.268v-7.893h-10.99v-5.531h-6.482v-27.447H177.936z"/>
		<g>
			<rect x="397.056" y="236.389" fill="#231F20" width="83.939" height="4.32"/>
			<path fill="#231F20" d="M545.377,223.432c0-1.252,1.015-2.268,2.267-2.268h5.853v13.574h-5.853c-1.252,0-2.267-1.016-2.267-2.268
				v-0.094h-21.131v-5.074h21.131V223.432z"/>
		</g>
		<rect x="226.396" y="193.635" fill="#231F20" width="16.795" height="23.329"/>
		<rect x="323.463" y="224.123" fill="#231F20" width="208.402" height="10.563"/>
		
			<linearGradient id="SVGID_14_" gradientUnits="userSpaceOnUse" x1="989.6982" y1="161.7246" x2="1073.7184" y2="161.7246" gradientTransform="matrix(-1 0 0 1 1217.7695 0)">
			<stop  offset="0" style="stop-color:#929497"/>
			<stop  offset="0.0436" style="stop-color:#FFFFFF"/>
			<stop  offset="0.0446" style="stop-color:#FBFBFB"/>
			<stop  offset="0.0544" style="stop-color:#D6D7D8"/>
			<stop  offset="0.0636" style="stop-color:#BCBDBF"/>
			<stop  offset="0.0718" style="stop-color:#ACADB0"/>
			<stop  offset="0.0781" style="stop-color:#A6A8AB"/>
			<stop  offset="0.4811" style="stop-color:#B2B4B7"/>
			<stop  offset="0.7012" style="stop-color:#BBBDBF"/>
			<stop  offset="0.8398" style="stop-color:#C6C8CA"/>
			<stop  offset="0.8406" style="stop-color:#D6D7D9"/>
			<stop  offset="1" style="stop-color:#E6E7E8"/>
		</linearGradient>
		<path fill="url(#SVGID_14_)" d="M137.332,160.324l7.903-31.29c1.821-7.215,6.659-13.506,14.869-13.506h50.622
			c8.212,0,14.867,6.046,14.867,13.506l2.479,31.862v38.316h-35.649l-8.672,8.672h-41.27c0,0-6.481,0.858-6.481-5.813
			s0-32.597,0-32.597S135.616,166.998,137.332,160.324z"/>
		
			<radialGradient id="SVGID_15_" cx="938.0039" cy="343.8931" r="394.4447" gradientTransform="matrix(-1 0 0 1 1217.7695 0)" gradientUnits="userSpaceOnUse">
			<stop  offset="0.0028" style="stop-color:#A5BFC6"/>
			<stop  offset="0.0755" style="stop-color:#CDE3E7"/>
			<stop  offset="0.5512" style="stop-color:#788D94"/>
			<stop  offset="0.5532" style="stop-color:#7E959B"/>
			<stop  offset="0.5547" style="stop-color:#859FA4"/>
			<stop  offset="0.6896" style="stop-color:#FFFFFF"/>
		</radialGradient>
		<path fill="url(#SVGID_15_)" d="M139.942,164.426c0,2.239,1.816,4.055,4.055,4.055c0,0,17.156,0,25.163,0
			c2.193,0,8.864-6.235,11.058-6.195c7.276,0.135,29.113,0,29.113,0c2.239,0,4.053-1.813,4.053-4.053v-28.969
			c0-2.238-1.814-4.057-4.053-4.057l-57.276,0.902c-2.238,0-4.054,1.816-4.054,4.057L139.942,164.426z"/>
		<g>
			<path fill="#58595B" d="M346.394,242.955c0,15.271,12.383,27.646,27.649,27.646c15.272,0,27.649-12.376,27.649-27.646
				c0-15.27-12.377-27.646-27.649-27.646C358.776,215.309,346.394,227.686,346.394,242.955z"/>
			<path fill="#323031" d="M345.698,244.275v-2.75l1.597-0.436c0.011-0.16,0.024-0.321,0.039-0.48l-1.493-0.782l0.431-2.718
				l1.641-0.18c0.034-0.159,0.074-0.315,0.112-0.476l-1.346-1l0.85-2.614l1.649,0.075c0.058-0.149,0.12-0.301,0.183-0.452
				l-1.172-1.199l1.247-2.449l1.618,0.334c0.084-0.137,0.17-0.274,0.255-0.414l-0.974-1.371l1.617-2.223l1.551,0.582
				c0.103-0.121,0.206-0.248,0.311-0.367l-0.746-1.508l1.944-1.946l1.439,0.818c0.12-0.104,0.24-0.209,0.364-0.311l-0.5-1.608
				l2.223-1.616l1.291,1.032c0.139-0.084,0.274-0.172,0.413-0.254l-0.244-1.662l2.451-1.25l1.109,1.219
				c0.149-0.063,0.299-0.124,0.452-0.186l0.016-1.678l2.616-0.85l0.905,1.379c0.158-0.038,0.316-0.078,0.474-0.114l0.284-1.653
				l2.714-0.433l0.683,1.51c0.158-0.013,0.321-0.026,0.482-0.038l0.541-1.598h2.746l0.438,1.598
				c0.162,0.012,0.323,0.025,0.482,0.038l0.783-1.491l2.714,0.431l0.183,1.639c0.159,0.037,0.317,0.074,0.474,0.114l1.001-1.348
				l2.615,0.85l-0.077,1.646c0.152,0.063,0.302,0.125,0.452,0.188l1.198-1.174l2.45,1.249l-0.332,1.618
				c0.137,0.082,0.274,0.166,0.409,0.255l1.375-0.974l2.222,1.615l-0.584,1.55c0.124,0.104,0.248,0.209,0.368,0.313l1.508-0.746
				l1.945,1.943l-0.819,1.436c0.106,0.124,0.211,0.246,0.313,0.371l1.608-0.503l1.616,2.225l-1.034,1.29
				c0.086,0.137,0.171,0.273,0.256,0.412l1.665-0.244l1.245,2.449l-1.217,1.111c0.063,0.15,0.124,0.299,0.187,0.453l1.677,0.018
				l0.851,2.612l-1.379,0.909c0.039,0.156,0.079,0.314,0.113,0.473l1.655,0.281l0.429,2.717l-1.511,0.682
				c0.017,0.158,0.03,0.32,0.04,0.479l1.597,0.54v2.748l-1.597,0.439c-0.012,0.16-0.023,0.321-0.04,0.482l1.493,0.779l-0.429,2.719
				l-1.639,0.18c-0.035,0.156-0.076,0.316-0.116,0.475l1.347,1l-0.846,2.615l-1.65-0.076c-0.061,0.149-0.123,0.305-0.186,0.451
				l1.17,1.199l-1.245,2.448l-1.618-0.333c-0.083,0.139-0.167,0.275-0.253,0.414l0.97,1.372l-1.615,2.224l-1.549-0.584
				c-0.105,0.122-0.207,0.244-0.314,0.366l0.75,1.513l-1.943,1.941l-1.44-0.819c-0.121,0.106-0.245,0.209-0.367,0.313l0.503,1.608
				l-2.226,1.615l-1.29-1.033c-0.139,0.089-0.274,0.172-0.414,0.256l0.245,1.661l-2.449,1.25l-1.11-1.218
				c-0.148,0.063-0.302,0.125-0.452,0.185l-0.017,1.679l-2.616,0.85l-0.907-1.378c-0.157,0.039-0.315,0.078-0.474,0.113
				l-0.282,1.656l-2.716,0.43l-0.681-1.508c-0.16,0.014-0.322,0.022-0.48,0.037l-0.54,1.595h-2.748l-0.437-1.595
				c-0.163-0.015-0.323-0.025-0.484-0.04l-0.781,1.492l-2.714-0.43l-0.183-1.639c-0.158-0.036-0.317-0.074-0.472-0.116l-1.004,1.349
				l-2.615-0.849l0.077-1.649c-0.15-0.06-0.303-0.121-0.452-0.186l-1.199,1.172l-2.447-1.246l0.331-1.619
				c-0.137-0.081-0.275-0.168-0.411-0.255l-1.372,0.976l-2.223-1.619l0.584-1.549c-0.123-0.102-0.247-0.207-0.371-0.313
				l-1.508,0.748l-1.944-1.943l0.819-1.438c-0.105-0.121-0.208-0.245-0.313-0.369l-1.608,0.503l-1.614-2.226l1.031-1.288
				c-0.085-0.139-0.17-0.275-0.252-0.413L349.388,257l-1.246-2.449l1.218-1.109c-0.065-0.152-0.126-0.303-0.187-0.452l-1.678-0.019
				l-0.851-2.616l1.379-0.905c-0.04-0.156-0.077-0.316-0.113-0.473l-1.656-0.283l-0.431-2.714l1.511-0.683
				c-0.015-0.158-0.028-0.321-0.039-0.482L345.698,244.275z"/>
			
				<radialGradient id="SVGID_16_" cx="843.7266" cy="242.9541" r="25.2666" gradientTransform="matrix(-1 0 0 1 1217.7695 0)" gradientUnits="userSpaceOnUse">
				<stop  offset="0" style="stop-color:#FFFFFF"/>
				<stop  offset="0.6779" style="stop-color:#0D0D0D"/>
				<stop  offset="0.6979" style="stop-color:#111111"/>
				<stop  offset="0.7954" style="stop-color:#242424"/>
				<stop  offset="0.8852" style="stop-color:#181818"/>
				<stop  offset="0.9486" style="stop-color:#0D0D0D"/>
			</radialGradient>
			<circle fill="url(#SVGID_16_)" cx="374.043" cy="242.955" r="25.267"/>
			
				<linearGradient id="SVGID_17_" gradientUnits="userSpaceOnUse" x1="827.9863" y1="242.9546" x2="859.4648" y2="242.9546" gradientTransform="matrix(-1 0 0 1 1217.7695 0)">
				<stop  offset="0.001" style="stop-color:#696969"/>
				<stop  offset="0.5299" style="stop-color:#212121"/>
				<stop  offset="0.6286" style="stop-color:#2D2D2D"/>
				<stop  offset="0.8057" style="stop-color:#4C4C4C"/>
				<stop  offset="1" style="stop-color:#757575"/>
			</linearGradient>
			<circle fill="url(#SVGID_17_)" cx="374.044" cy="242.955" r="15.739"/>
			
				<linearGradient id="SVGID_18_" gradientUnits="userSpaceOnUse" x1="830.2637" y1="242.9551" x2="857.1865" y2="242.9551" gradientTransform="matrix(-1 0 0 1 1217.7695 0)">
				<stop  offset="0.001" style="stop-color:#242424"/>
				<stop  offset="0.1296" style="stop-color:#161616"/>
				<stop  offset="0.2901" style="stop-color:#0D0D0D"/>
				<stop  offset="0.5299" style="stop-color:#0A0A0A"/>
				<stop  offset="0.7079" style="stop-color:#0D0D0D"/>
				<stop  offset="0.8507" style="stop-color:#171717"/>
				<stop  offset="0.9811" style="stop-color:#282828"/>
				<stop  offset="1" style="stop-color:#2B2B2B"/>
			</linearGradient>
			<circle fill="url(#SVGID_18_)" cx="374.044" cy="242.955" r="13.461"/>
			<circle fill="#404041" cx="374.043" cy="242.955" r="11.701"/>
			<g>
				<path fill="#404041" d="M367.832,242.955c0,3.432,2.78,6.213,6.211,6.213c3.434,0,6.213-2.781,6.213-6.213
					c0-3.43-2.779-6.215-6.213-6.215C370.612,236.74,367.832,239.525,367.832,242.955z"/>
				<path fill="#808184" d="M374.043,249.547c-3.637,0-6.592-2.957-6.592-6.592c0-3.636,2.955-6.594,6.592-6.594
					s6.594,2.958,6.594,6.594C380.637,246.59,377.68,249.547,374.043,249.547L374.043,249.547z M374.043,237.121
					c-3.217,0-5.832,2.617-5.832,5.834c0,3.215,2.615,5.832,5.832,5.832s5.833-2.617,5.833-5.832
					C379.876,239.738,377.26,237.121,374.043,237.121L374.043,237.121z"/>
			</g>
			<path fill="#231F20" d="M372.053,233.266c0,0.715,0.857,1.807,1.915,1.807c1.057,0,1.915-1.092,1.915-1.807
				c0-0.717-0.858-0.908-1.915-0.908C372.91,232.357,372.053,232.549,372.053,233.266z"/>
			<path fill="#231F20" d="M375.777,252.441c0-0.718-0.854-1.81-1.912-1.81s-1.915,1.092-1.915,1.81
				c0,0.714,0.857,0.906,1.915,0.906S375.777,253.155,375.777,252.441z"/>
			<path fill="#231F20" d="M379.379,234.756c-0.507,0.508-0.674,1.885,0.075,2.631c0.746,0.748,2.124,0.583,2.632,0.074
				c0.505-0.504,0.035-1.246-0.71-1.993C380.626,234.718,379.885,234.25,379.379,234.756z"/>
			<path fill="#231F20" d="M368.456,250.949c0.506-0.506,0.673-1.885-0.076-2.633c-0.748-0.747-2.128-0.58-2.631-0.074
				c-0.508,0.506-0.038,1.249,0.711,1.997C367.206,250.984,367.948,251.457,368.456,250.949z"/>
			<path fill="#231F20" d="M383.506,240.989c-0.72,0-1.81,0.856-1.81,1.913c0,1.059,1.09,1.917,1.81,1.917
				c0.715,0,0.905-0.858,0.905-1.917C384.411,241.846,384.221,240.989,383.506,240.989z"/>
			<path fill="#231F20" d="M364.329,244.715c0.715,0,1.807-0.857,1.807-1.914s-1.092-1.913-1.807-1.913
				c-0.716,0-0.908,0.856-0.908,1.913S363.613,244.715,364.329,244.715z"/>
			<path fill="#231F20" d="M382.013,248.314c-0.508-0.508-1.886-0.672-2.631,0.076c-0.747,0.744-0.583,2.125-0.077,2.63
				c0.508,0.507,1.248,0.035,1.996-0.71C382.05,249.563,382.519,248.822,382.013,248.314z"/>
			<path fill="#231F20" d="M365.82,237.39c0.509,0.507,1.886,0.671,2.632-0.073c0.748-0.748,0.58-2.125,0.074-2.633
				c-0.505-0.507-1.247-0.037-1.994,0.713C365.784,236.142,365.313,236.885,365.82,237.39z"/>
		</g>
		<g>
			<circle fill="#58595B" cx="435.017" cy="242.955" r="27.647"/>
			<path fill="#323031" d="M406.673,244.275v-2.75l1.596-0.436c0.011-0.16,0.023-0.321,0.038-0.48l-1.493-0.782l0.432-2.718
				l1.638-0.18c0.036-0.159,0.075-0.315,0.115-0.476l-1.348-1l0.851-2.614l1.646,0.075c0.064-0.149,0.124-0.301,0.188-0.452
				l-1.173-1.199l1.25-2.449l1.615,0.334c0.083-0.137,0.168-0.274,0.256-0.414l-0.973-1.371l1.612-2.223l1.55,0.582
				c0.105-0.121,0.208-0.248,0.314-0.367l-0.746-1.508l1.941-1.946l1.438,0.818c0.12-0.104,0.245-0.209,0.368-0.311l-0.5-1.608
				l2.221-1.616l1.293,1.032c0.134-0.084,0.275-0.172,0.413-0.254l-0.244-1.662l2.448-1.25l1.109,1.219
				c0.149-0.063,0.304-0.124,0.452-0.186l0.021-1.678l2.613-0.85l0.907,1.379c0.155-0.038,0.314-0.078,0.477-0.114l0.277-1.653
				l2.717-0.433l0.682,1.51c0.162-0.013,0.321-0.026,0.483-0.038l0.536-1.598h2.75l0.44,1.598c0.159,0.012,0.318,0.025,0.48,0.038
				l0.78-1.491l2.714,0.431l0.183,1.639c0.16,0.037,0.316,0.074,0.475,0.114l1.004-1.348l2.613,0.85l-0.077,1.646
				c0.151,0.063,0.303,0.125,0.451,0.188l1.2-1.174l2.45,1.249l-0.336,1.618c0.14,0.082,0.275,0.166,0.415,0.255l1.37-0.974
				l2.224,1.615l-0.582,1.55c0.124,0.104,0.244,0.209,0.365,0.313l1.51-0.746l1.945,1.943l-0.82,1.436
				c0.107,0.124,0.211,0.246,0.314,0.371l1.607-0.503l1.616,2.225l-1.034,1.29c0.089,0.137,0.174,0.273,0.258,0.412l1.661-0.244
				l1.248,2.449l-1.217,1.111c0.062,0.15,0.122,0.299,0.184,0.453l1.678,0.018l0.851,2.612l-1.38,0.909
				c0.04,0.156,0.079,0.314,0.115,0.473l1.653,0.281l0.432,2.717l-1.507,0.682c0.012,0.158,0.022,0.32,0.035,0.479l1.597,0.54v2.748
				l-1.597,0.439c-0.013,0.16-0.023,0.321-0.036,0.482l1.491,0.779l-0.433,2.719l-1.636,0.18c-0.039,0.156-0.077,0.316-0.117,0.475
				l1.35,1l-0.853,2.615l-1.646-0.076c-0.061,0.149-0.123,0.305-0.188,0.451l1.174,1.199l-1.25,2.448l-1.617-0.333
				c-0.082,0.139-0.166,0.275-0.253,0.414l0.974,1.372l-1.615,2.224l-1.551-0.584c-0.104,0.122-0.207,0.244-0.313,0.366l0.748,1.513
				l-1.944,1.941l-1.437-0.819c-0.123,0.106-0.245,0.209-0.37,0.313l0.503,1.608l-2.223,1.615l-1.293-1.033
				c-0.136,0.089-0.274,0.172-0.412,0.256l0.244,1.661l-2.448,1.25l-1.111-1.218c-0.15,0.063-0.301,0.125-0.45,0.185l-0.021,1.679
				l-2.614,0.85l-0.907-1.378c-0.157,0.039-0.313,0.078-0.474,0.113l-0.279,1.656l-2.717,0.43l-0.684-1.508
				c-0.161,0.014-0.318,0.022-0.48,0.037l-0.537,1.595h-2.751l-0.437-1.595c-0.161-0.015-0.32-0.025-0.483-0.04l-0.779,1.492
				l-2.715-0.43l-0.184-1.639c-0.157-0.036-0.314-0.074-0.474-0.116l-1.003,1.349l-2.612-0.849l0.076-1.649
				c-0.153-0.06-0.302-0.121-0.45-0.186l-1.201,1.172l-2.45-1.246l0.333-1.619c-0.137-0.081-0.273-0.168-0.41-0.255l-1.373,0.976
				l-2.224-1.619l0.583-1.549c-0.122-0.102-0.246-0.207-0.367-0.313l-1.509,0.748l-1.944-1.943l0.819-1.438
				c-0.106-0.121-0.208-0.245-0.313-0.369l-1.608,0.503l-1.617-2.226l1.034-1.288c-0.086-0.139-0.172-0.275-0.256-0.413l-1.66,0.243
				l-1.25-2.449l1.218-1.109c-0.063-0.152-0.123-0.303-0.187-0.452l-1.676-0.019l-0.852-2.616l1.378-0.905
				c-0.037-0.156-0.076-0.316-0.114-0.473l-1.654-0.283l-0.428-2.714l1.506-0.683c-0.013-0.158-0.025-0.321-0.036-0.482
				L406.673,244.275z"/>
			
				<radialGradient id="SVGID_19_" cx="782.752" cy="242.9541" r="25.2666" gradientTransform="matrix(-1 0 0 1 1217.7695 0)" gradientUnits="userSpaceOnUse">
				<stop  offset="0" style="stop-color:#FFFFFF"/>
				<stop  offset="0.6779" style="stop-color:#0D0D0D"/>
				<stop  offset="0.6979" style="stop-color:#111111"/>
				<stop  offset="0.7954" style="stop-color:#242424"/>
				<stop  offset="0.8852" style="stop-color:#181818"/>
				<stop  offset="0.9486" style="stop-color:#0D0D0D"/>
			</radialGradient>
			<circle fill="url(#SVGID_19_)" cx="435.018" cy="242.955" r="25.267"/>
			
				<linearGradient id="SVGID_20_" gradientUnits="userSpaceOnUse" x1="767.0166" y1="242.9546" x2="798.4941" y2="242.9546" gradientTransform="matrix(-1 0 0 1 1217.7695 0)">
				<stop  offset="0.001" style="stop-color:#696969"/>
				<stop  offset="0.5299" style="stop-color:#212121"/>
				<stop  offset="0.6286" style="stop-color:#2D2D2D"/>
				<stop  offset="0.8057" style="stop-color:#4C4C4C"/>
				<stop  offset="1" style="stop-color:#757575"/>
			</linearGradient>
			<circle fill="url(#SVGID_20_)" cx="435.014" cy="242.955" r="15.739"/>
			
				<linearGradient id="SVGID_21_" gradientUnits="userSpaceOnUse" x1="769.293" y1="242.9551" x2="796.2158" y2="242.9551" gradientTransform="matrix(-1 0 0 1 1217.7695 0)">
				<stop  offset="0.001" style="stop-color:#242424"/>
				<stop  offset="0.1296" style="stop-color:#161616"/>
				<stop  offset="0.2901" style="stop-color:#0D0D0D"/>
				<stop  offset="0.5299" style="stop-color:#0A0A0A"/>
				<stop  offset="0.7079" style="stop-color:#0D0D0D"/>
				<stop  offset="0.8507" style="stop-color:#171717"/>
				<stop  offset="0.9811" style="stop-color:#282828"/>
				<stop  offset="1" style="stop-color:#2B2B2B"/>
			</linearGradient>
			<circle fill="url(#SVGID_21_)" cx="435.015" cy="242.955" r="13.461"/>
			<circle fill="#404041" cx="435.016" cy="242.955" r="11.702"/>
			<g>
				<circle fill="#404041" cx="435.017" cy="242.955" r="6.213"/>
				<path fill="#808184" d="M435.017,249.547c-3.635,0-6.595-2.957-6.595-6.592c0-3.636,2.96-6.594,6.595-6.594
					s6.592,2.958,6.592,6.594C441.608,246.59,438.651,249.547,435.017,249.547L435.017,249.547z M435.017,237.121
					c-3.215,0-5.83,2.617-5.83,5.834c0,3.215,2.615,5.832,5.83,5.832c3.217,0,5.833-2.617,5.833-5.832
					C440.85,239.738,438.233,237.121,435.017,237.121L435.017,237.121z"/>
			</g>
			<path fill="#231F20" d="M433.024,233.266c0,0.715,0.859,1.807,1.915,1.807c1.058,0,1.914-1.092,1.914-1.807
				c0-0.717-0.856-0.908-1.914-0.908C433.884,232.357,433.024,232.549,433.024,233.266z"/>
			<path fill="#231F20" d="M436.751,252.441c0-0.718-0.855-1.81-1.912-1.81c-1.06,0-1.914,1.092-1.914,1.81
				c0,0.714,0.854,0.906,1.914,0.906C435.896,253.348,436.751,253.155,436.751,252.441z"/>
			<path fill="#231F20" d="M440.351,234.756c-0.507,0.508-0.673,1.885,0.074,2.631c0.75,0.748,2.127,0.583,2.633,0.074
				c0.508-0.504,0.038-1.246-0.712-1.993C441.601,234.718,440.857,234.25,440.351,234.756z"/>
			<path fill="#231F20" d="M429.425,250.949c0.507-0.506,0.677-1.885-0.071-2.633c-0.75-0.747-2.127-0.58-2.633-0.074
				c-0.509,0.506-0.036,1.249,0.71,1.997C428.18,250.984,428.92,251.457,429.425,250.949z"/>
			<path fill="#231F20" d="M444.477,240.989c-0.715,0-1.809,0.856-1.809,1.913c0,1.059,1.094,1.917,1.809,1.917
				c0.717,0,0.908-0.858,0.908-1.917C445.385,241.846,445.193,240.989,444.477,240.989z"/>
			<path fill="#231F20" d="M425.302,244.715c0.716,0,1.81-0.857,1.81-1.914s-1.094-1.913-1.81-1.913
				c-0.717,0-0.908,0.856-0.908,1.913S424.585,244.715,425.302,244.715z"/>
			<path fill="#231F20" d="M442.985,248.314c-0.507-0.508-1.886-0.672-2.632,0.076c-0.748,0.744-0.581,2.125-0.074,2.63
				c0.507,0.507,1.249,0.035,1.996-0.71C443.022,249.563,443.493,248.822,442.985,248.314z"/>
			<path fill="#231F20" d="M426.794,237.39c0.507,0.507,1.882,0.671,2.631-0.073c0.748-0.748,0.581-2.125,0.074-2.633
				c-0.506-0.507-1.248-0.037-1.993,0.713C426.757,236.142,426.288,236.885,426.794,237.39z"/>
		</g>
		<g>
			<path fill="#58595B" d="M468.585,242.955c0,15.271,12.379,27.646,27.646,27.646c15.271,0,27.652-12.376,27.652-27.646
				c0-15.27-12.382-27.646-27.652-27.646C480.964,215.309,468.585,227.686,468.585,242.955z"/>
			<path fill="#323031" d="M467.891,244.275v-2.75l1.597-0.436c0.01-0.16,0.021-0.321,0.037-0.48l-1.491-0.782l0.428-2.718
				l1.639-0.18c0.035-0.159,0.077-0.315,0.116-0.476l-1.347-1l0.846-2.614l1.65,0.075c0.061-0.149,0.121-0.301,0.188-0.452
				l-1.174-1.199l1.247-2.449l1.618,0.334c0.085-0.137,0.17-0.274,0.254-0.414l-0.973-1.371l1.617-2.223l1.549,0.582
				c0.104-0.121,0.207-0.248,0.314-0.367l-0.75-1.508l1.943-1.946l1.439,0.818c0.122-0.104,0.242-0.209,0.367-0.311l-0.5-1.608
				l2.222-1.616l1.29,1.032c0.141-0.084,0.275-0.172,0.415-0.254l-0.244-1.662l2.448-1.25l1.111,1.219
				c0.149-0.063,0.3-0.124,0.452-0.186l0.019-1.678l2.614-0.85l0.906,1.379c0.158-0.038,0.316-0.078,0.475-0.114l0.281-1.653
				l2.715-0.433l0.681,1.51c0.162-0.013,0.323-0.026,0.484-0.038l0.537-1.598h2.751l0.438,1.598
				c0.159,0.012,0.319,0.025,0.479,0.038l0.785-1.491l2.712,0.431l0.183,1.639c0.159,0.037,0.317,0.074,0.476,0.114l1.002-1.348
				l2.613,0.85l-0.076,1.646c0.151,0.063,0.303,0.125,0.451,0.188l1.198-1.174l2.453,1.249l-0.336,1.618
				c0.139,0.082,0.275,0.166,0.413,0.255l1.371-0.974l2.226,1.615l-0.585,1.55c0.122,0.104,0.246,0.209,0.369,0.313l1.51-0.746
				l1.94,1.943l-0.818,1.436c0.107,0.124,0.209,0.246,0.314,0.371l1.606-0.503l1.617,2.225l-1.034,1.29
				c0.085,0.137,0.173,0.273,0.255,0.412l1.664-0.244l1.248,2.449l-1.218,1.111c0.063,0.15,0.122,0.299,0.185,0.453l1.678,0.018
				l0.85,2.612l-1.378,0.909c0.039,0.156,0.078,0.314,0.112,0.473l1.656,0.281l0.428,2.717l-1.506,0.682
				c0.014,0.158,0.025,0.32,0.038,0.479l1.595,0.54v2.748l-1.595,0.439c-0.015,0.16-0.024,0.321-0.04,0.482l1.493,0.779
				l-0.433,2.719l-1.637,0.18c-0.037,0.156-0.076,0.316-0.116,0.475l1.35,1l-0.852,2.615l-1.646-0.076
				c-0.061,0.149-0.123,0.305-0.188,0.451l1.175,1.199l-1.247,2.448l-1.621-0.333c-0.078,0.139-0.167,0.275-0.252,0.414l0.972,1.372
				l-1.615,2.224l-1.55-0.584c-0.104,0.122-0.207,0.244-0.314,0.366l0.752,1.513l-1.945,1.941l-1.438-0.819
				c-0.124,0.106-0.245,0.209-0.369,0.313l0.502,1.608l-2.225,1.615l-1.291-1.033c-0.137,0.089-0.271,0.172-0.411,0.256l0.242,1.661
				l-2.446,1.25l-1.114-1.218c-0.147,0.063-0.299,0.125-0.447,0.185l-0.021,1.679l-2.614,0.85l-0.91-1.378
				c-0.155,0.039-0.313,0.078-0.471,0.113l-0.28,1.656l-2.716,0.43l-0.682-1.508c-0.161,0.014-0.321,0.022-0.482,0.037l-0.54,1.595
				h-2.748l-0.438-1.595c-0.162-0.015-0.323-0.025-0.48-0.04l-0.784,1.492l-2.713-0.43l-0.184-1.639
				c-0.156-0.036-0.316-0.074-0.474-0.116l-1.003,1.349l-2.614-0.849l0.078-1.649c-0.152-0.06-0.303-0.121-0.45-0.186l-1.202,1.172
				l-2.448-1.246l0.333-1.619c-0.138-0.081-0.275-0.168-0.411-0.255l-1.373,0.976l-2.224-1.619l0.586-1.549
				c-0.125-0.102-0.248-0.207-0.37-0.313l-1.51,0.748l-1.941-1.943L476,260.55c-0.106-0.121-0.21-0.245-0.313-0.369l-1.607,0.503
				l-1.617-2.226l1.033-1.288c-0.085-0.139-0.17-0.275-0.253-0.413L471.579,257l-1.248-2.449l1.218-1.109
				c-0.063-0.152-0.124-0.303-0.186-0.452l-1.679-0.019l-0.848-2.616l1.378-0.905c-0.04-0.156-0.082-0.316-0.116-0.473l-1.655-0.283
				l-0.429-2.714l1.51-0.683c-0.018-0.158-0.027-0.321-0.039-0.482L467.891,244.275z"/>
			
				<radialGradient id="SVGID_22_" cx="721.5371" cy="242.9541" r="25.2656" gradientTransform="matrix(-1 0 0 1 1217.7695 0)" gradientUnits="userSpaceOnUse">
				<stop  offset="0" style="stop-color:#FFFFFF"/>
				<stop  offset="0.6779" style="stop-color:#0D0D0D"/>
				<stop  offset="0.6979" style="stop-color:#111111"/>
				<stop  offset="0.7954" style="stop-color:#242424"/>
				<stop  offset="0.8852" style="stop-color:#181818"/>
				<stop  offset="0.9486" style="stop-color:#0D0D0D"/>
			</radialGradient>
			<circle fill="url(#SVGID_22_)" cx="496.233" cy="242.955" r="25.265"/>
			
				<linearGradient id="SVGID_23_" gradientUnits="userSpaceOnUse" x1="705.7959" y1="242.9546" x2="737.2764" y2="242.9546" gradientTransform="matrix(-1 0 0 1 1217.7695 0)">
				<stop  offset="0.001" style="stop-color:#696969"/>
				<stop  offset="0.5299" style="stop-color:#212121"/>
				<stop  offset="0.6286" style="stop-color:#2D2D2D"/>
				<stop  offset="0.8057" style="stop-color:#4C4C4C"/>
				<stop  offset="1" style="stop-color:#757575"/>
			</linearGradient>
			<path fill="url(#SVGID_23_)" d="M480.493,242.955c0,8.693,7.048,15.739,15.738,15.739c8.696,0,15.742-7.046,15.742-15.739
				c0-8.691-7.046-15.74-15.742-15.74C487.541,227.215,480.493,234.264,480.493,242.955z"/>
			
				<linearGradient id="SVGID_24_" gradientUnits="userSpaceOnUse" x1="708.0742" y1="242.9551" x2="734.9971" y2="242.9551" gradientTransform="matrix(-1 0 0 1 1217.7695 0)">
				<stop  offset="0.001" style="stop-color:#242424"/>
				<stop  offset="0.1296" style="stop-color:#161616"/>
				<stop  offset="0.2901" style="stop-color:#0D0D0D"/>
				<stop  offset="0.5299" style="stop-color:#0A0A0A"/>
				<stop  offset="0.7079" style="stop-color:#0D0D0D"/>
				<stop  offset="0.8507" style="stop-color:#171717"/>
				<stop  offset="0.9811" style="stop-color:#282828"/>
				<stop  offset="1" style="stop-color:#2B2B2B"/>
			</linearGradient>
			<circle fill="url(#SVGID_24_)" cx="496.234" cy="242.955" r="13.461"/>
			<circle fill="#404041" cx="496.233" cy="242.955" r="11.701"/>
			<g>
				<path fill="#404041" d="M490.021,242.955c0,3.432,2.782,6.213,6.21,6.213c3.433,0,6.215-2.781,6.215-6.213
					c0-3.43-2.782-6.215-6.215-6.215C492.804,236.74,490.021,239.525,490.021,242.955z"/>
				<path fill="#808184" d="M496.231,249.547c-3.633,0-6.591-2.957-6.591-6.592c0-3.636,2.958-6.594,6.591-6.594
					c3.638,0,6.595,2.958,6.595,6.594C502.826,246.59,499.869,249.547,496.231,249.547L496.231,249.547z M496.231,237.121
					c-3.215,0-5.829,2.617-5.829,5.834c0,3.215,2.614,5.832,5.829,5.832c3.219,0,5.836-2.617,5.836-5.832
					C502.067,239.738,499.45,237.121,496.231,237.121L496.231,237.121z"/>
			</g>
			<path fill="#231F20" d="M494.242,233.266c0,0.715,0.855,1.807,1.915,1.807c1.057,0,1.913-1.092,1.913-1.807
				c0-0.717-0.856-0.908-1.913-0.908C495.098,232.357,494.242,232.549,494.242,233.266z"/>
			<path fill="#231F20" d="M497.969,252.441c0-0.718-0.856-1.81-1.914-1.81s-1.914,1.092-1.914,1.81
				c0,0.714,0.856,0.906,1.914,0.906S497.969,253.155,497.969,252.441z"/>
			<path fill="#231F20" d="M501.568,234.756c-0.509,0.508-0.672,1.885,0.073,2.631c0.749,0.748,2.127,0.583,2.634,0.074
				c0.507-0.504,0.036-1.246-0.712-1.993C502.816,234.718,502.074,234.25,501.568,234.756z"/>
			<path fill="#231F20" d="M490.643,250.949c0.509-0.506,0.673-1.885-0.074-2.633c-0.748-0.747-2.124-0.58-2.63-0.074
				c-0.507,0.506-0.036,1.249,0.711,1.997C489.396,250.984,490.137,251.457,490.643,250.949z"/>
			<path fill="#231F20" d="M505.693,240.989c-0.717,0-1.809,0.856-1.809,1.913c0,1.059,1.092,1.917,1.809,1.917
				s0.909-0.858,0.909-1.917C506.603,241.846,506.41,240.989,505.693,240.989z"/>
			<path fill="#231F20" d="M486.52,244.715c0.717,0,1.808-0.857,1.808-1.914s-1.091-1.913-1.808-1.913
				c-0.718,0-0.908,0.856-0.908,1.913S485.802,244.715,486.52,244.715z"/>
			<path fill="#231F20" d="M504.202,248.314c-0.507-0.508-1.885-0.672-2.631,0.076c-0.749,0.744-0.583,2.125-0.075,2.63
				c0.505,0.507,1.249,0.035,1.995-0.71C504.239,249.563,504.708,248.822,504.202,248.314z"/>
			<path fill="#231F20" d="M488.009,237.39c0.508,0.507,1.886,0.671,2.633-0.073c0.747-0.748,0.581-2.125,0.074-2.633
				c-0.506-0.507-1.246-0.037-1.995,0.713C487.974,236.142,487.503,236.885,488.009,237.39z"/>
		</g>
		<path fill="#58595B" d="M144.193,169.688c-2.771,0-5.025-2.259-5.025-5.029v-0.113c0,0,6.142-25.82,8.204-34.587
			c0.623-2.646,2.831-4.585,5.561-4.591l56.581-0.9h0.015c2.772,0,5.029,2.258,5.029,5.029v28.966c0,2.772-2.257,5.028-5.022,5.028
			c-0.098,0-9.805,0.061-18.336,0.061c-5.015,0-8.649-0.021-10.806-0.061c-0.804,0-3.322,1.766-4.99,2.938
			c-2.891,2.025-4.742,3.26-6.044,3.26H144.193L144.193,169.688z M180.393,161.544h0.041c2.14,0.041,5.761,0.059,10.766,0.059
			c8.522,0,18.227-0.058,18.33-0.059c1.7,0,3.084-1.383,3.084-3.082v-28.966c0-1.696-1.379-3.079-3.078-3.082l-57.265,0.9h-0.015
			c-1.702,0-2.711,1.625-3.083,3.082l-0.065,0.193l-7.993,34.174c0.057,1.65,1.415,2.976,3.079,2.976h25.165
			c0.78,0,3.277-1.749,4.924-2.905C177.205,162.785,179.071,161.544,180.393,161.544L180.393,161.544z"/>
		<polygon fill="#58595B" points="200.487,198.641 201.519,198.641 201.519,125.822 200.487,125.822 200.487,198.641 		"/>
		<polygon fill="#231F20" points="145.207,235.242 146.235,235.242 146.235,168.521 145.207,168.521 145.207,235.242 		"/>
		<g>
			<path fill="#404041" d="M190.709,189.394c0,0.897,0.725,1.622,1.622,1.622h6.288c0.895,0,1.621-0.725,1.621-1.622v-7.239
				c0-0.898-0.726-1.621-1.621-1.621h-6.288c-0.897,0-1.622,0.723-1.622,1.621V189.394z"/>
			<path fill="#929497" d="M190.709,182.154v7.239c0,0.897,0.725,1.622,1.622,1.622h6.288c0.895,0,1.621-0.725,1.621-1.622v-7.239
				c0-0.898-0.726-1.621-1.621-1.621h-6.288C191.434,180.533,190.709,181.256,190.709,182.154z M191.625,182.154
				c0-0.391,0.317-0.707,0.706-0.707h6.288c0.387,0,0.705,0.316,0.705,0.707v7.239c0,0.391-0.318,0.707-0.705,0.707h-6.288
				c-0.389,0-0.706-0.316-0.706-0.707V182.154z"/>
		</g>
		<path fill="#231F20" d="M137.524,203.883c0,0.895,0.725,1.621,1.62,1.621h4.192c0.896,0,1.622-0.727,1.622-1.621v-27.064
			c0-0.898-0.725-1.623-1.622-1.623h-4.192c-0.895,0-1.62,0.725-1.62,1.623V203.883z"/>
		<path fill="#404041" d="M139.429,173.875c0,0.424,0.41,0.766,0.912,0.766h13.614c0.507,0,0.916-0.342,0.916-0.766v-3.063
			c0-0.422-0.408-0.767-0.916-0.767h-13.614c-0.502,0-0.912,0.345-0.912,0.767V173.875z"/>
		<path fill="#808184" d="M192.997,197.115c22.303,0,38.697,0,38.697,0v5.721c0,0,9.53-0.574,9.53,10.291
			c0,10.867,0,37.746,0,37.746h-2.859v-26.307c0,0-1.907-16.584-19.825-16.584c-17.919,0-19.827,0-19.827,0
			s-17.537,1.143-17.537,18.299c0,5.338,0,8.961,0,8.961l-11.247,0.189v-9.912C169.93,225.52,170.692,197.115,192.997,197.115z"/>
		<g>
			<path fill="#808184" d="M243.226,248.656c0,1.434,1.165,2.597,2.6,2.597h11.292c1.434,0,2.599-1.163,2.599-2.597V219.35
				c0-1.436-1.166-2.6-2.599-2.6h-11.292c-1.435,0-2.6,1.164-2.6,2.6V248.656z"/>
			<path fill="#58595B" d="M243.226,219.35v29.307c0,1.434,1.165,2.597,2.6,2.597h11.292c1.434,0,2.599-1.163,2.599-2.597V219.35
				c0-1.436-1.166-2.6-2.599-2.6h-11.292C244.39,216.75,243.226,217.914,243.226,219.35z M244.827,219.35
				c0-0.551,0.45-0.998,0.999-0.998h11.292c0.55,0,0.997,0.447,0.997,0.998v29.307c0,0.549-0.447,0.997-0.997,0.997h-11.292
				c-0.549,0-0.999-0.448-0.999-0.997V219.35z"/>
		</g>
		<g>
			<path fill="#808184" d="M253.044,208.77c0,1.021,0.829,1.849,1.849,1.849h14.79c1.023,0,1.851-0.828,1.851-1.849v-17.617
				c0-1.023-0.827-1.852-1.851-1.852h-14.79c-1.02,0-1.849,0.828-1.849,1.852V208.77z"/>
			<path fill="#58595B" d="M253.044,191.152v17.617c0,1.021,0.829,1.849,1.849,1.849h14.79c1.023,0,1.851-0.828,1.851-1.849v-17.617
				c0-1.023-0.827-1.852-1.851-1.852h-14.79C253.873,189.301,253.044,190.129,253.044,191.152z M254.325,191.152
				c0-0.316,0.254-0.571,0.568-0.571h14.79c0.314,0,0.57,0.255,0.57,0.571v17.617c0,0.313-0.256,0.57-0.57,0.57h-14.79
				c-0.314,0-0.568-0.258-0.568-0.57V191.152z"/>
		</g>
		<path fill="#58595B" d="M135.046,237.718c0,0,0-15.821,0-23.063c0-7.244,4.191-6.672,4.191-6.672h9.342v34.313l-10.101,0.191
			C134.855,242.486,135.046,237.718,135.046,237.718z"/>
		<path fill="#58595B" d="M147.246,219.704c0,0.896,0.726,1.622,1.624,1.622h22.68c0.896,0,1.622-0.727,1.622-1.622v-0.762
			c0-0.894-0.727-1.622-1.622-1.622h-22.68c-0.898,0-1.624,0.729-1.624,1.622V219.704z"/>
		<path fill="#58595B" d="M147.246,235.218c0,0.897,0.726,1.624,1.624,1.624h22.68c0.896,0,1.622-0.727,1.622-1.624v-0.759
			c0-0.896-0.727-1.619-1.622-1.619h-22.68c-0.898,0-1.624,0.723-1.624,1.619V235.218z"/>
		<path fill="#808184" d="M252.955,215.062c0,0.514,0.416,0.928,0.928,0.928h16.342c0.515,0,0.929-0.414,0.929-0.928v-1.96
			c0-0.512-0.414-0.928-0.929-0.928h-16.342c-0.512,0-0.928,0.416-0.928,0.928V215.062z"/>
		<g>
			<path fill="#808184" d="M136.952,220.234c0,0.451,0.367,0.819,0.82,0.819h6.554c0.456,0,0.822-0.368,0.822-0.819v-7.812
				c0-0.452-0.366-0.819-0.822-0.819h-6.554c-0.454,0-0.82,0.367-0.82,0.819V220.234z"/>
			<path fill="#404041" d="M136.952,212.423v7.812c0,0.451,0.367,0.819,0.82,0.819h6.554c0.456,0,0.822-0.368,0.822-0.819v-7.812
				c0-0.452-0.366-0.819-0.822-0.819h-6.554C137.318,211.604,136.952,211.971,136.952,212.423z M138.096,212.748h5.907v7.161h-5.907
				V212.748z"/>
		</g>
		<g>
			<path fill="#D0D2D3" d="M136.569,235.715c0,0.895,0.436,1.624,0.977,1.624h3.205c0.54,0,0.977-0.729,0.977-1.624v-11.051
				c0-0.897-0.437-1.624-0.977-1.624h-3.205c-0.541,0-0.977,0.727-0.977,1.624V235.715z"/>
			<path fill="#231F20" d="M136.569,224.664v11.051c0,0.895,0.436,1.624,0.977,1.624h3.205c0.54,0,0.977-0.729,0.977-1.624v-11.051
				c0-0.897-0.437-1.624-0.977-1.624h-3.205C137.005,223.04,136.569,223.767,136.569,224.664z M137.534,224.664
				c0-0.013,0.005-0.021,0.012-0.021h3.205c0.008,0,0.014,0.009,0.014,0.021v11.051c0,0.013-0.005,0.021-0.014,0.021h-3.205
				c-0.007,0-0.012-0.009-0.012-0.021V224.664z"/>
		</g>
		<path fill="#231F20" d="M151.519,178.324c0.537,0,0.972-0.568,0.972-1.273v-53.307c0-0.703-0.435-1.272-0.972-1.272
			c-0.537,0-0.971,0.569-0.971,1.272v53.307C150.548,177.756,150.982,178.324,151.519,178.324L151.519,178.324z"/>
		<path fill="#404041" d="M149.307,158.971c0,0.896,0.703,1.621,1.576,1.621h5.355c0.867,0,1.574-0.725,1.574-1.621v-24.778
			c0-0.896-0.707-1.622-1.574-1.622h-5.355c-0.873,0-1.576,0.726-1.576,1.622V158.971z"/>
		<path fill="#929497" d="M193.722,188.57c0,0.611,0.498,1.109,1.109,1.109h2.708c0.611,0,1.108-0.498,1.108-1.109v-5.362
			c0-0.609-0.497-1.107-1.108-1.107h-2.708c-0.611,0-1.109,0.498-1.109,1.107V188.57z"/>
		<g>
			<circle fill="#58595B" cx="207.958" cy="241.579" r="26.53"/>
			<path fill="#323031" d="M180.763,242.848v-2.638l1.532-0.42c0.01-0.154,0.02-0.308,0.034-0.462l-1.43-0.75l0.411-2.604
				l1.573-0.175c0.036-0.153,0.073-0.306,0.109-0.457l-1.291-0.96l0.815-2.509l1.581,0.074c0.058-0.146,0.117-0.289,0.178-0.434
				l-1.126-1.15l1.201-2.35l1.549,0.318c0.08-0.133,0.163-0.266,0.245-0.396l-0.935-1.317l1.553-2.134l1.484,0.56
				c0.1-0.117,0.201-0.235,0.303-0.351l-0.719-1.449l1.867-1.864l1.379,0.785c0.117-0.1,0.233-0.199,0.354-0.299l-0.481-1.545
				l2.132-1.551l1.24,0.992c0.131-0.084,0.263-0.165,0.396-0.246l-0.234-1.594l2.351-1.195l1.065,1.168
				c0.143-0.064,0.289-0.123,0.433-0.18l0.019-1.611l2.506-0.814l0.873,1.323c0.149-0.04,0.301-0.077,0.452-0.11l0.27-1.589
				l2.604-0.412l0.655,1.448c0.157-0.014,0.309-0.023,0.463-0.035l0.517-1.532h2.638l0.421,1.532
				c0.155,0.012,0.307,0.021,0.46,0.035l0.752-1.43l2.604,0.41l0.175,1.572c0.153,0.036,0.304,0.073,0.453,0.11l0.965-1.291
				l2.507,0.815l-0.073,1.582c0.145,0.057,0.289,0.114,0.431,0.178l1.152-1.125l2.351,1.196l-0.321,1.554
				c0.134,0.08,0.266,0.16,0.396,0.245l1.319-0.937l2.133,1.551l-0.562,1.486c0.119,0.101,0.237,0.201,0.356,0.303l1.446-0.719
				l1.865,1.863l-0.786,1.381c0.101,0.119,0.204,0.234,0.3,0.354l1.544-0.48l1.551,2.133l-0.992,1.24
				c0.083,0.131,0.165,0.262,0.245,0.394l1.597-0.232l1.197,2.351l-1.168,1.064c0.06,0.143,0.119,0.288,0.177,0.436l1.611,0.018
				l0.815,2.507l-1.322,0.87c0.035,0.152,0.072,0.305,0.105,0.455l1.59,0.271l0.414,2.604l-1.449,0.654
				c0.015,0.156,0.027,0.307,0.038,0.461l1.532,0.519l-0.001,2.638l-1.53,0.42c-0.011,0.155-0.024,0.309-0.038,0.463l1.432,0.749
				l-0.414,2.606l-1.573,0.174c-0.033,0.151-0.072,0.305-0.11,0.455l1.292,0.961l-0.815,2.508l-1.58-0.072
				c-0.06,0.146-0.117,0.29-0.18,0.434l1.126,1.152l-1.197,2.35l-1.552-0.32c-0.08,0.133-0.163,0.264-0.247,0.395l0.937,1.318
				l-1.551,2.131l-1.488-0.561c-0.099,0.121-0.199,0.238-0.299,0.354l0.715,1.448l-1.865,1.866l-1.38-0.789
				c-0.116,0.104-0.235,0.202-0.352,0.305l0.481,1.54l-2.133,1.55l-1.239-0.989c-0.132,0.083-0.265,0.163-0.396,0.246l0.233,1.597
				l-2.351,1.194l-1.065-1.169c-0.143,0.06-0.289,0.121-0.432,0.179l-0.021,1.61l-2.507,0.814l-0.871-1.322
				c-0.149,0.035-0.302,0.076-0.453,0.11l-0.27,1.588l-2.605,0.409l-0.656-1.445c-0.152,0.016-0.307,0.025-0.461,0.037l-0.515,1.531
				h-2.638l-0.421-1.531c-0.153-0.012-0.309-0.025-0.462-0.037l-0.75,1.434l-2.606-0.414l-0.175-1.573
				c-0.151-0.036-0.305-0.073-0.453-0.112l-0.964,1.293l-2.507-0.813l0.075-1.581c-0.146-0.059-0.291-0.117-0.435-0.179l-1.15,1.126
				l-2.353-1.197l0.323-1.555c-0.132-0.078-0.265-0.16-0.397-0.242l-1.316,0.932l-2.134-1.549l0.559-1.488
				c-0.117-0.098-0.236-0.199-0.352-0.299l-1.449,0.717l-1.863-1.866l0.783-1.378c-0.098-0.117-0.2-0.236-0.297-0.354l-1.544,0.481
				l-1.551-2.133l0.99-1.238c-0.08-0.132-0.165-0.265-0.243-0.396l-1.595,0.234l-1.2-2.35l1.169-1.066
				c-0.06-0.143-0.119-0.289-0.178-0.432l-1.608-0.019l-0.817-2.509l1.323-0.871c-0.039-0.148-0.077-0.301-0.109-0.453l-1.588-0.271
				l-0.412-2.605l1.444-0.652c-0.013-0.152-0.022-0.309-0.033-0.463L180.763,242.848z"/>
			
				<radialGradient id="SVGID_25_" cx="1009.8125" cy="241.5806" r="24.2434" gradientTransform="matrix(-1 0 0 1 1217.7695 0)" gradientUnits="userSpaceOnUse">
				<stop  offset="0" style="stop-color:#FFFFFF"/>
				<stop  offset="0.6779" style="stop-color:#0D0D0D"/>
				<stop  offset="0.6979" style="stop-color:#111111"/>
				<stop  offset="0.7954" style="stop-color:#242424"/>
				<stop  offset="0.8852" style="stop-color:#181818"/>
				<stop  offset="0.9486" style="stop-color:#0D0D0D"/>
			</radialGradient>
			<circle fill="url(#SVGID_25_)" cx="207.957" cy="241.579" r="24.243"/>
			
				<linearGradient id="SVGID_26_" gradientUnits="userSpaceOnUse" x1="994.707" y1="241.5806" x2="1024.915" y2="241.5806" gradientTransform="matrix(-1 0 0 1 1217.7695 0)">
				<stop  offset="0.001" style="stop-color:#696969"/>
				<stop  offset="0.5299" style="stop-color:#212121"/>
				<stop  offset="0.6286" style="stop-color:#2D2D2D"/>
				<stop  offset="0.8057" style="stop-color:#4C4C4C"/>
				<stop  offset="1" style="stop-color:#757575"/>
			</linearGradient>
			<path fill="url(#SVGID_26_)" d="M192.854,241.579c0,8.343,6.761,15.104,15.103,15.104c8.343,0,15.105-6.762,15.105-15.104
				c0-8.339-6.762-15.102-15.105-15.102C199.616,226.478,192.854,233.24,192.854,241.579z"/>
			<path fill="#404041" d="M193.846,241.579c0,7.794,6.32,14.11,14.111,14.11c7.792,0,14.108-6.316,14.108-14.11
				c0-7.792-6.315-14.106-14.108-14.106C200.166,227.473,193.846,233.787,193.846,241.579z"/>
			<circle fill="#808184" cx="207.958" cy="241.579" r="11.228"/>
			<path fill="#808184" d="M201.5,241.579c0,3.567,2.891,6.459,6.458,6.459c3.57,0,6.46-2.892,6.46-6.459
				c0-3.565-2.89-6.456-6.46-6.456C204.391,235.123,201.5,238.014,201.5,241.579z"/>
			<circle fill="#404041" cx="207.958" cy="241.579" r="6.346"/>
			<circle fill="#58595B" cx="207.958" cy="241.579" r="4.047"/>
			<path fill="#231F20" d="M206.046,228.716c0,0.444,0.824,1.124,1.838,1.124c1.016,0,1.838-0.68,1.838-1.124
				c0-0.446-0.822-0.565-1.838-0.565C206.87,228.15,206.046,228.27,206.046,228.716z"/>
			<path fill="#231F20" d="M209.722,254.537c0-0.446-0.822-1.125-1.838-1.125c-1.014,0-1.838,0.679-1.838,1.125
				s0.824,0.568,1.838,0.568C208.9,255.105,209.722,254.983,209.722,254.537z"/>
			<path fill="#231F20" d="M212.749,229.524c-0.221,0.39,0.15,1.388,1.032,1.896c0.877,0.508,1.929,0.33,2.152-0.06
				c0.222-0.384-0.43-0.898-1.309-1.407C213.746,229.447,212.973,229.139,212.749,229.524z"/>
			<path fill="#231F20" d="M203.02,253.728c0.222-0.389-0.148-1.388-1.028-1.896c-0.878-0.508-1.929-0.327-2.155,0.059
				c-0.222,0.387,0.431,0.899,1.309,1.41C202.024,253.805,202.798,254.113,203.02,253.728z"/>
			<path fill="#231F20" d="M218.148,233.58c-0.385,0.223-0.562,1.275-0.057,2.152c0.509,0.877,1.508,1.254,1.894,1.029
				c0.388-0.223,0.08-0.994-0.426-1.874C219.05,234.01,218.536,233.355,218.148,233.58z"/>
			<path fill="#231F20" d="M197.62,249.674c0.387-0.225,0.565-1.277,0.057-2.154c-0.504-0.879-1.505-1.25-1.892-1.027
				c-0.388,0.223-0.079,0.994,0.427,1.874C196.718,249.244,197.234,249.896,197.62,249.674z"/>
			<path fill="#231F20" d="M220.796,239.79c-0.446,0-1.124,0.821-1.124,1.836c0,1.016,0.677,1.836,1.124,1.836
				c0.449,0,0.568-0.82,0.568-1.836C221.364,240.611,221.245,239.79,220.796,239.79z"/>
			<path fill="#231F20" d="M194.972,243.462c0.446,0,1.126-0.82,1.126-1.836c0-1.015-0.68-1.836-1.126-1.836
				c-0.445,0-0.564,0.821-0.564,1.836C194.408,242.642,194.527,243.462,194.972,243.462z"/>
			<path fill="#231F20" d="M219.984,246.492c-0.386-0.223-1.384,0.148-1.894,1.027c-0.505,0.877-0.328,1.93,0.057,2.154
				c0.388,0.223,0.902-0.43,1.408-1.308C220.064,247.486,220.372,246.715,219.984,246.492z"/>
			<path fill="#231F20" d="M195.785,236.762c0.387,0.225,1.388-0.152,1.892-1.029c0.509-0.877,0.331-1.93-0.057-2.153
				c-0.386-0.224-0.902,0.431-1.408,1.309C195.706,235.768,195.396,236.539,195.785,236.762z"/>
			<path fill="#231F20" d="M215.932,251.891c-0.225-0.386-1.275-0.566-2.152-0.059c-0.882,0.508-1.253,1.507-1.032,1.896
				c0.224,0.386,0.998,0.077,1.875-0.427C215.502,252.79,216.154,252.277,215.932,251.891z"/>
			<path fill="#231F20" d="M199.837,231.36c0.226,0.39,1.275,0.567,2.155,0.06s1.25-1.506,1.028-1.896
				c-0.222-0.386-0.996-0.077-1.874,0.429C200.268,230.462,199.616,230.977,199.837,231.36z"/>
			<g>
				<circle fill="#231F20" cx="207.969" cy="232.348" r="1.203"/>
				<circle fill="#58595B" cx="207.969" cy="232.348" r="0.808"/>
			</g>
			<g>
				<path fill="#231F20" d="M206.766,250.216c0,0.664,0.537,1.202,1.203,1.202c0.664,0,1.203-0.538,1.203-1.202
					c0-0.667-0.539-1.204-1.203-1.204C207.303,249.012,206.766,249.549,206.766,250.216z"/>
				<circle fill="#58595B" cx="207.969" cy="250.216" r="0.808"/>
			</g>
			<g>
				<circle fill="#231F20" cx="213.219" cy="234.056" r="1.203"/>
				<circle fill="#58595B" cx="213.219" cy="234.057" r="0.808"/>
			</g>
			<g>
				<circle fill="#231F20" cx="202.719" cy="248.508" r="1.203"/>
				<circle fill="#58595B" cx="202.719" cy="248.508" r="0.808"/>
			</g>
			<g>
				<circle fill="#231F20" cx="216.465" cy="238.522" r="1.204"/>
				<circle fill="#58595B" cx="216.464" cy="238.522" r="0.807"/>
			</g>
			<g>
				<circle fill="#231F20" cx="199.474" cy="244.041" r="1.203"/>
				<circle fill="#58595B" cx="199.474" cy="244.043" r="0.807"/>
			</g>
			<g>
				<circle fill="#231F20" cx="216.465" cy="244.042" r="1.202"/>
				<circle fill="#58595B" cx="216.464" cy="244.043" r="0.807"/>
			</g>
			<g>
				<circle fill="#231F20" cx="199.475" cy="238.522" r="1.204"/>
				<circle fill="#58595B" cx="199.474" cy="238.522" r="0.807"/>
			</g>
			<g>
				<circle fill="#231F20" cx="213.219" cy="248.508" r="1.203"/>
				<path fill="#58595B" d="M213.874,248.034c-0.262-0.362-0.768-0.443-1.128-0.182c-0.362,0.266-0.442,0.771-0.18,1.132
					c0.263,0.357,0.77,0.439,1.131,0.178C214.057,248.899,214.136,248.395,213.874,248.034z"/>
			</g>
			<g>
				<circle fill="#231F20" cx="202.719" cy="234.057" r="1.203"/>
				<circle fill="#58595B" cx="202.719" cy="234.057" r="0.808"/>
			</g>
		</g>
		<path fill="#6D6E70" d="M339.513,213.956c2.659,0,15.501,0,15.501,0l0.654,1.792c-8.536,5.922-14.124,15.789-14.124,26.962
			c0,0.231,0.004,0.46,0.007,0.689h-4.883v-26.692C336.668,216.707,336.854,213.956,339.513,213.956z"/>
		<path fill="#6D6E70" d="M529.835,213.956c-2.66,0-15.504,0-15.504,0l-0.655,1.792c8.538,5.922,14.127,15.789,14.127,26.962
			c0,0.231-0.005,0.46-0.01,0.689h4.884v-26.692C532.677,216.707,532.492,213.956,529.835,213.956z"/>
		<polygon fill="#2858A7" points="230.355,98.221 245.237,98.221 273.851,137.816 529.622,137.816 568.607,195.089 559.27,211.255 
			295.256,211.255 		"/>
		<path fill="#E53B37" d="M551.779,217.852h4.66v10.813h-4.66c-0.999,0-1.805-0.811-1.805-1.808v-7.199
			C549.975,218.661,550.78,217.852,551.779,217.852z"/>
		
			<linearGradient id="SVGID_27_" gradientUnits="userSpaceOnUse" x1="918.6719" y1="252.9722" x2="918.6719" y2="220.5439" gradientTransform="matrix(-1 0 0 1 1217.7695 0)">
			<stop  offset="0.0273" style="stop-color:#1F1F1F"/>
			<stop  offset="0.0713" style="stop-color:#3B3B3B"/>
			<stop  offset="0.1157" style="stop-color:#505050"/>
			<stop  offset="0.1592" style="stop-color:#5D5D5D"/>
			<stop  offset="0.2004" style="stop-color:#616161"/>
			<stop  offset="0.872" style="stop-color:#454545"/>
			<stop  offset="0.9465" style="stop-color:#8A8A8A"/>
			<stop  offset="1" style="stop-color:#000000"/>
		</linearGradient>
		<path fill="url(#SVGID_27_)" d="M333.888,250.476c0,2.515-1.795,4.556-4.013,4.556h-61.557c-2.218,0-4.012-2.041-4.012-4.556
			v-26.502c0-2.518,1.794-4.556,4.012-4.556h61.557c2.218,0,4.013,2.038,4.013,4.556V250.476z"/>
		<rect x="318.784" y="219.351" fill="#231F20" width="4.931" height="36.258"/>
		
			<linearGradient id="SVGID_28_" gradientUnits="userSpaceOnUse" x1="895.8301" y1="253.5122" x2="895.8301" y2="220.4971" gradientTransform="matrix(-1 0 0 1 1217.7695 0)">
			<stop  offset="0.0273" style="stop-color:#1F1F1F"/>
			<stop  offset="0.0288" style="stop-color:#202020"/>
			<stop  offset="0.0629" style="stop-color:#464646"/>
			<stop  offset="0.097" style="stop-color:#646464"/>
			<stop  offset="0.1305" style="stop-color:#797979"/>
			<stop  offset="0.1632" style="stop-color:#858585"/>
			<stop  offset="0.1941" style="stop-color:#8A8A8A"/>
			<stop  offset="0.8227" style="stop-color:#757575"/>
			<stop  offset="0.9182" style="stop-color:#8A8A8A"/>
			<stop  offset="1" style="stop-color:#000000"/>
		</linearGradient>
		<rect x="319.476" y="219.351" fill="url(#SVGID_28_)" width="4.929" height="36.258"/>
		<rect x="272.417" y="219.351" fill="#231F20" width="4.929" height="36.258"/>
		
			<linearGradient id="SVGID_29_" gradientUnits="userSpaceOnUse" x1="942.1943" y1="253.5122" x2="942.1943" y2="220.4971" gradientTransform="matrix(-1 0 0 1 1217.7695 0)">
			<stop  offset="0.0273" style="stop-color:#1F1F1F"/>
			<stop  offset="0.0288" style="stop-color:#202020"/>
			<stop  offset="0.0629" style="stop-color:#464646"/>
			<stop  offset="0.097" style="stop-color:#646464"/>
			<stop  offset="0.1305" style="stop-color:#797979"/>
			<stop  offset="0.1632" style="stop-color:#858585"/>
			<stop  offset="0.1941" style="stop-color:#8A8A8A"/>
			<stop  offset="0.8227" style="stop-color:#757575"/>
			<stop  offset="0.9182" style="stop-color:#8A8A8A"/>
			<stop  offset="1" style="stop-color:#000000"/>
		</linearGradient>
		<rect x="273.109" y="219.351" fill="url(#SVGID_29_)" width="4.931" height="36.258"/>
		<path fill="#1E4E7A" d="M292.25,152.16c0,0,13.918-0.078,17.058-0.021c3.226,0.062,4.164,1.879,4.164,1.879l22.018,34.996
			c2.51,3.873-1.886,4.292-1.886,4.292s-13.925,0-17.588,0c-3.037,0-4.19-2.723-4.19-2.723s-19.537-32.037-21.616-35.649
			C288.513,151.988,292.25,152.16,292.25,152.16z M323.979,154.934c2.08,3.612,21.62,35.649,21.62,35.649s1.15,2.723,4.188,2.723
			c3.663,0,17.585,0,17.585,0s4.399-0.419,1.887-4.292l-22.013-34.996c0,0-0.94-1.817-4.165-1.879
			c-3.145-0.057-17.061,0.021-17.061,0.021S322.284,151.988,323.979,154.934z M357.751,154.934
			c2.081,3.612,21.618,35.649,21.618,35.649s1.154,2.723,4.188,2.723c3.664,0,17.587,0,17.587,0s4.399-0.419,1.886-4.292
			l-22.015-34.996c0,0-0.941-1.817-4.164-1.879c-3.143-0.057-17.061,0.021-17.061,0.021S356.055,151.988,357.751,154.934z
			 M391.522,154.934c2.08,3.612,21.618,35.649,21.618,35.649s1.151,2.723,4.187,2.723c3.666,0,17.59,0,17.59,0
			s4.396-0.419,1.885-4.292l-22.017-34.996c0,0-0.94-1.817-4.163-1.879c-3.143-0.057-17.059,0.021-17.059,0.021
			S389.825,151.988,391.522,154.934z M425.293,154.934c2.077,3.612,21.617,35.649,21.617,35.649s1.154,2.723,4.188,2.723
			c3.664,0,17.591,0,17.591,0s4.395-0.419,1.881-4.292l-22.014-34.996c0,0-0.939-1.817-4.164-1.879
			c-3.142-0.057-17.06,0.021-17.06,0.021S423.597,151.988,425.293,154.934z M459.063,154.934
			c2.081,3.612,21.618,35.649,21.618,35.649s1.153,2.723,4.188,2.723c3.665,0,17.589,0,17.589,0s4.397-0.419,1.886-4.292
			l-22.017-34.996c0,0-0.938-1.817-4.162-1.879c-3.144-0.057-17.06,0.021-17.06,0.021S457.366,151.988,459.063,154.934z
			 M492.836,154.934c2.078,3.612,21.617,35.649,21.617,35.649s1.151,2.723,4.188,2.723c3.666,0,17.588,0,17.588,0
			s4.396-0.419,1.886-4.292l-22.017-34.996c0,0-0.939-1.817-4.163-1.879c-3.142-0.057-17.06,0.021-17.06,0.021
			S491.139,151.988,492.836,154.934z"/>
	</g>
</g>
<polygon fill="#3A3A3A" points="659.868,320.006 22.717,320.006 78.374,268.408 611.168,268.408 "/>
<rect x="78.194" y="268.406" fill="#F9D966" width="532.395" height="39.424"/>
<rect x="352.693" y="268.406" fill="#F9D966" width="257.896" height="39.424"/>
<rect x="83.092" y="268.406" fill="#173B63" width="522.598" height="19.722"/>
<rect x="587.975" y="270.872" fill="#E54829" width="14.789" height="33.271"/>
<rect x="580.074" y="299.713" fill="#173B63" width="31.026" height="4.721"/>
<rect x="92.952" y="273.338" fill="#2858A7" width="502.88" height="9.86"/>
<rect x="586.235" y="268.406" fill="#173B63" width="19.721" height="19.722"/>
<rect x="86.053" y="270.872" fill="#E54829" width="14.791" height="33.271"/>
<rect x="83.588" y="268.406" fill="#173B63" width="19.722" height="19.722"/>
<rect x="78.153" y="299.713" fill="#173B63" width="31.026" height="4.721"/>
<rect x="337.521" y="270.872" fill="#E54829" width="14.791" height="33.271"/>
<rect x="329.62" y="299.713" fill="#173B63" width="31.026" height="4.721"/>
<rect x="335.2" y="268.406" fill="#173B63" width="19.722" height="19.722"/>
<g>
	<g>
		<linearGradient id="SVGID_30_" gradientUnits="userSpaceOnUse" x1="645.4111" y1="16.6128" x2="642.9461" y2="4.217">
			<stop  offset="0" style="stop-color:#FFFFFF"/>
			<stop  offset="0.6989" style="stop-color:#636363"/>
			<stop  offset="1" style="stop-color:#FFFFFF"/>
		</linearGradient>
		<path fill="url(#SVGID_30_)" d="M671.238,0l-1.082,4.087l-1.041,3.903c0,0-16.36,2.57-17.613,2.767
			c-1.252,0.198-1.405,1.933-1.941,4.625l-27.41,4.309l-0.741-1.089l-2.499-3.646l-4.166-6.078L671.238,0z"/>
		<path fill="#6D6E70" d="M671.743,13.197c-2.196,0.888-4.935,1.775-7.963,2.638c-3.936,1.123-8.366,2.205-12.741,3.185
			c-9.946,2.232-19.642,3.946-22.732,4.428l-0.728-4.606l21.981-3.456c0.532-2.697,0.692-4.429,1.941-4.631
			c1.253-0.195,17.613-2.763,17.613-2.763l1.037-3.905l0.153-0.026L671.743,13.197z"/>
		<path fill="#6D6E70" d="M672.453,28.449v3.905h-16.572c-1.072,0-1.953-0.879-1.953-1.951c0-0.542,0.22-1.032,0.574-1.378
			c0.355-0.356,0.839-0.576,1.379-0.576H672.453z"/>
		<path fill="#E4E4E4" d="M672.453,32.354v5.756c-3.574-3.035-13.563-5.756-15.288-5.756H672.453z"/>
		<path fill="#4D4C4C" d="M672.453,32.354v5.756c-3.574-3.035-13.563-5.756-15.288-5.756H672.453z"/>
		<rect x="672.453" y="24.046" fill="#6D6E70" width="3.939" height="17.748"/>
		<path fill="#4D4C4C" d="M662.74,24.325v4.124h-7.113v-4.124c0-1.968,1.597-3.557,3.557-3.557
			C661.153,20.768,662.74,22.357,662.74,24.325z"/>
		<path fill="#6D6E70" d="M662.041,22.983c0.424,1.656-0.575,3.346-2.249,3.778c-1.663,0.431-3.354-0.574-3.775-2.24
			c-0.313-1.201-1.344-2.781-4.531-3.727l-0.446-1.775c4.375-0.98,8.806-2.062,12.741-3.185l0.442,1.705
			C661.881,19.9,661.737,21.776,662.041,22.983z"/>
		<circle fill="#282827" cx="659.016" cy="23.796" r="1.744"/>
		<path opacity="0.43" fill="#3A3A3A" d="M670.417,4.78l-0.265,0.997l-1.037,3.905c0,0-16.36,2.568-17.613,2.763
			c-1.249,0.204-1.402,1.935-1.941,4.632l-21.72,3.405l-0.262-1.641l21.981-3.456c0.167-0.846,0.296-1.589,0.438-2.231
			c0.136-0.635,0.285-1.159,0.48-1.556c0.236-0.48,0.55-0.769,1.022-0.846c1.253-0.193,17.613-2.763,17.613-2.763l1.037-3.903
			l0.153-0.026L670.417,4.78z"/>
		<path opacity="0.43" fill="#808080" d="M664.223,17.54c-0.111,0.112-0.22,0.23-0.313,0.339c-0.042,0.009-0.083,0.024-0.129,0.033
			c-3.692,1.056-7.816,2.071-11.923,3c-0.118-0.042-0.244-0.077-0.372-0.118l-0.209-0.82l-0.237-0.955
			c4.375-0.98,8.806-2.062,12.741-3.185L664.223,17.54z"/>
		<path opacity="0.43" fill="#808080" d="M661.922,24.864c-0.024,1.361-0.946,2.603-2.342,2.958c-1.664,0.43-3.355-0.574-3.776-2.24
			c-0.042-0.169-0.101-0.346-0.177-0.522v-0.729c0-0.219,0.017-0.43,0.059-0.642c0.16,0.289,0.261,0.576,0.331,0.837
			c0.421,1.665,2.112,2.669,3.775,2.239C660.805,26.505,661.574,25.769,661.922,24.864z"/>
	</g>
	<linearGradient id="SVGID_31_" gradientUnits="userSpaceOnUse" x1="675.8467" y1="109.8794" x2="680.8994" y2="109.8794">
		<stop  offset="0" style="stop-color:#636363"/>
		<stop  offset="0.0914" style="stop-color:#FFFFFF"/>
		<stop  offset="0.6989" style="stop-color:#636363"/>
		<stop  offset="1" style="stop-color:#FFFFFF"/>
	</linearGradient>
	<path fill="url(#SVGID_31_)" d="M680.899,18.255c0-1.394-1.131-2.525-2.526-2.525l0,0c-1.396,0-2.526,1.131-2.526,2.525v183.247
		c0,1.396,1.131,2.526,2.526,2.526l0,0c1.396,0,2.526-1.131,2.526-2.526V18.255z"/>
	<linearGradient id="SVGID_32_" gradientUnits="userSpaceOnUse" x1="671.8408" y1="254.6655" x2="684.9053" y2="254.6655">
		<stop  offset="0" style="stop-color:#FFFFFF"/>
		<stop  offset="0.6989" style="stop-color:#636363"/>
		<stop  offset="1" style="stop-color:#FFFFFF"/>
	</linearGradient>
	<path fill="url(#SVGID_32_)" d="M684.905,199.856c0-3.607-2.923-8.429-6.532-8.429v0.115c-3.609,0-6.532,4.707-6.532,8.314v118.047
		h13.064V199.856z"/>
</g>
<g>
	<g>
		
			<linearGradient id="SVGID_33_" gradientUnits="userSpaceOnUse" x1="1334.5889" y1="16.6123" x2="1332.1239" y2="4.2165" gradientTransform="matrix(-1 0 0 1 1374.082 0)">
			<stop  offset="0" style="stop-color:#FFFFFF"/>
			<stop  offset="0.6989" style="stop-color:#636363"/>
			<stop  offset="1" style="stop-color:#FFFFFF"/>
		</linearGradient>
		<path fill="url(#SVGID_33_)" d="M13.667,0l1.084,4.087l1.039,3.903c0,0,16.362,2.57,17.615,2.767
			c1.251,0.198,1.406,1.933,1.942,4.625l27.409,4.309l0.743-1.089l2.499-3.646l4.164-6.078L13.667,0z"/>
		<path fill="#6D6E70" d="M13.164,13.197c2.196,0.888,4.935,1.775,7.961,2.638c3.938,1.123,8.366,2.205,12.743,3.185
			c9.946,2.232,19.641,3.946,22.733,4.428l0.727-4.606l-21.981-3.456c-0.532-2.697-0.692-4.429-1.944-4.631
			c-1.251-0.195-17.611-2.763-17.611-2.763l-1.039-3.905L14.6,4.062L13.164,13.197z"/>
		<path fill="#6D6E70" d="M12.452,28.449v3.905h16.573c1.074,0,1.953-0.879,1.953-1.951c0-0.542-0.219-1.032-0.574-1.378
			c-0.355-0.356-0.837-0.576-1.378-0.576H12.452z"/>
		<path fill="#E4E4E4" d="M12.452,32.354v5.756c3.574-3.035,13.564-5.756,15.289-5.756H12.452z"/>
		<path fill="#4D4C4C" d="M12.452,32.354v5.756c3.574-3.035,13.564-5.756,15.289-5.756H12.452z"/>
		<rect x="8.514" y="24.046" fill="#6D6E70" width="3.938" height="17.748"/>
		<path fill="#4D4C4C" d="M22.166,24.325v4.124h7.115v-4.124c0-1.968-1.598-3.557-3.559-3.557
			C23.754,20.768,22.166,22.357,22.166,24.325z"/>
		<path fill="#6D6E70" d="M22.865,22.983c-0.423,1.656,0.574,3.346,2.248,3.778c1.665,0.431,3.355-0.574,3.778-2.24
			c0.313-1.201,1.343-2.781,4.529-3.727l0.447-1.775c-4.376-0.98-8.805-2.062-12.743-3.185l-0.44,1.705
			C23.025,19.9,23.169,21.776,22.865,22.983z"/>
		<circle fill="#282827" cx="25.89" cy="23.796" r="1.743"/>
		<path opacity="0.43" fill="#3A3A3A" d="M14.49,4.78l0.263,0.997l1.039,3.905c0,0,16.36,2.568,17.611,2.763
			c1.251,0.204,1.404,1.935,1.944,4.632l21.718,3.405l0.263-1.641l-21.981-3.456c-0.169-0.846-0.296-1.589-0.438-2.231
			c-0.136-0.635-0.287-1.159-0.482-1.556c-0.237-0.48-0.55-0.769-1.023-0.846c-1.251-0.193-17.611-2.763-17.611-2.763l-1.039-3.903
			L14.6,4.062L14.49,4.78z"/>
		<path opacity="0.43" fill="#808080" d="M20.685,17.54c0.11,0.112,0.219,0.23,0.313,0.339c0.042,0.009,0.083,0.024,0.127,0.033
			c3.692,1.056,7.816,2.071,11.923,3c0.119-0.042,0.246-0.077,0.373-0.118l0.21-0.82l0.237-0.955
			c-4.376-0.98-8.805-2.062-12.743-3.185L20.685,17.54z"/>
		<path opacity="0.43" fill="#808080" d="M22.985,24.864c0.024,1.361,0.947,2.603,2.341,2.958c1.665,0.43,3.355-0.574,3.778-2.24
			c0.042-0.169,0.101-0.346,0.177-0.522v-0.729c0-0.219-0.018-0.43-0.059-0.642c-0.16,0.289-0.261,0.576-0.331,0.837
			c-0.423,1.665-2.113,2.669-3.776,2.239C24.101,26.505,23.332,25.769,22.985,24.864z"/>
	</g>
	
		<linearGradient id="SVGID_34_" gradientUnits="userSpaceOnUse" x1="1365.0234" y1="109.8794" x2="1370.0742" y2="109.8794" gradientTransform="matrix(-1 0 0 1 1374.082 0)">
		<stop  offset="0" style="stop-color:#636363"/>
		<stop  offset="0.0914" style="stop-color:#FFFFFF"/>
		<stop  offset="0.6989" style="stop-color:#636363"/>
		<stop  offset="1" style="stop-color:#FFFFFF"/>
	</linearGradient>
	<path fill="url(#SVGID_34_)" d="M4.007,18.255c0-1.394,1.131-2.525,2.527-2.525l0,0c1.394,0,2.525,1.131,2.525,2.525v183.247
		c0,1.396-1.131,2.526-2.525,2.526l0,0c-1.396,0-2.527-1.131-2.527-2.526V18.255z"/>
	
		<linearGradient id="SVGID_35_" gradientUnits="userSpaceOnUse" x1="1361.0156" y1="254.6655" x2="1374.082" y2="254.6655" gradientTransform="matrix(-1 0 0 1 1374.082 0)">
		<stop  offset="0" style="stop-color:#FFFFFF"/>
		<stop  offset="0.6989" style="stop-color:#636363"/>
		<stop  offset="1" style="stop-color:#FFFFFF"/>
	</linearGradient>
	<path fill="url(#SVGID_35_)" d="M0,199.856c0-3.607,2.925-8.429,6.534-8.429v0.115c3.607,0,6.532,4.707,6.532,8.314v118.047H0
		V199.856z"/>
</g>
</svg>
