<?xml version="1.0" encoding="utf-8"?>
<!-- Generator: Adobe Illustrator 16.2.0, SVG Export Plug-In . SVG Version: 6.00 Build 0)  -->
<!DOCTYPE svg PUBLIC "-//W3C//DTD SVG 1.1//EN" "http://www.w3.org/Graphics/SVG/1.1/DTD/svg11.dtd">
<svg version="1.1" xmlns="http://www.w3.org/2000/svg" xmlns:xlink="http://www.w3.org/1999/xlink" x="0px" y="0px" width="1013px"
	 height="360.017px" viewBox="0 0 1013 360.017" enable-background="new 0 0 1013 360.017" xml:space="preserve">
<g id="Layer_1">
</g>
<g id="Layer_2">
	<g>
		<ellipse fill="#2858A7" cx="555.029" cy="166.017" rx="1.523" ry="2.014"/>
		<rect x="485.488" y="167.548" fill="#2858A7" width="71.064" height="3.801"/>
		<rect x="553.104" y="210.453" fill="#2858A7" width="3.514" height="109.458"/>
		<polygon fill="#2858A7" points="577.703,322.91 532.02,322.91 533.542,319.108 576.181,319.108 		"/>
		<rect x="553.391" y="165.466" fill="#173B63" width="3.278" height="11.351"/>
		<rect x="412.395" y="215.626" fill="#2858A7" width="6.091" height="106.725"/>
		<rect x="411.887" y="214.527" fill="#173B63" width="1.523" height="107.823"/>
		<rect x="417.471" y="214.527" fill="#173B63" width="1.522" height="107.823"/>
		<rect x="499.405" y="215.626" fill="#2858A7" width="6.091" height="106.725"/>
		<rect x="498.897" y="214.527" fill="#173B63" width="1.523" height="107.823"/>
		<rect x="504.48" y="214.527" fill="#173B63" width="1.523" height="107.823"/>
		<rect x="419.48" y="133.371" fill="#848A8E" width="78.718" height="43.807"/>
		<rect x="417.471" y="132.174" fill="#3B3E3F" width="82.738" height="1.498"/>
		<polygon fill="#A1ABB4" points="498.198,177.178 419.48,177.178 435.004,248.394 482.167,248.394 		"/>
		<polygon fill="#3B3E3F" points="486.166,252.788 431.006,252.788 435.066,248.394 482.104,248.394 		"/>
		<rect x="412.902" y="214.985" fill="#2858A7" width="91.367" height="6.59"/>
		<rect x="411.887" y="214.436" fill="#173B63" width="93.398" height="1.648"/>
		<rect x="411.887" y="220.478" fill="#173B63" width="93.398" height="1.647"/>
		<rect x="417.879" y="301.529" fill="#2858A7" width="81.414" height="5.946"/>
		<rect x="428.978" y="190.181" fill="#7C7C7C" width="10.409" height="18.004"/>
		<g>
			<rect x="429.8" y="190.181" fill="#3D3C36" width="8.766" height="14.26"/>
		</g>
		<g>
			<rect x="478.842" y="190.181" fill="#7C7C7C" width="10.406" height="18.004"/>
			<rect x="479.663" y="190.181" fill="#3D3C36" width="8.764" height="14.26"/>
		</g>
		<rect x="433.224" y="113.668" fill="#4C4C47" width="15.614" height="18.904"/>
		<rect x="433.224" y="116.521" fill="#2D2C28" width="15.614" height="13.203"/>
		<rect x="431.172" y="111.868" fill="#A1ABB4" width="19.725" height="1.8"/>
		<g>
			<path fill="#2D2C28" d="M450.896,118.469c0,0.5-0.37,0.902-0.821,0.902h-18.083c-0.456,0-0.82-0.402-0.82-0.902l0,0
				c0-0.495,0.364-0.897,0.82-0.897h18.083C450.526,117.571,450.896,117.974,450.896,118.469L450.896,118.469z"/>
			<path fill="#2D2C28" d="M450.896,120.27c0,0.498-0.37,0.9-0.821,0.9h-18.083c-0.456,0-0.82-0.402-0.82-0.9l0,0
				c0-0.497,0.364-0.898,0.82-0.898h18.083C450.526,119.371,450.896,119.772,450.896,120.27L450.896,120.27z"/>
			<path fill="#2D2C28" d="M450.896,122.071c0,0.497-0.37,0.899-0.821,0.899h-18.083c-0.456,0-0.82-0.402-0.82-0.899l0,0
				c0-0.499,0.364-0.901,0.82-0.901h18.083C450.526,121.17,450.896,121.572,450.896,122.071L450.896,122.071z"/>
			<path fill="#2D2C28" d="M450.896,123.872c0,0.496-0.37,0.897-0.821,0.897h-18.083c-0.456,0-0.82-0.401-0.82-0.897l0,0
				c0-0.499,0.364-0.901,0.82-0.901h18.083C450.526,122.971,450.896,123.373,450.896,123.872L450.896,123.872z"/>
			<path fill="#2D2C28" d="M450.896,125.671c0,0.495-0.37,0.901-0.821,0.901h-18.083c-0.456,0-0.82-0.406-0.82-0.901l0,0
				c0-0.496,0.364-0.901,0.82-0.901h18.083C450.526,124.77,450.896,125.175,450.896,125.671L450.896,125.671z"/>
			<path fill="#2D2C28" d="M450.896,127.47c0,0.5-0.37,0.902-0.821,0.902h-18.083c-0.456,0-0.82-0.402-0.82-0.902l0,0
				c0-0.495,0.364-0.897,0.82-0.897h18.083C450.526,126.572,450.896,126.975,450.896,127.47L450.896,127.47z"/>
		</g>
		<rect x="477.062" y="113.668" fill="#4C4C47" width="7.394" height="18.904"/>
		<rect x="477.062" y="116.521" fill="#2D2C28" width="7.394" height="13.203"/>
		<rect x="475.003" y="111.868" fill="#A1ABB4" width="11.505" height="1.8"/>
		<g>
			<path fill="#2D2C28" d="M486.508,118.469c0,0.5-0.365,0.902-0.821,0.902h-9.862c-0.449,0-0.821-0.402-0.821-0.902l0,0
				c0-0.495,0.372-0.897,0.821-0.897h9.862C486.143,117.571,486.508,117.974,486.508,118.469L486.508,118.469z"/>
			<path fill="#2D2C28" d="M486.508,120.27c0,0.498-0.365,0.9-0.821,0.9h-9.862c-0.449,0-0.821-0.402-0.821-0.9l0,0
				c0-0.497,0.372-0.898,0.821-0.898h9.862C486.143,119.371,486.508,119.772,486.508,120.27L486.508,120.27z"/>
			<path fill="#2D2C28" d="M486.508,122.071c0,0.497-0.365,0.899-0.821,0.899h-9.862c-0.449,0-0.821-0.402-0.821-0.899l0,0
				c0-0.499,0.372-0.901,0.821-0.901h9.862C486.143,121.17,486.508,121.572,486.508,122.071L486.508,122.071z"/>
			<path fill="#2D2C28" d="M486.508,123.872c0,0.496-0.365,0.897-0.821,0.897h-9.862c-0.449,0-0.821-0.401-0.821-0.897l0,0
				c0-0.499,0.372-0.901,0.821-0.901h9.862C486.143,122.971,486.508,123.373,486.508,123.872L486.508,123.872z"/>
			<path fill="#2D2C28" d="M486.508,125.671c0,0.495-0.365,0.901-0.821,0.901h-9.862c-0.449,0-0.821-0.406-0.821-0.901l0,0
				c0-0.496,0.372-0.901,0.821-0.901h9.862C486.143,124.77,486.508,125.175,486.508,125.671L486.508,125.671z"/>
			<path fill="#2D2C28" d="M486.508,127.47c0,0.5-0.365,0.902-0.821,0.902h-9.862c-0.449,0-0.821-0.402-0.821-0.902l0,0
				c0-0.495,0.372-0.897,0.821-0.897h9.862C486.143,126.572,486.508,126.975,486.508,127.47L486.508,127.47z"/>
		</g>
		<g>
			<rect x="571.632" y="188.692" fill="#F29F2A" width="4.061" height="4.303"/>
			<rect x="572.71" y="188.692" fill="#D38129" width="2.982" height="4.303"/>
			<rect x="571.885" y="188.042" fill="#E2DEDE" width="3.554" height="0.665"/>
			<rect x="571.632" y="203.213" fill="#F29F2A" width="4.061" height="4.302"/>
			<rect x="572.71" y="203.213" fill="#D38129" width="2.982" height="4.302"/>
			<rect x="571.885" y="207.5" fill="#E2DEDE" width="3.554" height="0.666"/>
			<path fill="#F29F2A" d="M578.887,203.91c0,0.301-0.229,0.548-0.508,0.548h-9.137c-0.279,0-0.508-0.247-0.508-0.548V192.56
				c0-0.302,0.229-0.549,0.508-0.549h9.137c0.279,0,0.508,0.247,0.508,0.549V203.91z"/>
			<ellipse fill="#D38129" cx="573.557" cy="198.143" rx="3.299" ry="3.57"/>
			<ellipse fill="#BA1B15" cx="573.557" cy="198.143" rx="2.399" ry="2.597"/>
			<path fill="#F2F2F2" d="M568.988,211.049c0,1.213-0.909,2.197-2.031,2.197h-23.603c-1.121,0-2.03-0.984-2.03-2.197v-32.95
				c0-1.214,0.909-2.197,2.03-2.197h23.603c1.122,0,2.031,0.983,2.031,2.197V211.049z"/>
			<rect x="545.765" y="181.667" fill="#2858A7" width="18.782" height="7.964"/>
			<rect x="547.542" y="183.178" fill="#3D3C36" width="15.229" height="4.942"/>
			<rect x="546.062" y="192.194" fill="#2858A7" width="2.877" height="3.111"/>
			<rect x="541.409" y="201.438" fill="#D3D3D3" width="27.601" height="4.212"/>
			<rect x="551.138" y="192.194" fill="#2858A7" width="2.876" height="3.111"/>
			<rect x="556.214" y="192.194" fill="#2858A7" width="2.877" height="3.111"/>
			<rect x="561.289" y="192.194" fill="#2858A7" width="2.877" height="3.111"/>
		</g>
	</g>
	<rect x="12" y="322.476" fill="#33312F" width="973.249" height="14.791"/>
</g>
</svg>
