<?xml version="1.0" encoding="utf-8"?>
<!-- Generator: Adobe Illustrator 16.2.0, SVG Export Plug-In . SVG Version: 6.00 Build 0)  -->
<!DOCTYPE svg PUBLIC "-//W3C//DTD SVG 1.1//EN" "http://www.w3.org/Graphics/SVG/1.1/DTD/svg11.dtd">
<svg version="1.1" id="Layer_1" xmlns="http://www.w3.org/2000/svg" xmlns:xlink="http://www.w3.org/1999/xlink" x="0px" y="0px"
	 width="109px" height="109px" viewBox="1.037 0.104 109 109" enable-background="new 1.037 0.104 109 109" xml:space="preserve">
<circle fill="#50AFCB" cx="55.537" cy="54.604" r="54.5"/>
<g id="Tablet">
	<g>
		<path fill="#FFFFFF" d="M73.232,29.438H37.842c-2.386,0-4.326,2.028-4.326,4.523v41.29c0,2.491,1.94,4.521,4.326,4.521h35.391
			c2.385,0,4.325-2.03,4.325-4.521V33.96C77.558,31.466,75.617,29.438,73.232,29.438z M74.412,75.25c0,0.759-0.53,1.376-1.18,1.376
			H37.842c-0.65,0-1.18-0.617-1.18-1.376v-6.488h37.75V75.25z M74.412,65.615h-37.75V38.876h37.75V65.615z M74.412,35.73h-37.75
			v-1.77c0-0.759,0.529-1.376,1.18-1.376h35.391c0.649,0,1.18,0.618,1.18,1.376V35.73z M55.536,75.053
			c1.305,0,2.359-1.057,2.359-2.359s-1.055-2.359-2.359-2.359c-1.304,0-2.358,1.057-2.358,2.359S54.232,75.053,55.536,75.053z"/>
	</g>
</g>
</svg>
