<?xml version="1.0" encoding="utf-8"?>
<!-- Generator: Adobe Illustrator 16.2.0, SVG Export Plug-In . SVG Version: 6.00 Build 0)  -->
<!DOCTYPE svg PUBLIC "-//W3C//DTD SVG 1.1//EN" "http://www.w3.org/Graphics/SVG/1.1/DTD/svg11.dtd">
<svg version="1.1" id="Layer_1" xmlns="http://www.w3.org/2000/svg" xmlns:xlink="http://www.w3.org/1999/xlink" x="0px" y="0px"
	 width="109px" height="109px" viewBox="0 0 109 109" enable-background="new 0 0 109 109" xml:space="preserve">
<circle fill="#50AFCB" cx="54.5" cy="54.5" r="54.5"/>
<path fill="#FFFFFF" d="M61.063,54.369v-5.004V33.271c0-3.539-2.896-6.438-6.438-6.438c-3.539,0-6.437,2.898-6.437,6.438v16.094
	v5.004c-3.828,2.231-6.438,6.337-6.438,11.089c0,7.11,5.765,12.876,12.875,12.876c7.111,0,12.875-5.766,12.875-12.876
	C67.5,60.706,64.897,56.6,61.063,54.369z M51.406,46.146h3.218v-3.219h-3.218v-3.219h3.218V36.49h-3.218v-3.219
	c0-1.773,1.446-3.219,3.218-3.219c1.777,0,3.219,1.446,3.219,3.219v16.094h-6.438V46.146z M54.625,75.114
	c-5.331,0-9.656-4.318-9.656-9.656c0-0.546,0.075-1.081,0.164-1.608c0.77,4.564,4.714,8.047,9.492,8.047
	c4.785,0,8.726-3.482,9.496-8.047c0.088,0.527,0.16,1.063,0.16,1.608C64.28,70.795,59.96,75.114,54.625,75.114z"/>
</svg>
