<?xml version="1.0" encoding="utf-8"?>
<!-- Generator: Adobe Illustrator 16.2.0, SVG Export Plug-In . SVG Version: 6.00 Build 0)  -->
<!DOCTYPE svg PUBLIC "-//W3C//DTD SVG 1.1//EN" "http://www.w3.org/Graphics/SVG/1.1/DTD/svg11.dtd">
<svg version="1.1" id="Layer_1" xmlns="http://www.w3.org/2000/svg" xmlns:xlink="http://www.w3.org/1999/xlink" x="0px" y="0px"
	 width="109px" height="109px" viewBox="1.037 0.104 109 109" enable-background="new 1.037 0.104 109 109" xml:space="preserve">
<circle fill="#50AFCB" cx="55.537" cy="54.604" r="54.5"/>
<path fill-rule="evenodd" clip-rule="evenodd" fill="#FFFFFF" d="M79.029,38.08c1.894,4.567,0.991,10.012-2.721,13.725
	c-4.087,4.089-10.264,4.725-15.064,2.019l-3.47,3.789l2.477,2.485l1.48-1.479c0.755-0.755,1.982-0.755,2.737,0l12.002,12.125
	c0.758,0.755,0.758,1.981,0,2.736l-5.479,5.479c-0.756,0.757-1.982,0.757-2.738,0L56.252,66.836c-0.757-0.757-0.757-1.981,0-2.736
	l1.351-1.354l-2.359-2.365L38.645,78.513c-1.513,1.515-3.965,1.515-5.478,0l-1.37-1.368c-1.513-1.514-1.513-3.965,0-5.48
	l18.908-15.836L38.146,43.237H34.18l-4.586-7.381l3.694-3.7l7.548,4.617l0.051,3.885L53.59,53.411l3.697-3.095
	c-3.613-4.925-3.235-11.863,1.216-16.314c3.694-3.696,9.113-4.613,13.665-2.756l-8.143,8.028l6.849,6.848L79.029,38.08z
	 M36.342,73.595c-0.755-0.755-1.98-0.755-2.738,0c-0.757,0.76-0.757,1.985,0,2.74c0.758,0.757,1.983,0.757,2.738,0
	C37.1,75.58,37.1,74.354,36.342,73.595z"/>
</svg>
