<?xml version="1.0" encoding="utf-8"?>
<!-- Generator: Adobe Illustrator 16.2.0, SVG Export Plug-In . SVG Version: 6.00 Build 0)  -->
<!DOCTYPE svg PUBLIC "-//W3C//DTD SVG 1.1//EN" "http://www.w3.org/Graphics/SVG/1.1/DTD/svg11.dtd">
<svg version="1.1" id="Layer_1" xmlns="http://www.w3.org/2000/svg" xmlns:xlink="http://www.w3.org/1999/xlink" x="0px" y="0px"
	 width="109px" height="109px" viewBox="1.037 0.104 109 109" enable-background="new 1.037 0.104 109 109" xml:space="preserve">
<circle fill="#50AFCB" cx="55.537" cy="54.604" r="54.5"/>
<g>
	<g>
		<path fill="#FFFFFF" d="M84.512,58.059c-0.859,0-1.559,0.695-1.559,1.551v11.752H65.43l-7.482-13.774
			c6.424-2,12.074-3.787,13.301-4.261c4.447-1.723,8.465-6.152,6.795-11.818c-0.148-0.576-2.023-7.751-3.424-10.683
			c-2.111-4.614-6.455-6.58-11.617-5.262c-0.025,0.006-0.051,0.014-0.076,0.021l-7.016,2.169c-0.84-1.831-2.261-3.574-5.224-3.574
			c-0.715,0-1.486,0.099-2.357,0.303c-0.038,0.009-0.075,0.019-0.112,0.03L12.769,35.639c-0.815,0.256-1.271,1.12-1.021,1.935
			c0.027,0.089,1.828,5.727,6.376,9.811c0.009,0.036,0.013,0.072,0.024,0.107l3.524,10.362c0.219,0.644,0.822,1.054,1.475,1.054
			c0.135,0,0.272-0.018,0.409-0.055l8.467-2.29l2.12,6.741c0.209,0.662,0.823,1.088,1.486,1.088c0.151,0,0.306-0.021,0.458-0.068
			c0.705-0.216,9.958-3.045,18.828-5.796l8.214,15.122c0.273,0.501,0.799,0.813,1.371,0.813h18.451v12.336
			c0,0.857,0.699,1.553,1.559,1.553c0.861,0,1.559-0.695,1.559-1.553V59.609C86.07,58.754,85.373,58.059,84.512,58.059z
			 M15.275,38.106L49.096,27.49c0.604-0.138,1.138-0.208,1.59-0.208c1.168,0,1.874,0.37,2.631,2.345
			c-0.008,0.176,0.008,0.355,0.063,0.533c0.053,0.171,0.139,0.321,0.239,0.458l2.843,9.971l-23.906,7.371
			c-1.312,0.314-2.59,0.475-3.801,0.475C20.592,48.434,16.625,41.26,15.275,38.106z M24.154,55.477l-1.803-5.299
			c1.849,0.837,3.973,1.359,6.405,1.359c0.544,0,1.1-0.035,1.659-0.088l0.677,2.149L24.154,55.477z M33.512,50.913l25.326-7.809
			c0.809-0.249,1.27-1.096,1.039-1.907l-2.994-10.496l6.93-2.142c4.949-1.247,7.117,1.688,7.98,3.576
			c1.313,2.745,3.221,10.099,3.24,10.173c0.004,0.018,0.01,0.036,0.014,0.055c1.627,5.463-4.66,7.967-4.928,8.07
			c-2.592,1.002-27.135,8.531-33.464,10.471L33.512,50.913z"/>
	</g>
</g>
</svg>
