<?xml version="1.0" encoding="utf-8"?>
<!-- Generator: Adobe Illustrator 16.2.0, SVG Export Plug-In . SVG Version: 6.00 Build 0)  -->
<!DOCTYPE svg PUBLIC "-//W3C//DTD SVG 1.1//EN" "http://www.w3.org/Graphics/SVG/1.1/DTD/svg11.dtd">
<svg version="1.1" id="Layer_1" xmlns="http://www.w3.org/2000/svg" xmlns:xlink="http://www.w3.org/1999/xlink" x="0px" y="0px"
	 width="109px" height="109px" viewBox="0 0 109 109" enable-background="new 0 0 109 109" xml:space="preserve">
<circle fill="#50AFCB" cx="54.5" cy="54.5" r="54.5"/>
<polygon fill="#FFFFFF" points="88.926,49.142 85.39,49.142 85.39,60.833 22.723,60.833 22.723,49.142 19.188,49.142 14.188,67.22 
	93.926,67.22 "/>
<polygon fill="#FFFFFF" points="84.057,49.833 84.057,45.833 24.057,45.833 24.057,49.833 26.583,49.833 26.583,54.833 25,54.833 
	25,58.666 26.583,58.666 32.417,58.666 34,58.666 34,54.833 32.417,54.833 32.417,49.833 50.583,49.833 50.583,54.833 
	48.833,54.833 48.833,58.666 50.583,58.666 56.417,58.666 57.833,58.666 57.833,54.833 56.417,54.833 56.417,49.833 75.583,49.833 
	75.583,54.833 74,54.833 74,58.666 75.583,58.666 81.417,58.666 83,58.666 83,54.833 81.417,54.833 81.417,49.833 "/>
</svg>
