<?xml version="1.0" encoding="utf-8"?>
<!-- Generator: Adobe Illustrator 16.2.0, SVG Export Plug-In . SVG Version: 6.00 Build 0)  -->
<!DOCTYPE svg PUBLIC "-//W3C//DTD SVG 1.1//EN" "http://www.w3.org/Graphics/SVG/1.1/DTD/svg11.dtd">
<svg version="1.1" id="Layer_1" xmlns="http://www.w3.org/2000/svg" xmlns:xlink="http://www.w3.org/1999/xlink" x="0px" y="0px"
	 width="109px" height="109px" viewBox="0 0 109 109" enable-background="new 0 0 109 109" xml:space="preserve">
<circle fill="#50AFCB" cx="54.5" cy="54.5" r="54.5"/>
<g>
	<g>
		<path fill="#FFFFFF" stroke="#FFFFFF" stroke-miterlimit="10" d="M55.326,73.562c-2.687,0-4.873,2.229-4.873,4.969
			s2.187,4.969,4.873,4.969c2.688,0,4.873-2.229,4.873-4.969S58.013,73.562,55.326,73.562z M80.564,37.985
			C73.013,33.087,64.287,30.5,55.326,30.5s-17.687,2.588-25.237,7.485c-0.757,0.491-0.98,1.514-0.498,2.287
			c0.481,0.77,1.481,0.998,2.242,0.508c7.027-4.558,15.151-6.968,23.493-6.968c8.343,0,16.466,2.41,23.493,6.968
			c0.271,0.174,0.572,0.259,0.871,0.259c0.537,0,1.063-0.272,1.372-0.767C81.544,39.499,81.321,38.476,80.564,37.985z M64.79,63.095
			c-5.704-3.643-13.223-3.643-18.928,0c-0.76,0.485-0.989,1.508-0.514,2.284c0.478,0.774,1.479,1.009,2.24,0.523
			c4.667-2.982,10.809-2.982,15.476,0c0.268,0.172,0.566,0.253,0.861,0.253c0.541,0,1.069-0.275,1.378-0.776
			C65.78,64.603,65.549,63.581,64.79,63.095z M72.534,50.464c-5.161-3.309-11.111-5.059-17.208-5.059
			c-6.096,0-12.046,1.75-17.208,5.059c-0.76,0.487-0.988,1.51-0.511,2.284c0.479,0.776,1.483,1.008,2.24,0.521
			c4.643-2.978,9.995-4.551,15.479-4.551c5.484,0,10.836,1.574,15.479,4.551c0.268,0.172,0.567,0.254,0.862,0.254
			c0.54,0,1.068-0.273,1.377-0.775C73.522,51.974,73.293,50.952,72.534,50.464z"/>
	</g>
	<g>
		<path fill="#FFFFFF" stroke="#FFFFFF" stroke-miterlimit="10" d="M55.326,73.562c-2.687,0-4.873,2.229-4.873,4.969
			s2.187,4.969,4.873,4.969c2.688,0,4.873-2.229,4.873-4.969S58.013,73.562,55.326,73.562z M80.564,37.985
			C73.013,33.087,64.287,30.5,55.326,30.5s-17.687,2.588-25.237,7.485c-0.757,0.491-0.98,1.514-0.498,2.287
			c0.481,0.77,1.481,0.998,2.242,0.508c7.027-4.558,15.151-6.968,23.493-6.968c8.343,0,16.466,2.41,23.493,6.968
			c0.271,0.174,0.572,0.259,0.871,0.259c0.537,0,1.063-0.272,1.372-0.767C81.544,39.499,81.321,38.476,80.564,37.985z M64.79,63.095
			c-5.704-3.643-13.223-3.643-18.928,0c-0.76,0.485-0.989,1.508-0.514,2.284c0.478,0.774,1.479,1.009,2.24,0.523
			c4.667-2.982,10.809-2.982,15.476,0c0.268,0.172,0.566,0.253,0.861,0.253c0.541,0,1.069-0.275,1.378-0.776
			C65.78,64.603,65.549,63.581,64.79,63.095z M72.534,50.464c-5.161-3.309-11.111-5.059-17.208-5.059
			c-6.096,0-12.046,1.75-17.208,5.059c-0.76,0.487-0.988,1.51-0.511,2.284c0.479,0.776,1.483,1.008,2.24,0.521
			c4.643-2.978,9.995-4.551,15.479-4.551c5.484,0,10.836,1.574,15.479,4.551c0.268,0.172,0.567,0.254,0.862,0.254
			c0.54,0,1.068-0.273,1.377-0.775C73.522,51.974,73.293,50.952,72.534,50.464z"/>
	</g>
</g>
</svg>
