<?xml version="1.0" encoding="utf-8"?>
<!-- Generator: Adobe Illustrator 16.2.0, SVG Export Plug-In . SVG Version: 6.00 Build 0)  -->
<!DOCTYPE svg PUBLIC "-//W3C//DTD SVG 1.1//EN" "http://www.w3.org/Graphics/SVG/1.1/DTD/svg11.dtd">
<svg version="1.1" id="Layer_1" xmlns="http://www.w3.org/2000/svg" xmlns:xlink="http://www.w3.org/1999/xlink" x="0px" y="0px"
	 width="109px" height="109px" viewBox="0.964 0.271 109 109" enable-background="new 0.964 0.271 109 109" xml:space="preserve">
<circle fill="#50AFCB" cx="55.464" cy="54.771" r="54.5"/>
<g id="Globe">
	<g>
		<path fill="#FFFFFF" d="M55.464,30.854c-15.071,0-27.334,10.729-27.334,23.916c0,13.189,12.263,23.917,27.334,23.917
			S82.797,67.959,82.797,54.77C82.797,41.583,70.535,30.854,55.464,30.854z M45.824,36.024c-1.004,1.243-1.896,2.688-2.668,4.289
			c-0.98-0.442-1.906-0.922-2.741-1.455C42.054,37.717,43.872,36.765,45.824,36.024z M37.616,41.171
			c1.251,0.897,2.666,1.696,4.219,2.38c-0.956,2.858-1.543,6.076-1.693,9.511h-8.495C32.089,48.515,34.27,44.394,37.616,41.171z
			 M31.646,56.479h8.495c0.15,3.439,0.737,6.656,1.695,9.516c-1.552,0.684-2.96,1.488-4.209,2.387
			C34.274,65.156,32.089,61.031,31.646,56.479z M40.422,70.689c0.838-0.533,1.747-1.025,2.731-1.467
			c0.772,1.602,1.665,3.049,2.671,4.295C43.876,72.777,42.059,71.826,40.422,70.689z M53.755,75.025
			c-2.884-0.744-5.469-3.318-7.322-7.006c2.254-0.666,4.724-1.092,7.322-1.225V75.025z M53.755,63.377
			c-3.101,0.135-6.016,0.629-8.653,1.432c-0.848-2.514-1.393-5.34-1.545-8.33h10.198V63.377z M53.755,53.063H43.557
			c0.152-2.99,0.697-5.817,1.545-8.33c2.642,0.801,5.553,1.295,8.653,1.43V53.063z M53.755,42.749
			c-2.597-0.134-5.071-0.557-7.323-1.225c1.854-3.687,4.438-6.265,7.323-7.009V42.749z M79.28,53.063h-8.495
			c-0.15-3.44-0.739-6.662-1.696-9.523c1.55-0.684,2.956-1.486,4.205-2.384C76.649,44.38,78.838,48.508,79.28,53.063z
			 M70.502,38.852c-0.836,0.532-1.745,1.026-2.729,1.467c-0.772-1.604-1.665-3.05-2.671-4.294
			C67.052,36.763,68.866,37.714,70.502,38.852z M57.172,34.516c2.885,0.744,5.469,3.318,7.32,7.004
			c-2.252,0.667-4.722,1.093-7.32,1.226V34.516z M57.172,46.166c3.102-0.137,6.016-0.63,8.653-1.431
			c0.848,2.514,1.393,5.338,1.545,8.328H57.172V46.166z M57.172,56.479H67.37c-0.152,2.992-0.697,5.818-1.547,8.332
			c-2.638-0.801-5.55-1.297-8.651-1.434V56.479z M57.172,75.025v-8.232c2.598,0.133,5.073,0.553,7.325,1.221
			C62.644,71.703,60.058,74.281,57.172,75.025z M65.103,73.518c1.003-1.242,1.894-2.686,2.665-4.281
			c0.979,0.439,1.905,0.92,2.739,1.449C68.87,71.826,67.053,72.777,65.103,73.518z M73.306,68.373
			c-1.249-0.896-2.662-1.699-4.214-2.383c0.956-2.859,1.543-6.076,1.693-9.512h8.495C78.838,61.027,76.656,65.148,73.306,68.373z"/>
	</g>
</g>
</svg>
